{
.appVersion = "3148";
.storedFileType = com.glyphsapp.glyphspackage;
.formatVersion = 3;
DisplayStrings = (
"nnnnnnn
oooooo
non/Placeholder non
nno/Placeholder on/Placeholder no/Placeholder on
nnonon
nnoonn
v/Placeholder v/Placeholder v
xtf",
"HHH/Placeholder HH
OOO/Placeholder OO
HOH/Placeholder HO/Placeholder OHH
HHOOn/Placeholder no/Placeholder o
-se
",
"/Placeholder 0/Placeholder 1/Placeholder 2/Placeholder 3/Placeholder 4/Placeholder 5/Placeholder 6/Placeholder 7/Placeholder 8/Placeholder 9/Placeholder 
-0123456789
88


",
"/Placeholder a/Placeholder b/Placeholder c/Placeholder d/Placeholder e/Placeholder f/Placeholder g/Placeholder h/Placeholder i/Placeholder j/Placeholder k/Placeholder l/Placeholder m/Placeholder n/Placeholder o/Placeholder p/Placeholder q/Placeholder r/Placeholder s/Placeholder t/Placeholder u/Placeholder v/Placeholder w/Placeholder x/Placeholder y/Placeholder z/Placeholder/Placeholder/Placeholder 
-.:!¡?·*#//-_({[‹-",
"/Placeholder A/Placeholder B/Placeholder C/Placeholder D/Placeholder E/Placeholder F/Placeholder G/Placeholder H/Placeholder I/Placeholder J/Placeholder K/Placeholder L/Placeholder M/Placeholder N/Placeholder O/Placeholder P/Placeholder Q/Placeholder R/Placeholder S/Placeholder T/Placeholder U/Placeholder V/Placeholder W/Placeholder X/Placeholder Y/Placeholder Z/Placeholder/Placeholder/Placeholder/Placeholder 
-TVFPV6",
"  noᬉ ᬉ ᬊ ᬊ 
/_tail_na   ᬦ  ᬦ  ᬏ ᬏ
 /zalSasak_tedung-bali  /zalSasak_tedung-bali  ᬧ ᬧ ᭈ
ᬮ   ᬮ  /sa_tedung-bali   /sa_tedung-bali      
ᬕ   ᬕ   /kafSasak_tedung-bali  
ᬉᬲ ᬲ   ᬓ   ᬓ   
ᬘ ᬘ ᭅ  ᭅ ᭊ
/sa_tedung-bali/ka_tedung-bali  ᬮ   /la_tedung-bali/la_tedung-bali  
/_repa_ ᬋ ᬋ   ᬌ ᭉ ᬯ  /veSasak_tedung-bali 
ᬕ   /ga_tedung-bali   ᬔ ᬔ 
ᭆ ᭆ ᬳ  ᬙ   
ᬧ  /pa_tedung-bali  ᬗ  ᬗ  ᬗᬇ  ᬈ
ᬙ  /caLaca_tedung-bali   /nga_tedung-bali  ᬗ ᬕ ᬩᬩ
ᬳ ᬦ  ᬘ ᬭ ᬓᬤ    ᬢ
ᬫ ᬕ ᬩ ᬬ  ᬧ 
ᬜ ᬜ  ᬳ   /ha_tedung-bali",
"ᬅ ᬆ ᬇ ᬈ ᬉ ᬊ ᬋ ᬌ ᬍ ᬎ ᬏ ᬐ ᬑ ᬒ ᬳ ᬦ ᬡ ᬘ ᬙ ᬭ ᬓ ᬔ ᭅ ᭆ ᬤ ᬥ ᬟ ᬠ ᬢ ᬞ ᬝ ᬣ ᭇ ᬲ ᬱ ᬰ ᭊ ᭋ ᭋ ᬯ ᭉ ᬮ ᬫ ᬕ   ᬖ ᬩ ᬪ ᬗ ᬧ ᬨ ᬨ ᭈ ᬚ ᬛ ᬬ ᬜ ᬆ",

glyphs = (
{
glyphname = A;
layers = (
{
background = {
shapes = (
{
angle = 180;
pos = (597,700);
ref = V;
}
);
};
layerId = m009;
shapes = (
{
closed = 1;
nodes = (
(104,0,l),
(167,206,l),
(149,187,l),
(450,187,l),
(429,206,l),
(497,0,l),
(582,0,l),
(335,700,l),
(255,700,l),
(20,0,l)
);
},
{
closed = 1;
nodes = (
(432,257,l),
(170,257,l),
(179,244,l),
(289,599,l),
(300,599,l),
(418,238,l)
);
}
);
width = 602;
}
);
unicode = 65;
},
{
glyphname = B;
layers = (
{
anchors = (
{
name = bar_ver;
pos = (299,359);
},
{
name = bottom;
pos = (337,0);
},
{
name = top;
pos = (337,700);
}
);
background = {
shapes = (
{
ref = H;
}
);
};
layerId = m009;
shapes = (
{
closed = 1;
nodes = (
(339,0,ls),
(492,0,o),
(577,63,o),
(577,184,cs),
(577,279,o),
(524,346,o),
(437,362,c),
(437,365,l),
(505,388,o),
(544,444,o),
(544,521,cs),
(544,643,o),
(449,700,o),
(299,700,cs),
(127,700,l),
(127,630,l),
(299,630,ls),
(401,630,o),
(461,581,o),
(461,512,cs),
(461,444,o),
(402,395,o),
(326,395,cs),
(127,395,l),
(127,325,l),
(330,325,ls),
(428,325,o),
(492,276,o),
(492,194,cs),
(492,114,o),
(432,70,o),
(332,70,cs),
(127,70,l),
(127,0,l)
);
},
{
closed = 1;
nodes = (
(162,0,l),
(162,700,l),
(75,700,l),
(75,0,l)
);
}
);
width = 614;
},
{
anchors = (
{
name = bottom;
pos = (353,0);
},
{
name = top;
pos = (353,700);
}
);
associatedMasterId = m009;
background = {
shapes = (
{
closed = 0;
nodes = (
(621,312,l),
(645,281,o),
(657,243,o),
(657,198,c),
(657,157,o),
(647,121,o),
(626,91,c),
(605,61,o),
(576,38,o),
(539,23,c),
(502,8,o),
(460,0,o),
(413,0,c),
(185,0,l),
(185,118,l),
(381,118,l),
(420,118,o),
(450,126,o),
(469,142,c),
(488,158,o),
(498,180,o),
(498,209,c),
(498,239,o),
(487,261,o),
(466,276,c),
(445,291,o),
(415,298,o),
(377,298,c),
(185,298,l),
(185,407,l),
(368,407,l),
(387,407,o),
(403,411,o),
(418,418,c),
(432,425,o),
(443,436,o),
(451,449,c),
(459,462,o),
(463,477,o),
(463,494,c),
(463,522,o),
(454,544,o),
(435,559,c),
(416,574,o),
(391,582,o),
(360,582,c),
(185,582,l),
(185,700,l),
(378,700,l),
(426,700,o),
(467,692,o),
(501,675,c),
(535,658,o),
(561,636,o),
(578,608,c),
(595,579,o),
(604,547,o),
(604,510,c),
(604,483,o),
(599,458,o),
(590,437,c),
(581,416,o),
(569,398,o),
(554,383,c),
(538,369,o),
(523,357,o),
(506,349,c)
);
},
{
closed = 1;
nodes = (
(57,0,l),
(209,0,l),
(209,700,l),
(57,700,l)
);
}
);
};
layerId = "041D36F7-0399-4962-A461-FD44F4F7D82C";
name = "28 Oct 22 11.55";
shapes = (
{
closed = 1;
nodes = (
(414,0,ls),
(557,0,o),
(657,80,o),
(657,197,cs),
(657,281,o),
(605,349,o),
(517,374,c),
(516,368,l),
(575,402,o),
(604,452,o),
(604,514,cs),
(604,625,o),
(512,700,o),
(377,700,cs),
(183,700,l),
(183,585,l),
(360,585,ls),
(426,585,o),
(463,554,o),
(463,500,cs),
(463,444,o),
(423,407,o),
(361,407,cs),
(183,407,l),
(183,298,l),
(392,298,ls),
(462,298,o),
(502,266,o),
(502,209,cs),
(502,148,o),
(456,115,o),
(377,115,cs),
(183,115,l),
(183,0,l)
);
},
{
closed = 1;
nodes = (
(218,0,l),
(218,700,l),
(68,700,l),
(68,0,l)
);
}
);
width = 687;
}
);
metricLeft = H;
unicode = 66;
},
{
glyphname = C;
layers = (
{
anchors = (
{
name = bar_hor_dbl;
pos = (197,355);
},
{
name = tail_Q;
pos = (386,43);
}
);
background = {
shapes = (
{
ref = O;
}
);
};
layerId = m009;
shapes = (
{
closed = 1;
nodes = (
(436,-10,o),
(506,7,o),
(561,53,c),
(530,118,l),
(466,75,o),
(410,67,o),
(372,67,cs),
(248,67,o),
(138,150,o),
(138,350,cs),
(138,552,o),
(246,633,o),
(383,633,cs),
(434,633,o),
(478,622,o),
(531,583,c),
(564,648,l),
(509,693,o),
(442,710,o),
(377,710,cs),
(190,710,o),
(50,574,o),
(50,350,cs),
(50,126,o),
(189,-10,o),
(372,-10,cs)
);
}
);
width = 609;
}
);
metricLeft = O;
unicode = 67;
},
{
glyphname = D;
layers = (
{
background = {
shapes = (
{
pos = (-40,0);
ref = O;
}
);
};
layerId = m009;
shapes = (
{
closed = 1;
nodes = (
(278,0,ls),
(495,0,o),
(609,121,o),
(609,350,cs),
(609,579,o),
(495,700,o),
(278,700,cs),
(75,700,l),
(75,0,l)
);
},
{
closed = 1;
nodes = (
(162,668,l),
(124,630,l),
(278,630,ls),
(436,630,o),
(521,532,o),
(521,350,cs),
(521,168,o),
(436,70,o),
(278,70,cs),
(124,70,l),
(162,32,l)
);
}
);
width = 659;
}
);
metricLeft = H;
metricRight = O;
unicode = 68;
},
{
glyphname = G;
layers = (
{
background = {
shapes = (
{
ref = C;
}
);
};
layerId = m009;
shapes = (
{
closed = 1;
nodes = (
(454,-10,o),
(526,15,o),
(592,79,c),
(594,374,l),
(375,374,l),
(375,304,l),
(557,304,l),
(521,349,l),
(521,70,l),
(531,118,l),
(489,87,o),
(450,67,o),
(371,67,cs),
(245,67,o),
(138,152,o),
(138,350,cs),
(138,550,o),
(247,633,o),
(367,633,cs),
(435,633,o),
(505,607,o),
(562,557,c),
(524,540,l),
(591,675,l),
(593,624,l),
(535,681,o),
(457,710,o),
(371,710,cs),
(190,710,o),
(50,574,o),
(50,350,cs),
(50,126,o),
(189,-10,o),
(375,-10,cs)
);
}
);
width = 639;
}
);
metricLeft = O;
unicode = 71;
},
{
glyphname = H;
layers = (
{
background = {
shapes = (
{
pos = (-28,0);
ref = O;
}
);
};
layerId = m009;
shapes = (
{
closed = 1;
nodes = (
(162,0,l),
(162,340,l),
(142,320,l),
(510,320,l),
(497,336,l),
(497,0,l),
(584,0,l),
(584,700,l),
(497,700,l),
(497,374,l),
(514,390,l),
(142,390,l),
(162,371,l),
(162,700,l),
(75,700,l),
(75,0,l)
);
}
);
width = 659;
}
);
metricRight = "=|";
unicode = 72;
},
{
glyphname = I;
layers = (
{
layerId = m009;
shapes = (
{
closed = 1;
nodes = (
(162,0,l),
(162,700,l),
(75,700,l),
(75,0,l)
);
}
);
width = 237;
}
);
metricLeft = H;
metricRight = H;
unicode = 73;
},
{
glyphname = J;
layers = (
{
background = {
shapes = (
{
angle = 180;
pos = (613,700);
ref = C;
}
);
};
layerId = m009;
shapes = (
{
closed = 1;
nodes = (
(311,-9,o),
(389,55,o),
(389,180,cs),
(389,700,l),
(304,700,l),
(304,183,ls),
(304,102,o),
(270,68,o),
(206,68,cs),
(152,68,o),
(100,91,o),
(63,126,c),
(99,154,l),
(33,19,l),
(39,63,l),
(73,24,o),
(135,-9,o),
(205,-9,cs)
);
}
);
width = 459;
}
);
unicode = 74;
},
{
glyphname = K;
layers = (
{
background = {
shapes = (
{
pos = (27,0);
ref = X;
}
);
};
layerId = m009;
shapes = (
{
closed = 1;
nodes = (
(574,0,l),
(241,369,l),
(248,325,l),
(554,700,l),
(459,700,l),
(160,345,l),
(160,332,l),
(472,0,l)
);
},
{
closed = 1;
nodes = (
(162,0,l),
(162,700,l),
(75,700,l),
(75,0,l)
);
}
);
width = 584;
}
);
metricLeft = H;
unicode = 75;
},
{
glyphname = M;
layers = (
{
background = {
shapes = (
{
pos = (-10,0);
ref = H;
}
);
};
layerId = m009;
shapes = (
{
closed = 1;
nodes = (
(157,0,l),
(157,384,ls),
(157,443,o),
(153,552,o),
(148,578,c),
(152,580,l),
(368,0,l),
(463,0,l),
(686,580,l),
(690,578,l),
(685,552,o),
(680,443,o),
(680,384,cs),
(680,0,l),
(762,0,l),
(762,700,l),
(662,700,l),
(420,82,l),
(415,82,l),
(183,700,l),
(75,700,l),
(75,0,l)
);
}
);
width = 837;
}
);
metricLeft = H;
metricRight = H;
unicode = 77;
},
{
glyphname = N;
layers = (
{
background = {
shapes = (
{
pos = (-2,0);
ref = H;
}
);
};
layerId = m009;
shapes = (
{
closed = 1;
nodes = (
(157,0,l),
(157,352,ls),
(157,422,o),
(154,506,o),
(148,540,c),
(151,542,l),
(531,0,l),
(596,0,l),
(596,700,l),
(514,700,l),
(514,317,ls),
(514,256,o),
(517,199,o),
(523,160,c),
(520,158,l),
(142,700,l),
(75,700,l),
(75,0,l)
);
}
);
width = 671;
}
);
metricLeft = H;
metricRight = H;
unicode = 78;
},
{
glyphname = O;
layers = (
{
anchors = (
{
name = tail_Q;
pos = (386,43);
}
);
background = {
shapes = (
{
pos = (47,0);
ref = H;
}
);
};
layerId = m009;
shapes = (
{
closed = 1;
nodes = (
(556,-10,o),
(697,120,o),
(697,350,cs),
(697,580,o),
(556,710,o),
(374,710,cs),
(190,710,o),
(50,574,o),
(50,350,cs),
(50,126,o),
(189,-10,o),
(374,-10,cs)
);
},
{
closed = 1;
nodes = (
(241,67,o),
(138,150,o),
(138,350,cs),
(138,550,o),
(240,633,o),
(374,633,cs),
(506,633,o),
(609,554,o),
(609,350,cs),
(609,146,o),
(506,67,o),
(375,67,cs)
);
}
);
width = 747;
}
);
metricRight = "=|";
unicode = 79;
},
{
glyphname = P;
layers = (
{
background = {
shapes = (
{
ref = B;
}
);
};
layerId = m009;
shapes = (
{
closed = 1;
nodes = (
(162,0,l),
(162,700,l),
(75,700,l),
(75,0,l)
);
},
{
closed = 1;
nodes = (
(473,297,o),
(554,367,o),
(554,499,cs),
(554,632,o),
(470,700,o),
(307,700,cs),
(127,700,l),
(127,630,l),
(307,630,ls),
(414,630,o),
(467,590,o),
(467,499,cs),
(467,410,o),
(415,367,o),
(320,367,cs),
(127,367,l),
(127,297,l),
(320,297,ls)
);
}
);
width = 591;
}
);
metricLeft = H;
unicode = 80;
},
{
glyphname = R;
layers = (
{
background = {
shapes = (
{
ref = P;
}
);
};
layerId = m009;
shapes = (
{
closed = 1;
nodes = (
(162,0,l),
(162,328,l),
(144,310,l),
(294,310,ls),
(375,310,o),
(402,291,o),
(427,204,cs),
(486,0,l),
(577,0,l),
(501,255,ls),
(486,304,o),
(467,335,o),
(431,351,c),
(431,353,l),
(500,374,o),
(542,435,o),
(542,513,cs),
(542,627,o),
(453,700,o),
(306,700,cs),
(75,700,l),
(75,0,l)
);
},
{
closed = 1;
nodes = (
(162,648,l),
(144,630,l),
(306,630,ls),
(406,630,o),
(458,578,o),
(458,504,cs),
(458,432,o),
(409,377,o),
(329,377,cs),
(146,377,l),
(162,362,l)
);
}
);
width = 587;
}
);
metricLeft = H;
unicode = 82;
},
{
glyphname = S;
layers = (
{
anchors = (
{
name = bar_ver;
pos = (267,359);
}
);
layerId = m009;
shapes = (
{
closed = 1;
nodes = (
(394,-10,o),
(489,66,o),
(489,186,cs),
(489,304,o),
(397,354,o),
(291,397,cs),
(208,431,o),
(130,458,o),
(130,532,cs),
(130,593,o),
(182,633,o),
(263,633,cs),
(330,633,o),
(401,605,o),
(457,556,c),
(419,539,l),
(483,674,l),
(486,623,l),
(429,679,o),
(351,710,o),
(268,710,cs),
(138,710,o),
(48,632,o),
(48,522,cs),
(48,417,o),
(130,368,o),
(252,318,cs),
(345,280,o),
(404,250,o),
(404,176,cs),
(404,105,o),
(349,67,o),
(245,67,cs),
(168,67,o),
(113,87,o),
(36,142,c),
(75,160,l),
(15,25,l),
(15,64,l),
(74,16,o),
(154,-10,o),
(244,-10,cs)
);
}
);
width = 521;
}
);
unicode = 83;
},
{
glyphname = T;
layers = (
{
background = {
shapes = (
{
pos = (-56,0);
ref = H;
}
);
};
layerId = m009;
shapes = (
{
closed = 1;
nodes = (
(342,0,l),
(342,655,l),
(326,630,l),
(562,630,l),
(562,700,l),
(25,700,l),
(25,630,l),
(275,630,l),
(255,652,l),
(255,0,l)
);
}
);
width = 587;
}
);
unicode = 84;
},
{
glyphname = U;
layers = (
{
background = {
shapes = (
{
pos = (29,0);
ref = V;
},
{
ref = H;
},
{
pos = (-45,0);
ref = O;
}
);
};
layerId = m009;
shapes = (
{
closed = 1;
nodes = (
(478,-10,o),
(569,76,o),
(569,210,cs),
(569,700,l),
(484,700,l),
(484,214,ls),
(484,125,o),
(424,72,o),
(324,72,cs),
(223,72,o),
(162,126,o),
(162,214,cs),
(162,700,l),
(75,700,l),
(75,210,ls),
(75,77,o),
(171,-10,o),
(328,-10,cs)
);
}
);
width = 639;
}
);
unicode = 85;
},
{
glyphname = V;
layers = (
{
background = {
shapes = (
{
pos = (-111,0);
ref = M;
}
);
};
layerId = m009;
shapes = (
{
closed = 1;
nodes = (
(343,0,l),
(591,700,l),
(499,700,l),
(307,105,l),
(303,105,l),
(105,700,l),
(15,700,l),
(262,0,l)
);
}
);
width = 606;
}
);
unicode = 86;
},
{
glyphname = W;
layers = (
{
background = {
shapes = (
{
ref = V;
}
);
};
layerId = m009;
shapes = (
{
closed = 1;
nodes = (
(300,0,l),
(432,567,l),
(439,567,l),
(580,0,l),
(690,0,l),
(862,700,l),
(776,700,l),
(637,105,l),
(633,105,l),
(481,700,l),
(390,700,l),
(253,105,l),
(249,105,l),
(108,700,l),
(15,700,l),
(196,0,l)
);
}
);
width = 877;
}
);
metricLeft = V;
metricRight = V;
unicode = 87;
},
{
glyphname = X;
layers = (
{
background = {
shapes = (
{
pos = (-52,0);
ref = H;
}
);
};
layerId = m009;
shapes = (
{
closed = 1;
nodes = (
(111,0,l),
(294,303,l),
(267,303,l),
(455,0,l),
(547,0,l),
(320,353,l),
(320,330,l),
(545,700,l),
(450,700,l),
(267,383,l),
(294,383,l),
(112,700,l),
(21,700,l),
(240,330,l),
(240,353,l),
(15,0,l)
);
}
);
width = 557;
}
);
unicode = 88;
},
{
glyphname = Y;
layers = (
{
anchors = (
{
name = bar_hor_dbl;
pos = (280,194);
}
);
background = {
shapes = (
{
pos = (-11,0);
ref = X;
}
);
};
layerId = m009;
shapes = (
{
closed = 1;
nodes = (
(318,0,l),
(318,360,l),
(299,289,l),
(539,700,l),
(444,700,l),
(279,392,l),
(275,392,l),
(106,700,l),
(15,700,l),
(250,289,l),
(231,360,l),
(231,0,l)
);
}
);
width = 549;
}
);
unicode = 89;
},
{
glyphname = Z;
layers = (
{
background = {
shapes = (
{
pos = (-31,0);
ref = E;
}
);
};
layerId = m009;
shapes = (
{
closed = 1;
nodes = (
(464,0,l),
(464,70,l),
(77,70,l),
(96,37,l),
(460,630,l),
(460,700,l),
(52,700,l),
(52,630,l),
(417,630,l),
(396,662,l),
(28,70,l),
(28,0,l)
);
}
);
width = 490;
}
);
unicode = 90;
},
{
glyphname = G.001;
layers = (
{
background = {
shapes = (
{
ref = G;
}
);
};
layerId = m009;
shapes = (
{
closed = 1;
nodes = (
(489,-10,o),
(564,44,o),
(610,98,c),
(594,22,l),
(594,374,l),
(522,374,l),
(522,80,l),
(535,124,l),
(488,87,o),
(429,67,o),
(369,67,cs),
(245,67,o),
(138,152,o),
(138,350,cs),
(138,550,o),
(247,633,o),
(367,633,cs),
(427,633,o),
(488,612,o),
(541,573,c),
(574,640,l),
(519,686,o),
(448,710,o),
(371,710,cs),
(190,710,o),
(50,574,o),
(50,350,cs),
(50,126,o),
(189,-10,o),
(371,-10,cs)
);
}
);
width = 639;
}
);
metricLeft = O;
},
{
glyphname = K.001;
layers = (
{
background = {
shapes = (
{
closed = 1;
nodes = (
(162,0,l),
(162,700,l),
(75,700,l),
(75,0,l)
);
},
{
closed = 1;
nodes = (
(574,0,l),
(233,366,l),
(234,322,l),
(549,700,l),
(459,700,l),
(160,345,l),
(160,332,l),
(472,0,l)
);
}
);
};
layerId = m009;
shapes = (
{
closed = 1;
nodes = (
(162,0,l),
(162,700,l),
(75,700,l),
(75,0,l)
);
},
{
closed = 1;
nodes = (
(574,0,l),
(233,366,l),
(234,322,l),
(549,700,l),
(459,700,l),
(160,345,l),
(160,332,l),
(472,0,l)
);
}
);
width = 584;
}
);
metricLeft = H;
},
{
glyphname = R.001;
layers = (
{
background = {
shapes = (
{
closed = 1;
nodes = (
(302,315,ls),
(438,315,o),
(515,392,o),
(515,505,cs),
(515,622,o),
(439,700,o),
(302,700,cs),
(127,700,l),
(127,627,l),
(302,627,ls),
(394,627,o),
(428,586,o),
(428,506,cs),
(428,432,o),
(390,388,o),
(302,388,cs),
(127,388,l),
(127,315,l)
);
},
{
closed = 1;
nodes = (
(553,0,l),
(476,231,ls),
(445,324,o),
(414,347,o),
(328,347,cs),
(257,347,l),
(257,315,l),
(279,315,ls),
(338,315,o),
(367,286,o),
(392,209,cs),
(459,0,l)
);
},
{
closed = 1;
nodes = (
(162,0,l),
(162,700,l),
(75,700,l),
(75,0,l)
);
}
);
};
layerId = m009;
shapes = (
{
closed = 1;
nodes = (
(302,315,ls),
(438,315,o),
(514,392,o),
(514,506,cs),
(514,622,o),
(439,700,o),
(302,700,cs),
(127,700,l),
(127,627,l),
(302,627,ls),
(394,627,o),
(429,586,o),
(429,507,cs),
(429,432,o),
(390,388,o),
(302,388,cs),
(127,388,l),
(127,315,l)
);
},
{
closed = 1;
nodes = (
(162,0,l),
(162,700,l),
(75,700,l),
(75,0,l)
);
},
{
closed = 1;
nodes = (
(551,0,l),
(382,351,l),
(297,351,l),
(461,0,l)
);
}
);
width = 564;
}
);
metricLeft = H;
},
{
glyphname = R.002;
layers = (
{
background = {
shapes = (
{
pos = (339,0);
ref = l;
}
);
};
layerId = m009;
shapes = (
{
closed = 1;
nodes = (
(558,-10,o),
(577,-2,o),
(602,19,c),
(593,-32,l),
(553,92,l),
(582,75,l),
(555,45,o),
(503,54,o),
(503,106,cs),
(503,234,ls),
(503,313,o),
(466,344,o),
(424,351,c),
(424,353,l),
(486,370,o),
(536,431,o),
(536,513,cs),
(536,623,o),
(447,700,o),
(300,700,cs),
(75,700,l),
(75,0,l),
(162,0,l),
(162,328,l),
(144,310,l),
(327,310,ls),
(390,310,o),
(418,280,o),
(418,223,cs),
(418,124,ls),
(418,28,o),
(460,-10,o),
(527,-10,cs)
);
},
{
closed = 1;
nodes = (
(162,645,l),
(144,627,l),
(300,627,ls),
(400,627,o),
(452,579,o),
(452,503,cs),
(452,428,o),
(403,380,o),
(323,380,cs),
(146,380,l),
(162,365,l)
);
}
);
width = 592;
}
);
metricLeft = H;
},
{
glyphname = a;
layers = (
{
background = {
shapes = (
{
closed = 1;
nodes = (
(534,95,o),
(514,106,o),
(514,146,cs),
(514,356,ls),
(514,482,o),
(424,555,o),
(267,555,cs),
(169,555,o),
(63,527,o),
(-18,479,c),
(28,537,l),
(80,379,l),
(15,372,l),
(98,419,o),
(166,440,o),
(232,440,cs),
(304,440,o),
(368,414,o),
(368,339,cs),
(368,128,ls),
(368,39,o),
(418,-10,o),
(490,-10,cs),
(538,-10,o),
(582,12,o),
(620,46,c),
(590,-69,l),
(551,151,l),
(581,109,l)
);
},
{
closed = 1;
nodes = (
(301,-10,o),
(391,63,o),
(420,178,c),
(366,239,l),
(359,150,o),
(303,89,o),
(219,89,cs),
(168,89,o),
(136,117,o),
(136,160,cs),
(136,233,o),
(225,261,o),
(386,233,c),
(396,307,l),
(154,362,o),
(-16,296,o),
(-16,151,cs),
(-16,53,o),
(61,-10,o),
(176,-10,cs)
);
}
);
};
layerId = m009;
shapes = (
{
closed = 1;
nodes = (
(510,123,l),
(560,71,l),
(499,36,o),
(475,61,o),
(475,131,cs),
(475,338,ls),
(475,473,o),
(405,555,o),
(267,555,cs),
(189,555,o),
(100,528,o),
(42,486,c),
(53,541,l),
(100,431,l),
(60,417,l),
(132,461,o),
(186,481,o),
(248,481,cs),
(351,481,o),
(390,427,o),
(390,336,cs),
(390,123,l),
(396,113,l),
(396,44,o),
(421,-10,o),
(494,-10,cs),
(524,-10,o),
(545,-1,o),
(564,12,c),
(557,-33,l)
);
},
{
closed = 1;
nodes = (
(300,-10,o),
(361,28,o),
(391,89,c),
(402,89,l),
(405,222,l),
(390,222,l),
(390,143,o),
(329,52,o),
(237,52,cs),
(173,52,o),
(132,95,o),
(132,157,cs),
(132,234,o),
(197,263,o),
(270,263,cs),
(315,263,o),
(372,252,o),
(407,233,c),
(407,308,l),
(387,303,l),
(353,312,o),
(307,321,o),
(258,321,cs),
(131,321,o),
(43,260,o),
(43,154,cs),
(43,54,o),
(121,-10,o),
(222,-10,cs)
);
}
);
width = 565;
},
{
anchors = (
{
name = bottom;
pos = (308,0);
},
{
name = ogonek;
pos = (570,0);
},
{
name = top;
pos = (308,545);
}
);
associatedMasterId = m009;
background = {
shapes = (
{
closed = 1;
nodes = (
(437,0,l),
(423,107,l),
(423,362,l),
(423,380,o),
(418,395,o),
(408,406,c),
(397,418,o),
(382,426,o),
(362,431,c),
(342,437,o),
(318,439,o),
(290,439,c),
(286,439,l),
(283,439,l),
(254,439,o),
(223,436,o),
(191,429,c),
(158,422,o),
(133,414,o),
(113,404,c),
(77,508,l),
(104,521,o),
(140,533,o),
(184,542,c),
(228,551,o),
(275,555,o),
(324,555,c),
(401,555,o),
(461,541,o),
(505,512,c),
(548,484,o),
(570,433,o),
(570,361,c),
(570,0,l)
);
},
{
closed = 1;
nodes = (
(222,-10,l),
(190,-10,o),
(160,-4,o),
(132,9,c),
(104,21,o),
(81,40,o),
(64,64,c),
(47,88,o),
(39,117,o),
(39,149,c),
(39,152,l),
(39,199,o),
(57,238,o),
(95,269,c),
(133,299,o),
(189,318,o),
(263,324,c),
(452,340,l),
(452,254,l),
(298,240,l),
(265,237,o),
(241,229,o),
(224,217,c),
(207,205,o),
(199,188,o),
(199,168,c),
(199,143,o),
(207,125,o),
(222,112,c),
(238,99,o),
(259,93,o),
(284,93,c),
(308,93,o),
(330,98,o),
(351,108,c),
(372,118,o),
(389,133,o),
(403,151,c),
(416,170,o),
(423,193,o),
(423,220,c),
(476,178,l),
(466,134,o),
(449,98,o),
(424,70,c),
(399,42,o),
(369,21,o),
(335,9,c),
(301,-4,o),
(266,-10,o),
(229,-10,c)
);
}
);
};
layerId = "90AA5CBF-A596-42C0-9008-AC44A3E9C24E";
name = "28 Oct 22 11.52";
shapes = (
{
closed = 1;
nodes = (
(590,95,o),
(570,106,o),
(570,146,cs),
(570,356,ls),
(570,482,o),
(480,555,o),
(323,555,cs),
(225,555,o),
(119,527,o),
(38,479,c),
(84,537,l),
(136,379,l),
(71,372,l),
(154,419,o),
(222,440,o),
(288,440,cs),
(360,440,o),
(424,414,o),
(424,339,cs),
(424,128,ls),
(424,39,o),
(474,-10,o),
(546,-10,cs),
(594,-10,o),
(638,12,o),
(676,46,c),
(646,-69,l),
(607,151,l),
(637,109,l)
);
},
{
closed = 1;
nodes = (
(357,-10,o),
(447,63,o),
(476,178,c),
(422,239,l),
(415,150,o),
(359,89,o),
(275,89,cs),
(224,89,o),
(192,117,o),
(192,160,cs),
(192,233,o),
(281,261,o),
(442,233,c),
(452,307,l),
(210,362,o),
(40,296,o),
(40,151,cs),
(40,53,o),
(117,-10,o),
(232,-10,cs)
);
}
);
width = 642;
}
);
unicode = 97;
},
{
glyphname = b;
layers = (
{
background = {
shapes = (
{
pos = (19,545);
ref = n;
scale = (1,-1);
}
);
};
layerId = m009;
shapes = (
{
closed = 1;
nodes = (
(147,0,l),
(167,76,l),
(168,118,l),
(156,151,l),
(156,443,l),
(167,450,l),
(167,750,l),
(82,750,l),
(82,0,l)
);
},
{
pos = (8,0);
ref = _perut_b;
}
);
width = 614;
},
{
anchors = (
{
name = bottom;
pos = (343,0);
},
{
name = top;
pos = (343,750);
}
);
associatedMasterId = m009;
background = {
shapes = (
{
closed = 1;
nodes = (
(377,110,o),
(403,117,o),
(426,132,c),
(449,147,o),
(467,166,o),
(480,190,c),
(492,214,o),
(498,240,o),
(498,267,c),
(498,273,l),
(498,303,o),
(492,330,o),
(479,354,c),
(466,377,o),
(449,396,o),
(426,410,c),
(403,424,o),
(377,430,o),
(348,430,c),
(317,430,o),
(291,423,o),
(268,409,c),
(246,394,o),
(229,375,o),
(217,351,c),
(205,327,o),
(200,301,o),
(200,272,c),
(200,263,l),
(200,234,o),
(206,208,o),
(219,185,c),
(231,162,o),
(249,143,o),
(271,130,c),
(294,117,o),
(319,110,o),
(347,110,c)
);
},
{
closed = 1;
nodes = (
(344,-10,o),
(310,-4,o),
(279,8,c),
(249,21,o),
(224,37,o),
(204,58,c),
(184,79,o),
(168,102,o),
(158,128,c),
(158,410,l),
(166,437,o),
(179,461,o),
(198,482,c),
(217,504,o),
(242,521,o),
(272,533,c),
(302,545,o),
(336,552,o),
(374,552,c),
(427,552,o),
(474,539,o),
(515,514,c),
(556,489,o),
(587,455,o),
(610,413,c),
(633,370,o),
(644,324,o),
(644,273,c),
(644,264,l),
(644,211,o),
(633,163,o),
(610,122,c),
(587,81,o),
(555,48,o),
(515,25,c),
(475,1,o),
(431,-10,o),
(383,-10,c)
);
},
{
closed = 1;
nodes = (
(53,0,l),
(53,740,l),
(200,740,l),
(200,106,l),
(187,0,l)
);
}
);
};
layerId = "39D93B3F-3BBE-4227-9F9A-0897DBA04697";
name = "28 Oct 22 12.03";
shapes = (
{
closed = 1;
nodes = (
(167,0,l),
(199,106,l),
(199,740,l),
(53,740,l),
(53,0,l)
);
},
{
closed = 1;
nodes = (
(522,-10,o),
(637,99,o),
(637,276,cs),
(637,447,o),
(532,555,o),
(392,555,cs),
(303,555,o),
(232,511,o),
(187,441,c),
(182,103,l),
(232,27,o),
(298,-10,o),
(387,-10,cs)
);
},
{
closed = 1;
nodes = (
(263,107,o),
(206,177,o),
(206,272,cs),
(206,367,o),
(263,435,o),
(349,435,cs),
(432,435,o),
(488,376,o),
(488,274,cs),
(488,169,o),
(428,107,o),
(346,107,cs)
);
}
);
width = 660;
}
);
metricLeft = h;
metricRight = o;
unicode = 98;
},
{
glyphname = c;
layers = (
{
anchors = (
{
name = bar_ver;
pos = (313,273);
}
);
background = {
shapes = (
{
ref = o;
}
);
};
layerId = m009;
shapes = (
{
closed = 1;
nodes = (
(366,-10,o),
(428,12,o),
(469,46,c),
(435,107,l),
(397,81,o),
(351,63,o),
(303,63,cs),
(210,63,o),
(136,129,o),
(136,273,cs),
(136,420,o),
(221,482,o),
(307,482,cs),
(353,482,o),
(392,473,o),
(442,438,c),
(470,503,l),
(436,530,o),
(383,555,o),
(300,555,cs),
(160,555,o),
(50,459,o),
(50,273,cs),
(50,87,o),
(161,-10,o),
(300,-10,cs)
);
}
);
width = 507;
}
);
metricLeft = o;
unicode = 99;
},
{
glyphname = d;
layers = (
{
background = {
shapes = (
{
pos = (618,0);
ref = b;
scale = (-1,1);
}
);
};
layerId = m009;
shapes = (
{
closed = 1;
nodes = (
(536,0,l),
(536,750,l),
(451,750,l),
(451,450,l),
(462,443,l),
(462,151,l),
(449,119,l),
(449,83,l),
(471,0,l)
);
},
{
pos = (5,0);
ref = _perut_d;
}
);
width = 618;
}
);
metricLeft = o;
metricRight = "=|h";
unicode = 100;
},
{
color = 0;
glyphname = e;
layers = (
{
background = {
shapes = (
{
ref = c;
}
);
};
layerId = m009;
shapes = (
{
closed = 1;
nodes = (
(380,-10,o),
(435,17,o),
(469,46,c),
(435,107,l),
(395,79,o),
(350,63,o),
(303,63,cs),
(201,63,o),
(134,138,o),
(134,257,c),
(109,241,l),
(510,241,l),
(519,439,o),
(441,555,o),
(293,555,cs),
(145,555,o),
(50,430,o),
(50,266,cs),
(50,93,o),
(162,-10,o),
(307,-10,cs)
);
},
{
closed = 1;
nodes = (
(130,400,o),
(196,482,o),
(286,482,cs),
(375,482,o),
(433,402,o),
(427,287,c),
(452,311,l),
(118,311,l),
(133,284,l)
);
}
);
width = 553;
}
);
metricLeft = o;
unicode = 101;
},
{
glyphname = f;
layers = (
{
layerId = m009;
shapes = (
{
closed = 1;
nodes = (
(173,0,l),
(173,574,ls),
(173,642,o),
(203,672,o),
(257,672,cs),
(274,672,o),
(293,669,o),
(314,663,c),
(301,655,l),
(327,730,l),
(333,716,l),
(316,728,o),
(291,741,o),
(249,741,cs),
(155,741,o),
(88,676,o),
(88,581,cs),
(88,0,l)
);
},
{
closed = 1;
nodes = (
(279,475,l),
(279,545,l),
(33,545,l),
(33,475,l)
);
}
);
width = 309;
}
);
unicode = 102;
},
{
glyphname = g;
layers = (
{
layerId = m009;
shapes = (
{
closed = 1;
nodes = (
(300,-265,ls),
(416,-265,o),
(493,-207,o),
(493,-116,cs),
(493,-87,ls),
(493,-1,o),
(418,66,o),
(298,66,cs),
(163,66,ls),
(139,66,o),
(125,77,o),
(125,94,cs),
(125,106,o),
(132,116,o),
(146,127,cs),
(214,182,l),
(180,219,l),
(97,155,ls),
(62,129,o),
(47,107,o),
(47,82,cs),
(47,29,o),
(116,-16,o),
(160,-16,cs),
(313,-16,ls),
(376,-16,o),
(412,-46,o),
(412,-88,cs),
(412,-113,ls),
(412,-161,o),
(372,-190,o),
(311,-190,cs),
(176,-190,ls),
(116,-190,o),
(75,-161,o),
(75,-114,cs),
(75,-64,o),
(120,-16,o),
(208,-16,c),
(208,18,l),
(124,18,o),
(-10,-31,o),
(-10,-132,cs),
(-10,-211,o),
(71,-265,o),
(179,-265,cs)
);
},
{
closed = 1;
nodes = (
(347,169,o),
(434,242,o),
(434,362,cs),
(434,482,o),
(347,555,o),
(242,555,cs),
(137,555,o),
(50,482,o),
(50,362,cs),
(50,242,o),
(137,169,o),
(242,169,cs)
);
},
{
closed = 1;
nodes = (
(179,237,o),
(127,282,o),
(127,363,cs),
(127,444,o),
(179,488,o),
(242,488,cs),
(305,488,o),
(357,444,o),
(357,363,cs),
(357,282,o),
(305,237,o),
(242,237,cs)
);
},
{
closed = 1;
nodes = (
(335,517,o),
(360,551,o),
(464,551,c),
(464,639,l),
(392,639,o),
(326,608,o),
(290,545,c),
(286,545,l),
(286,515,l),
(318,475,l)
);
}
);
width = 483;
}
);
unicode = 103;
},
{
glyphname = i;
layers = (
{
background = {
shapes = (
{
closed = 1;
nodes = (
(46,609,l),
(202,609,l),
(202,740,l),
(46,740,l)
);
},
{
closed = 1;
nodes = (
(52,0,l),
(198,0,l),
(198,542,l),
(52,542,l)
);
}
);
};
guides = (
{
angle = 90;
pos = (219,201);
},
{
angle = 270;
pos = (51,201);
},
{
pos = (193,568);
}
);
layerId = m009;
shapes = (
{
closed = 1;
nodes = (
(180,662,l),
(180,750,l),
(85,750,l),
(85,662,l)
);
},
{
closed = 1;
nodes = (
(175,0,l),
(175,545,l),
(90,545,l),
(90,0,l)
);
}
);
width = 265;
}
);
metricRight = "=|";
unicode = 105;
},
{
glyphname = j;
layers = (
{
background = {
shapes = (
{
angle = 180;
pos = (275,528);
ref = f;
}
);
};
layerId = m009;
shapes = (
{
closed = 1;
nodes = (
(109,-213,o),
(175,-148,o),
(175,-53,cs),
(175,545,l),
(90,545,l),
(90,-46,ls),
(90,-114,o),
(60,-144,o),
(6,-144,cs),
(-11,-144,o),
(-30,-141,o),
(-51,-135,c),
(-38,-127,l),
(-64,-202,l),
(-70,-188,l),
(-54,-200,o),
(-29,-213,o),
(14,-213,cs)
);
},
{
closed = 1;
nodes = (
(180,662,l),
(180,750,l),
(85,750,l),
(85,662,l)
);
}
);
width = 250;
}
);
unicode = 106;
},
{
glyphname = k;
layers = (
{
background = {
shapes = (
{
pos = (81,0);
ref = x;
}
);
};
layerId = m009;
shapes = (
{
pos = (31,0);
ref = _part.stem_l;
},
{
closed = 1;
nodes = (
(520,0,l),
(245,302,l),
(245,268,l),
(504,545,l),
(411,545,l),
(166,289,l),
(166,274,l),
(417,0,l)
);
}
);
width = 530;
}
);
metricLeft = h;
unicode = 107;
},
{
glyphname = l;
layers = (
{
background = {
shapes = (
{
pos = (-309,0);
ref = a;
}
);
};
layerId = m009;
shapes = (
{
closed = 1;
nodes = (
(210,-10,o),
(226,-6,o),
(249,8,c),
(246,-7,l),
(222,68,l),
(233,64,l),
(187,44,o),
(164,73,o),
(164,108,cs),
(164,750,l),
(79,750,l),
(79,112,ls),
(79,37,o),
(117,-10,o),
(189,-10,cs)
);
}
);
width = 274;
}
);
unicode = 108;
},
{
glyphname = m;
layers = (
{
anchors = (
{
name = connect;
pos = (510,0);
}
);
background = {
shapes = (
{
pos = (343,0);
ref = n;
}
);
};
layerId = m009;
shapes = (
{
alignment = -1;
pos = (38,0);
ref = _part.stem;
},
{
closed = 1;
nodes = (
(502,0,l),
(502,341,ls),
(502,478,o),
(439,555,o),
(328,555,cs),
(250,555,o),
(200,525,o),
(162,469,c),
(151,469,l),
(151,336,l),
(159,336,l),
(165,415,o),
(209,487,o),
(302,487,cs),
(371,487,o),
(418,439,o),
(418,341,cs),
(418,0,l)
);
},
{
closed = 1;
nodes = (
(844,0,l),
(844,345,ls),
(844,481,o),
(772,555,o),
(666,555,cs),
(594,555,o),
(526,527,o),
(486,453,c),
(475,453,l),
(492,346,l),
(502,346,l),
(508,425,o),
(557,487,o),
(641,487,cs),
(709,487,o),
(759,438,o),
(759,341,cs),
(759,0,l)
);
}
);
width = 917;
}
);
metricLeft = n;
metricRight = n;
unicode = 109;
},
{
glyphname = o;
layers = (
{
background = {
shapes = (
{
pos = (42,0);
ref = n;
}
);
};
layerId = m009;
shapes = (
{
closed = 1;
nodes = (
(443,-10,o),
(554,87,o),
(554,273,cs),
(554,459,o),
(443,555,o),
(302,555,cs),
(161,555,o),
(50,459,o),
(50,273,cs),
(50,87,o),
(161,-10,o),
(302,-10,cs)
);
},
{
closed = 1;
nodes = (
(218,63,o),
(136,119,o),
(136,273,cs),
(136,427,o),
(218,482,o),
(302,482,cs),
(386,482,o),
(468,427,o),
(468,273,cs),
(468,119,o),
(386,63,o),
(302,63,cs)
);
}
);
width = 604;
}
);
metricRight = "=|";
unicode = 111;
},
{
glyphname = p;
layers = (
{
background = {
shapes = (
{
pos = (16,0);
ref = b;
}
);
};
guides = (
{
pos = (1035,869);
}
);
layerId = m009;
shapes = (
{
closed = 1;
nodes = (
(159,-205,l),
(159,95,l),
(148,102,l),
(148,394,l),
(164,427,l),
(164,449,l),
(138,545,l),
(74,545,l),
(74,-205,l)
);
},
{
ref = _perut_b;
}
);
width = 606;
}
);
metricLeft = n;
metricRight = o;
unicode = 112;
},
{
glyphname = q;
layers = (
{
background = {
shapes = (
{
pos = (585,0);
ref = p;
scale = (-1,1);
}
);
};
layerId = m009;
shapes = (
{
closed = 1;
nodes = (
(535,-205,l),
(535,545,l),
(471,545,l),
(450,469,l),
(450,437,l),
(461,413,l),
(461,102,l),
(450,95,l),
(450,-205,l)
);
},
{
pos = (5,0);
ref = _perut_d;
}
);
width = 609;
}
);
metricLeft = o;
metricRight = "=|n";
unicode = 113;
},
{
glyphname = r;
layers = (
{
anchors = (
{
name = connect;
pos = (159,0);
}
);
background = {
shapes = (
{
ref = n;
}
);
};
layerId = m009;
shapes = (
{
closed = 1;
nodes = (
(159,0,l),
(159,461,l),
(139,545,l),
(74,545,l),
(74,0,l)
);
},
{
closed = 1;
nodes = (
(159,305,l),
(168,421,o),
(215,467,o),
(333,467,c),
(333,555,l),
(261,555,o),
(192,524,o),
(162,461,c),
(151,461,l),
(151,305,l)
);
}
);
width = 340;
}
);
metricLeft = n;
unicode = 114;
},
{
glyphname = s;
layers = (
{
background = {
shapes = (
{
pos = (-81,0);
ref = n;
}
);
};
layerId = m009;
shapes = (
{
closed = 1;
nodes = (
(342,-10,o),
(402,78,o),
(402,155,cs),
(402,230,o),
(346,278,o),
(250,316,cs),
(162,351,o),
(128,379,o),
(129,412,cs),
(130,447,o),
(170,479,o),
(236,479,cs),
(273,479,o),
(328,469,o),
(389,416,c),
(346,403,l),
(404,538,l),
(402,491,l),
(373,522,o),
(304,555,o),
(229,555,cs),
(121,555,o),
(46,487,o),
(46,404,cs),
(46,338,o),
(93,291,o),
(219,240,cs),
(289,212,o),
(324,192,o),
(324,147,cs),
(324,99,o),
(282,65,o),
(206,65,cs),
(142,65,o),
(79,89,o),
(42,119,c),
(77,140,l),
(5,13,l),
(10,59,l),
(46,18,o),
(133,-10,o),
(208,-10,cs)
);
}
);
width = 423;
}
);
unicode = 115;
},
{
color = 0;
glyphname = t;
layers = (
{
background = {
shapes = (
{
closed = 1;
nodes = (
(264,-10,o),
(280,-6,o),
(303,8,c),
(300,-7,l),
(276,68,l),
(287,64,l),
(241,44,o),
(218,73,o),
(218,108,cs),
(218,750,l),
(133,750,l),
(133,112,ls),
(133,37,o),
(171,-10,o),
(243,-10,cs)
);
}
);
};
layerId = m009;
shapes = (
{
closed = 1;
nodes = (
(266,-10,o),
(287,-4,o),
(303,9,c),
(299,-7,l),
(274,76,l),
(287,68,l),
(213,46,o),
(167,72,o),
(167,137,cs),
(167,690,l),
(82,690,l),
(82,139,ls),
(82,44,o),
(139,-10,o),
(234,-10,cs)
);
},
{
closed = 1;
nodes = (
(278,475,l),
(278,545,l),
(28,545,l),
(28,475,l)
);
}
);
width = 309;
}
);
unicode = 116;
},
{
glyphname = v;
layers = (
{
anchors = (
{
name = ytail;
pos = (242,0);
}
);
background = {
shapes = (
{
closed = 1;
nodes = (
(430,545,l),
(244,106,l),
(57,545,l),
(-25,545,l),
(209,0,l),
(279,0,l),
(512,545,l)
);
},
{
pos = (-6,0);
ref = n;
}
);
};
layerId = m009;
shapes = (
{
closed = 1;
nodes = (
(282,0,l),
(470,545,l),
(383,545,l),
(249,108,l),
(245,108,l),
(103,545,l),
(15,545,l),
(210,0,l)
);
}
);
width = 485;
}
);
metricRight = "=|";
unicode = 118;
},
{
glyphname = w;
layers = (
{
anchors = (
{
name = ytail;
pos = (242,0);
}
);
background = {
shapes = (
{
ref = v;
}
);
};
layerId = m009;
shapes = (
{
closed = 1;
nodes = (
(264,0,l),
(387,410,l),
(391,410,l),
(515,0,l),
(590,0,l),
(748,545,l),
(671,545,l),
(557,108,l),
(553,108,l),
(421,545,l),
(363,545,l),
(229,108,l),
(225,108,l),
(103,545,l),
(25,545,l),
(190,0,l)
);
}
);
width = 773;
}
);
unicode = 119;
},
{
glyphname = x;
layers = (
{
background = {
shapes = (
{
pos = (-60,0);
ref = n;
}
);
};
layerId = m009;
shapes = (
{
closed = 1;
nodes = (
(449,0,l),
(106,545,l),
(16,545,l),
(359,0,l)
);
},
{
closed = 1;
nodes = (
(79,0,l),
(243,235,l),
(205,305,l),
(-5,0,l)
);
},
{
closed = 1;
nodes = (
(459,545,l),
(379,545,l),
(223,305,l),
(261,235,l)
);
}
);
width = 466;
}
);
unicode = 120;
},
{
glyphname = y;
layers = (
{
background = {
shapes = (
{
closed = 1;
nodes = (
(6,-156,l),
(25,-169,o),
(46,-178,o),
(73,-178,cs),
(138,-178,o),
(165,-124,o),
(165,-55,c),
(173,-45,l),
(173,168,ls),
(173,262,o),
(215,316,o),
(317,316,cs),
(380,316,o),
(434,296,o),
(506,252,c),
(466,258,l),
(513,373,l),
(524,318,l),
(464,361,o),
(377,387,o),
(302,387,cs),
(161,387,o),
(97,305,o),
(97,170,cs),
(97,-41,ls),
(97,-114,o),
(71,-138,o),
(10,-103,c),
(60,-45,l),
(13,-201,l)
);
},
{
closed = 1;
nodes = (
(443,-178,o),
(521,-112,o),
(521,-13,cs),
(521,92,o),
(433,152,o),
(310,152,cs),
(257,152,o),
(211,141,o),
(177,129,c),
(157,129,l),
(157,65,l),
(192,84,o),
(249,94,o),
(295,94,cs),
(372,94,o),
(435,66,o),
(435,-12,cs),
(435,-73,o),
(396,-116,o),
(328,-116,cs),
(230,-116,o),
(173,-25,o),
(173,54,c),
(159,54,l),
(159,-76,l),
(168,-76,l),
(196,-137,o),
(263,-178,o),
(342,-178,cs)
);
}
);
};
layerId = m009;
shapes = (
{
ref = v;
},
{
pos = (-8,0);
ref = _ytail;
}
);
width = 485;
},
{
anchors = (
{
name = bottom;
pos = (266,0);
},
{
name = top;
pos = (266,545);
}
);
associatedMasterId = m009;
background = {
shapes = (
{
closed = 1;
nodes = (
(104,-186,o),
(87,-184,o),
(68,-178,c),
(49,-173,o),
(33,-168,o),
(20,-161,c),
(41,-60,l),
(42,-60,o),
(44,-60,o),
(45,-61,c),
(46,-61,o),
(48,-61,o),
(49,-61,c),
(63,-65,o),
(77,-66,o),
(91,-66,c),
(111,-66,o),
(128,-63,o),
(140,-57,c),
(153,-50,o),
(163,-40,o),
(171,-25,c),
(180,-10,o),
(188,10,o),
(196,37,c),
(206,73,l),
(324,73,l),
(315,1,l),
(300,-33,l),
(297,-38,o),
(294,-43,o),
(292,-47,c),
(290,-52,o),
(288,-57,o),
(286,-61,c),
(272,-94,o),
(257,-118,o),
(243,-136,c),
(228,-153,o),
(211,-166,o),
(192,-174,c),
(172,-182,o),
(148,-186,o),
(120,-186,c)
);
},
{
closed = 1;
nodes = (
(195,1,l),
(-34,545,l),
(107,545,l),
(269,158,l),
(249,158,l),
(398,545,l),
(541,545,l),
(315,1,l)
);
}
);
};
layerId = "465E898B-A340-4BA7-806E-E5599B776A13";
name = "28 Oct 22 12.01";
shapes = (
{
closed = 1;
nodes = (
(221,-186,o),
(266,-134,o),
(320,0,cs),
(541,545,l),
(388,545,l),
(253,144,l),
(270,144,l),
(120,545,l),
(-33,545,l),
(195,0,l),
(233,0,l),
(195,37,l),
(201,-49,o),
(144,-67,o),
(106,-67,cs),
(58,-67,o),
(17,-50,o),
(-7,-39,c),
(52,-20,l),
(13,-197,l),
(-15,-146,l),
(23,-166,o),
(79,-186,o),
(125,-186,cs)
);
}
);
width = 508;
}
);
metricLeft = v;
metricRight = v;
unicode = 121;
},
{
glyphname = z;
layers = (
{
background = {
shapes = (
{
ref = x;
}
);
};
layerId = m009;
shapes = (
{
closed = 1;
nodes = (
(432,0,l),
(432,70,l),
(73,70,l),
(103,40,l),
(425,475,l),
(425,545,l),
(38,545,l),
(38,475,l),
(382,475,l),
(352,505,l),
(30,70,l),
(30,0,l)
);
}
);
width = 462;
}
);
unicode = 122;
},
{
glyphname = "akara-bali";
lastChange = "2022-12-27 17:54:09 +0000";
layers = (
{
layerId = m009;
shapes = (
{
closed = 1;
nodes = (
(378,-10,o),
(446,44,o),
(446,132,cs),
(446,190,o),
(416,243,o),
(336,250,c),
(336,253,l),
(390,272,o),
(411,307,o),
(411,357,cs),
(411,420,o),
(364,448,o),
(320,448,cs),
(276,448,o),
(233,431,o),
(193,382,c),
(213,348,l),
(249,381,o),
(268,394,o),
(304,394,cs),
(330,394,o),
(345,380,o),
(345,351,cs),
(345,314,o),
(307,261,o),
(233,261,c),
(233,227,l),
(338,227,o),
(377,195,o),
(377,138,cs),
(377,89,o),
(332,60,o),
(263,60,cs),
(161,60,o),
(80,126,o),
(80,270,cs),
(80,404,o),
(167,507,o),
(319,507,cs),
(399,507,o),
(465,488,o),
(551,404,c),
(577,437,l),
(477,541,o),
(401,557,o),
(311,557,cs),
(137,557,o),
(13,435,o),
(13,275,cs),
(13,93,o),
(138,-10,o),
(268,-10,cs)
);
},
{
closed = 1;
nodes = (
(825,-10,o),
(889,73,o),
(889,216,cs),
(889,522,l),
(869,498,l),
(909,498,ls),
(949,498,o),
(971,478,o),
(971,436,cs),
(971,0,l),
(1024,0,l),
(1024,420,ls),
(1024,509,o),
(993,545,o),
(903,545,cs),
(836,545,l),
(836,222,ls),
(836,118,o),
(793,69,o),
(693,69,cs),
(619,69,o),
(573,102,o),
(535,169,c),
(502,138,l),
(552,37,o),
(619,-10,o),
(705,-10,cs)
);
},
{
closed = 1;
nodes = (
(1099,195,l),
(848,332,ls),
(814,351,o),
(787,358,o),
(765,358,cs),
(719,358,o),
(691,323,o),
(691,288,cs),
(691,243,o),
(731,196,o),
(761,176,c),
(777,199,l),
(759,210,o),
(744,232,o),
(744,255,cs),
(744,280,o),
(766,303,o),
(792,303,cs),
(806,303,o),
(824,297,o),
(848,285,cs),
(1086,159,l)
);
}
);
width = 1120;
}
);
unicode = 6917;
},
{
glyphname = "akaraTedung-bali";
lastChange = "2022-12-27 17:58:59 +0000";
layers = (
{
layerId = m009;
shapes = (
{
closed = 1;
nodes = (
(825,-10,o),
(889,73,o),
(889,216,cs),
(889,446,o),
(1011,494,o),
(1108,494,cs),
(1214,494,o),
(1304,421,o),
(1304,274,cs),
(1304,105,o),
(1207,41,o),
(1149,41,cs),
(1109,41,o),
(1075,53,o),
(1056,74,c),
(1038,32,l),
(1065,5,o),
(1101,-10,o),
(1149,-10,cs),
(1228,-10,o),
(1363,70,o),
(1363,277,cs),
(1363,464,o),
(1248,555,o),
(1110,555,cs),
(987,555,o),
(836,478,o),
(836,222,cs),
(836,110,o),
(793,69,o),
(693,69,cs),
(619,69,o),
(573,102,o),
(535,169,c),
(502,138,l),
(552,37,o),
(619,-10,o),
(705,-10,cs)
);
},
{
closed = 1;
nodes = (
(378,-10,o),
(446,44,o),
(446,132,cs),
(446,190,o),
(416,243,o),
(336,250,c),
(336,253,l),
(390,272,o),
(411,307,o),
(411,357,cs),
(411,420,o),
(364,448,o),
(320,448,cs),
(276,448,o),
(233,431,o),
(193,382,c),
(213,348,l),
(249,381,o),
(268,394,o),
(304,394,cs),
(330,394,o),
(345,380,o),
(345,351,cs),
(345,314,o),
(307,261,o),
(233,261,c),
(233,227,l),
(338,227,o),
(377,195,o),
(377,138,cs),
(377,89,o),
(332,60,o),
(263,60,cs),
(161,60,o),
(80,126,o),
(80,270,cs),
(80,404,o),
(167,507,o),
(319,507,cs),
(399,507,o),
(465,488,o),
(551,404,c),
(577,437,l),
(477,541,o),
(401,557,o),
(311,557,cs),
(137,557,o),
(13,435,o),
(13,275,cs),
(13,93,o),
(138,-10,o),
(268,-10,cs)
);
},
{
closed = 1;
nodes = (
(1025,115,l),
(802,294,ls),
(771,319,o),
(746,330,o),
(724,334,cs),
(679,342,o),
(645,312,o),
(639,278,cs),
(632,234,o),
(663,180,o),
(689,155,c),
(709,175,l),
(693,189,o),
(682,213,o),
(686,236,cs),
(690,261,o),
(716,280,o),
(741,275,cs),
(755,273,o),
(773,265,o),
(794,248,cs),
(1006,82,l)
);
}
);
width = 1380;
}
);
unicode = 6918;
},
{
glyphname = "ukara-bali";
lastChange = "2022-12-27 15:49:05 +0000";
layers = (
{
background = {
shapes = (
{
closed = 1;
nodes = (
(295,-386,l),
(295,-310,l),
(224,-310,ls),
(125,-310,o),
(89,-258,o),
(89,-197,cs),
(89,7,o),
(479,150,o),
(479,382,cs),
(479,478,o),
(410,555,o),
(321,555,cs),
(214,555,o),
(170,463,o),
(171,377,c),
(212,377,l),
(211,438,o),
(255,487,o),
(315,487,cs),
(364,487,o),
(409,440,o),
(409,375,cs),
(409,184,o),
(11,33,o),
(11,-205,cs),
(11,-315,o),
(100,-386,o),
(225,-386,cs)
);
},
{
closed = 1;
nodes = (
(295,-386,l),
(295,-205,ls),
(295,-116,o),
(342,-68,o),
(429,-68,cs),
(514,-68,o),
(559,-115,o),
(559,-205,cs),
(559,-386,l),
(615,-386,l),
(615,-206,ls),
(615,-65,o),
(558,0,o),
(435,0,cs),
(307,0,o),
(239,-71,o),
(239,-206,cs),
(239,-386,l)
);
}
);
};
layerId = m009;
shapes = (
{
closed = 1;
nodes = (
(295,-386,l),
(295,-310,l),
(224,-310,ls),
(125,-310,o),
(72,-258,o),
(72,-189,cs),
(72,2,o),
(479,110,o),
(479,380,cs),
(479,492,o),
(410,555,o),
(324,555,cs),
(236,555,o),
(169,481,o),
(169,377,c),
(224,377,l),
(226,447,o),
(260,487,o),
(317,487,cs),
(383,487,o),
(422,443,o),
(422,383,cs),
(422,189,o),
(11,73,o),
(11,-191,cs),
(11,-315,o),
(100,-386,o),
(225,-386,cs)
);
},
{
closed = 1;
nodes = (
(300,-386,l),
(300,-205,ls),
(300,-116,o),
(348,-68,o),
(435,-68,cs),
(520,-68,o),
(566,-115,o),
(566,-205,cs),
(566,-386,l),
(621,-386,l),
(621,-206,ls),
(621,-65,o),
(564,0,o),
(441,0,cs),
(313,0,o),
(245,-71,o),
(245,-206,cs),
(245,-386,l)
);
}
);
width = 600;
}
);
unicode = 6921;
},
{
glyphname = "raRepa-bali";
lastChange = "2022-12-27 15:49:05 +0000";
layers = (
{
layerId = m009;
shapes = (
{
closed = 1;
nodes = (
(400,-11,o),
(446,52,o),
(446,156,cs),
(446,522,l),
(426,498,l),
(466,498,ls),
(506,498,o),
(528,478,o),
(528,436,cs),
(528,0,l),
(581,0,l),
(581,420,ls),
(581,509,o),
(550,545,o),
(460,545,cs),
(393,545,l),
(393,154,ls),
(393,82,o),
(347,48,o),
(278,48,cs),
(196,48,o),
(152,96,o),
(152,174,cs),
(152,412,ls),
(152,500,o),
(106,555,o),
(41,555,cs),
(-35,555,o),
(-71,481,o),
(-66,398,c),
(-11,398,l),
(-11,459,o),
(15,483,o),
(43,483,cs),
(70,483,o),
(101,461,o),
(101,401,cs),
(101,174,ls),
(101,64,o),
(142,-11,o),
(279,-11,cs)
);
},
{
ref = _repa_;
}
);
width = 600;
}
);
unicode = 6923;
},
{
glyphname = "laLenga-bali";
lastChange = "2022-12-27 17:20:21 +0000";
layers = (
{
layerId = m009;
shapes = (
{
closed = 1;
nodes = (
(867,-199,o),
(893,-4,o),
(893,259,cs),
(893,485,o),
(840,555,o),
(745,555,cs),
(677,555,o),
(620,519,o),
(604,423,c),
(603,423,l),
(590,519,o),
(545,555,o),
(479,555,cs),
(391,555,o),
(329,484,o),
(329,349,cs),
(329,69,l),
(278,71,o),
(248,105,o),
(248,197,cs),
(248,412,ls),
(248,500,o),
(202,555,o),
(137,555,cs),
(61,555,o),
(25,481,o),
(30,398,c),
(85,398,l),
(85,459,o),
(111,483,o),
(139,483,cs),
(166,483,o),
(197,461,o),
(197,401,cs),
(197,195,ls),
(197,44,o),
(238,0,o),
(329,0,cs),
(384,0,l),
(384,350,ls),
(384,439,o),
(432,487,o),
(484,487,cs),
(537,487,o),
(568,437,o),
(581,333,c),
(627,333,l),
(639,429,o),
(690,487,o),
(742,487,cs),
(789,487,o),
(839,441,o),
(839,260,cs),
(839,14,o),
(820,-133,o),
(750,-426,c),
(799,-449,l)
);
},
{
closed = 1;
nodes = (
(779,-402,l),
(780,-397,l),
(779,-363,l),
(707,-305,o),
(649,-288,o),
(500,-288,cs),
(372,-288,o),
(297,-260,o),
(297,-202,cs),
(297,-138,o),
(395,-112,o),
(487,-112,cs),
(672,-112,o),
(744,-189,o),
(891,-189,cs),
(962,-189,o),
(1016,-170,o),
(1061,-131,c),
(1049,-87,l),
(1005,-112,o),
(963,-122,o),
(897,-122,cs),
(772,-122,o),
(681,-29,o),
(496,-29,cs),
(343,-29,o),
(237,-87,o),
(237,-197,cs),
(237,-317,o),
(374,-351,o),
(504,-351,cs),
(646,-351,o),
(695,-363,o),
(750,-426,c)
);
}
);
width = 905;
}
);
unicode = 6925;
},
{
glyphname = "laLengaTedung-bali";
lastChange = "2022-12-27 17:29:36 +0000";
layers = (
{
layerId = m009;
shapes = (
{
closed = 1;
nodes = (
(1213,-481,o),
(1317,-431,o),
(1317,-340,cs),
(1317,-282,o),
(1279,-229,o),
(1189,-221,c),
(1189,-218,l),
(1238,-199,o),
(1264,-164,o),
(1264,-114,cs),
(1264,-51,o),
(1222,-23,o),
(1178,-23,cs),
(1143,-23,o),
(1126,-30,o),
(1046,-89,c),
(1020,-127,l),
(1061,-131,l),
(1104,-98,o),
(1135,-77,o),
(1164,-77,cs),
(1187,-77,o),
(1198,-89,o),
(1198,-114,cs),
(1198,-158,o),
(1160,-196,o),
(1086,-223,c),
(1086,-244,l),
(1192,-258,o),
(1241,-277,o),
(1241,-337,cs),
(1241,-385,o),
(1197,-411,o),
(1113,-411,cs),
(1040,-411,o),
(961,-377,o),
(912,-342,c),
(905,-400,l),
(948,-441,o),
(1035,-481,o),
(1127,-481,cs)
);
},
{
ref = "laLenga-bali";
}
);
width = 1325;
}
);
unicode = 6926;
},
{
glyphname = "ekara-bali";
lastChange = "2022-12-27 15:49:05 +0000";
layers = (
{
layerId = m009;
shapes = (
{
closed = 1;
nodes = (
(309,-11,l),
(309,83,ls),
(309,194,o),
(367,247,o),
(475,247,cs),
(578,247,o),
(625,195,o),
(625,83,cs),
(625,-11,l),
(680,-11,l),
(680,82,ls),
(680,250,o),
(623,315,o),
(477,315,cs),
(322,315,o),
(254,244,o),
(254,82,cs),
(254,4,l),
(269,44,l),
(212,29,o),
(98,104,o),
(98,255,cs),
(98,400,o),
(200,494,o),
(325,494,c),
(325,555,l),
(176,555,o),
(38,455,o),
(38,266,cs),
(38,80,o),
(173,-11,o),
(262,-11,cs)
);
}
);
width = 710;
}
);
unicode = 6927;
},
{
glyphname = "aikara-bali";
lastChange = "2022-12-27 17:40:19 +0000";
layers = (
{
layerId = m009;
shapes = (
{
closed = 1;
nodes = (
(666,-383,o),
(666,-278,o),
(720,-278,cs),
(775,-278,o),
(788,-383,o),
(894,-383,cs),
(959,-383,o),
(1012,-344,o),
(1012,-222,cs),
(1012,615,ls),
(1012,740,o),
(976,790,o),
(904,790,cs),
(829,790,o),
(791,727,o),
(794,663,cs),
(798,573,o),
(890,516,o),
(974,516,cs),
(1057,516,o),
(1118,562,o),
(1153,633,c),
(1120,664,l),
(1090,609,o),
(1040,581,o),
(982,581,cs),
(928,581,o),
(852,616,o),
(852,676,cs),
(852,707,o),
(873,727,o),
(904,727,cs),
(935,727,o),
(959,706,o),
(959,635,cs),
(959,-224,ls),
(959,-300,o),
(930,-319,o),
(882,-319,cs),
(809,-320,o),
(785,-215,o),
(724,-215,cs),
(658,-215,o),
(645,-322,o),
(587,-319,cs),
(538,-317,o),
(506,-271,o),
(506,-196,cs),
(506,22,o),
(878,119,o),
(878,379,cs),
(878,484,o),
(826,555,o),
(731,555,cs),
(663,555,o),
(620,519,o),
(604,423,c),
(603,423,l),
(590,519,o),
(545,555,o),
(479,555,cs),
(391,555,o),
(329,484,o),
(329,349,cs),
(329,69,l),
(278,71,o),
(248,105,o),
(248,197,cs),
(248,412,ls),
(248,500,o),
(202,555,o),
(137,555,cs),
(61,555,o),
(25,481,o),
(30,398,c),
(85,398,l),
(85,459,o),
(111,483,o),
(139,483,cs),
(166,483,o),
(197,461,o),
(197,401,cs),
(197,195,ls),
(197,44,o),
(238,0,o),
(329,0,cs),
(384,0,l),
(384,350,ls),
(384,439,o),
(432,487,o),
(484,487,cs),
(537,487,o),
(568,437,o),
(581,333,c),
(627,333,l),
(639,429,o),
(676,487,o),
(737,487,cs),
(785,487,o),
(823,450,o),
(823,380,cs),
(823,176,o),
(443,65,o),
(443,-199,cs),
(443,-301,o),
(490,-383,o),
(575,-383,cs)
);
}
);
width = 1175;
}
);
unicode = 6928;
},
{
glyphname = "okara-bali";
lastChange = "2022-12-27 17:32:22 +0000";
layers = (
{
layerId = m009;
shapes = (
{
closed = 1;
nodes = (
(727,-386,l),
(727,-310,l),
(656,-310,ls),
(557,-310,o),
(506,-258,o),
(506,-179,cs),
(506,22,o),
(878,119,o),
(878,379,cs),
(878,484,o),
(826,555,o),
(731,555,cs),
(663,555,o),
(620,519,o),
(604,423,c),
(603,423,l),
(590,519,o),
(545,555,o),
(479,555,cs),
(391,555,o),
(329,484,o),
(329,349,cs),
(329,69,l),
(278,71,o),
(248,105,o),
(248,197,cs),
(248,412,ls),
(248,500,o),
(202,555,o),
(137,555,cs),
(61,555,o),
(25,481,o),
(30,398,c),
(85,398,l),
(85,459,o),
(111,483,o),
(139,483,cs),
(166,483,o),
(197,461,o),
(197,401,cs),
(197,195,ls),
(197,44,o),
(238,0,o),
(329,0,cs),
(384,0,l),
(384,350,ls),
(384,439,o),
(432,487,o),
(484,487,cs),
(537,487,o),
(568,437,o),
(581,333,c),
(627,333,l),
(639,429,o),
(676,487,o),
(737,487,cs),
(785,487,o),
(823,450,o),
(823,380,cs),
(823,176,o),
(443,73,o),
(443,-191,cs),
(443,-315,o),
(532,-386,o),
(657,-386,cs)
);
},
{
closed = 1;
nodes = (
(732,-386,l),
(732,-205,ls),
(732,-116,o),
(780,-68,o),
(867,-68,cs),
(952,-68,o),
(998,-115,o),
(998,-205,cs),
(998,-386,l),
(1053,-386,l),
(1053,-206,ls),
(1053,-65,o),
(996,0,o),
(873,0,cs),
(745,0,o),
(677,-71,o),
(677,-206,cs),
(677,-386,l)
);
}
);
width = 905;
}
);
unicode = 6929;
},
{
glyphname = "ha-bali";
lastChange = "2022-12-27 15:49:05 +0000";
layers = (
{
layerId = m009;
shapes = (
{
closed = 1;
nodes = (
(460,-11,o),
(505,52,o),
(506,156,cs),
(507,350,ls),
(507,439,o),
(555,487,o),
(622,487,cs),
(687,487,o),
(733,440,o),
(733,350,cs),
(733,127,ls),
(733,40,o),
(788,-11,o),
(858,-11,cs),
(921,-11,o),
(969,39,o),
(969,127,cs),
(969,522,l),
(949,498,l),
(989,498,ls),
(1029,498,o),
(1051,478,o),
(1051,436,cs),
(1051,0,l),
(1104,0,l),
(1104,420,ls),
(1104,509,o),
(1073,545,o),
(983,545,cs),
(916,545,l),
(916,125,ls),
(916,68,o),
(891,44,o),
(856,44,cs),
(819,44,o),
(788,67,o),
(788,117,cs),
(788,349,ls),
(788,490,o),
(731,555,o),
(628,555,cs),
(520,555,o),
(451,484,o),
(452,349,cs),
(453,154,ls),
(453,82,o),
(407,48,o),
(350,48,cs),
(286,48,o),
(242,96,o),
(242,174,cs),
(242,412,ls),
(242,500,o),
(196,555,o),
(131,555,cs),
(55,555,o),
(19,481,o),
(24,398,c),
(79,398,l),
(79,459,o),
(105,483,o),
(133,483,cs),
(160,483,o),
(191,461,o),
(191,401,cs),
(191,174,ls),
(191,64,o),
(232,-11,o),
(351,-11,cs)
);
}
);
width = 1120;
}
);
unicode = 6963;
},
{
glyphname = "na-bali";
lastChange = "2022-12-27 15:49:05 +0000";
layers = (
{
layerId = m009;
shapes = (
{
closed = 1;
nodes = (
(209,-10,o),
(277,116,o),
(277,387,cs),
(277,500,o),
(231,555,o),
(154,555,cs),
(66,555,o),
(-1,481,o),
(-1,377,c),
(54,377,l),
(56,447,o),
(94,487,o),
(144,487,cs),
(192,487,o),
(226,450,o),
(226,376,cs),
(226,144,o),
(178,53,o),
(110,53,cs),
(73,53,o),
(54,79,o),
(54,110,cs),
(54,164,o),
(112,203,o),
(200,203,cs),
(242,203,l),
(248,284,l),
(206,284,ls),
(83,284,o),
(-5,213,o),
(-5,110,cs),
(-5,31,o),
(45,-10,o),
(105,-10,cs)
);
},
{
ref = _tail_na;
}
);
width = 600;
}
);
unicode = 6950;
},
{
glyphname = "naRambat-bali";
lastChange = "2022-12-27 15:55:50 +0000";
layers = (
{
layerId = m009;
shapes = (
{
closed = 1;
nodes = (
(226,555,o),
(179,492,o),
(179,402,cs),
(179,354,o),
(154,332,o),
(123,332,cs),
(93,332,o),
(67,356,o),
(67,417,c),
(12,417,l),
(7,334,o),
(43,260,o),
(114,260,cs),
(181,260,o),
(230,317,o),
(230,402,cs),
(230,462,o),
(263,488,o),
(306,490,cs),
(381,494,o),
(394,387,o),
(460,387,cs),
(521,387,o),
(545,492,o),
(618,491,cs),
(666,491,o),
(695,472,o),
(695,396,cs),
(695,108,ls),
(695,37,o),
(727,-10,o),
(786,-10,cs),
(836,-10,o),
(882,19,o),
(882,108,cs),
(882,493,l),
(902,493,ls),
(942,493,o),
(964,473,o),
(964,431,cs),
(964,-5,l),
(1017,-5,l),
(1017,415,ls),
(1017,504,o),
(986,540,o),
(896,540,cs),
(829,540,l),
(829,112,ls),
(829,63,o),
(812,41,o),
(788,41,cs),
(762,41,o),
(748,66,o),
(748,112,cs),
(748,394,ls),
(748,516,o),
(695,555,o),
(630,555,cs),
(524,555,o),
(511,450,o),
(456,450,cs),
(402,450,o),
(402,555,o),
(311,555,cs)
);
}
);
width = 1030;
}
);
unicode = 6945;
},
{
glyphname = "ca-bali";
lastChange = "2022-12-27 15:49:05 +0000";
layers = (
{
layerId = m009;
shapes = (
{
closed = 1;
nodes = (
(137,-10,o),
(210,116,o),
(210,387,cs),
(210,500,o),
(164,555,o),
(87,555,cs),
(-1,555,o),
(-68,481,o),
(-68,377,c),
(-13,377,l),
(-11,447,o),
(27,487,o),
(77,487,cs),
(125,487,o),
(159,450,o),
(159,376,cs),
(159,144,o),
(105,56,o),
(46,56,cs),
(15,56,o),
(-13,80,o),
(-13,126,cs),
(-13,191,o),
(39,229,o),
(93,229,cs),
(141,229,o),
(181,199,o),
(236,113,cs),
(283,39,o),
(333,-10,o),
(402,-10,cs),
(524,-10,o),
(538,149,o),
(538,217,cs),
(538,363,o),
(474,439,o),
(365,458,c),
(364,462,l),
(386,484,o),
(423,504,o),
(464,504,cs),
(526,504,o),
(575,470,o),
(575,387,cs),
(575,0,l),
(628,0,l),
(628,381,ls),
(628,491,o),
(572,555,o),
(472,555,cs),
(397,555,o),
(330,515,o),
(306,438,c),
(310,427,l),
(429,395,o),
(485,349,o),
(485,222,cs),
(485,147,o),
(473,66,o),
(405,66,cs),
(344,66,o),
(311,131,o),
(268,189,cs),
(231,240,o),
(179,294,o),
(102,294,cs),
(12,294,o),
(-72,219,o),
(-72,113,cs),
(-72,31,o),
(-20,-10,o),
(37,-10,cs)
);
}
);
width = 600;
}
);
unicode = 6936;
},
{
glyphname = "caLaca-bali";
lastChange = "2022-12-27 15:49:05 +0000";
layers = (
{
layerId = m009;
shapes = (
{
closed = 1;
nodes = (
(591,-11,o),
(639,39,o),
(639,127,cs),
(639,522,l),
(619,498,l),
(659,498,ls),
(699,498,o),
(721,478,o),
(721,436,cs),
(721,0,l),
(774,0,l),
(774,420,ls),
(774,509,o),
(743,545,o),
(653,545,cs),
(586,545,l),
(586,125,ls),
(586,68,o),
(561,44,o),
(496,44,cs),
(429,44,o),
(398,67,o),
(398,117,cs),
(398,349,ls),
(398,490,o),
(322,555,o),
(219,555,cs),
(111,555,o),
(31,484,o),
(32,349,cs),
(33,105,ls),
(33,47,o),
(60,-10,o),
(142,-10,cs),
(223,-10,o),
(244,46,o),
(244,89,cs),
(244,214,l),
(191,214,l),
(191,104,ls),
(191,73,o),
(180,41,o),
(140,41,cs),
(109,41,o),
(86,60,o),
(86,97,cs),
(87,350,ls),
(87,439,o),
(146,487,o),
(213,487,cs),
(278,487,o),
(343,440,o),
(343,350,cs),
(343,127,ls),
(343,40,o),
(398,-11,o),
(498,-11,cs)
);
}
);
width = 810;
}
);
unicode = 6937;
},
{
glyphname = "ra-bali";
lastChange = "2022-12-27 15:49:05 +0000";
layers = (
{
layerId = m009;
shapes = (
{
closed = 1;
nodes = (
(384,0,l),
(384,350,ls),
(384,439,o),
(432,487,o),
(519,487,cs),
(604,487,o),
(650,440,o),
(650,350,cs),
(650,0,l),
(705,0,l),
(705,349,ls),
(705,490,o),
(648,555,o),
(525,555,cs),
(397,555,o),
(329,484,o),
(329,349,cs),
(329,0,l)
);
},
{
closed = 1;
nodes = (
(384,0,l),
(384,69,l),
(333,69,ls),
(280,69,o),
(248,103,o),
(248,197,cs),
(248,412,ls),
(248,500,o),
(202,555,o),
(137,555,cs),
(61,555,o),
(25,481,o),
(30,398,c),
(85,398,l),
(85,459,o),
(111,483,o),
(139,483,cs),
(166,483,o),
(197,461,o),
(197,401,cs),
(197,195,ls),
(197,41,o),
(240,0,o),
(334,0,cs)
);
}
);
width = 725;
}
);
unicode = 6957;
},
{
glyphname = "ka-bali";
lastChange = "2022-12-27 15:49:05 +0000";
layers = (
{
layerId = m009;
shapes = (
{
closed = 1;
nodes = (
(594,-10,o),
(640,37,o),
(640,107,cs),
(640,238,o),
(480,285,o),
(370,285,cs),
(263,285,l),
(234,268,l),
(234,242,l),
(257,205,l),
(371,205,ls),
(460,205,o),
(580,182,o),
(580,109,cs),
(580,71,o),
(547,53,o),
(502,53,cs),
(420,53,o),
(357,113,o),
(357,245,cs),
(357,378,o),
(417,478,o),
(550,478,cs),
(664,478,o),
(722,406,o),
(722,264,cs),
(722,70,l),
(773,70,l),
(773,275,ls),
(773,461,o),
(698,555,o),
(562,555,cs),
(393,555,o),
(306,406,o),
(306,248,cs),
(306,87,o),
(393,-10,o),
(511,-10,cs)
);
},
{
closed = 1;
nodes = (
(209,-10,o),
(277,116,o),
(277,387,cs),
(277,500,o),
(231,555,o),
(154,555,cs),
(66,555,o),
(-1,481,o),
(-1,377,c),
(54,377,l),
(56,447,o),
(94,487,o),
(144,487,cs),
(192,487,o),
(226,450,o),
(226,376,cs),
(226,144,o),
(178,53,o),
(110,53,cs),
(73,53,o),
(54,79,o),
(54,110,cs),
(54,164,o),
(112,203,o),
(200,203,cs),
(242,203,l),
(248,284,l),
(206,284,ls),
(83,284,o),
(-5,213,o),
(-5,110,cs),
(-5,31,o),
(45,-10,o),
(105,-10,cs)
);
},
{
closed = 1;
nodes = (
(842,-10,o),
(880,21,o),
(880,81,cs),
(880,522,l),
(860,498,l),
(900,498,ls),
(940,498,o),
(962,478,o),
(962,436,cs),
(962,0,l),
(1015,0,l),
(1015,420,ls),
(1015,509,o),
(984,545,o),
(894,545,cs),
(827,545,l),
(827,81,ls),
(827,54,o),
(819,37,o),
(803,37,cs),
(782,37,o),
(773,53,o),
(773,81,c),
(752,107,l),
(742,107,l),
(722,81,l),
(722,21,o),
(757,-10,o),
(799,-10,cs)
);
}
);
width = 1055;
}
);
unicode = 6931;
},
{
glyphname = "kaMahaprana-bali";
lastChange = "2022-12-27 15:49:05 +0000";
layers = (
{
layerId = m009;
shapes = (
{
closed = 1;
nodes = (
(1125,-31,l),
(1094,13,o),
(1041,62,o),
(971,62,cs),
(924,62,o),
(896,50,o),
(858,50,cs),
(800,50,o),
(773,76,o),
(773,130,cs),
(773,275,ls),
(773,461,o),
(698,555,o),
(562,555,cs),
(393,555,o),
(306,406,o),
(306,248,cs),
(306,87,o),
(393,-10,o),
(511,-10,cs),
(594,-10,o),
(640,37,o),
(640,107,cs),
(640,238,o),
(480,285,o),
(370,285,cs),
(263,285,l),
(234,268,l),
(234,242,l),
(257,205,l),
(371,205,ls),
(460,205,o),
(580,182,o),
(580,109,cs),
(580,71,o),
(547,53,o),
(502,53,cs),
(420,53,o),
(357,113,o),
(357,245,cs),
(357,378,o),
(417,478,o),
(550,478,cs),
(664,478,o),
(722,406,o),
(722,264,cs),
(722,130,ls),
(722,43,o),
(768,-10,o),
(845,-10,cs),
(891,-10,o),
(933,5,o),
(970,5,cs),
(1029,5,o),
(1059,-13,o),
(1111,-56,c)
);
},
{
closed = 1;
nodes = (
(209,-10,o),
(277,116,o),
(277,387,cs),
(277,500,o),
(231,555,o),
(154,555,cs),
(66,555,o),
(-1,481,o),
(-1,377,c),
(54,377,l),
(56,447,o),
(94,487,o),
(144,487,cs),
(192,487,o),
(226,450,o),
(226,376,cs),
(226,144,o),
(178,53,o),
(110,53,cs),
(73,53,o),
(54,79,o),
(54,110,cs),
(54,164,o),
(112,203,o),
(200,203,cs),
(242,203,l),
(248,284,l),
(206,284,ls),
(83,284,o),
(-5,213,o),
(-5,110,cs),
(-5,31,o),
(45,-10,o),
(105,-10,cs)
);
}
);
width = 1055;
}
);
unicode = 6932;
},
{
glyphname = "kafSasak-bali";
lastChange = "2022-12-27 16:29:11 +0000";
layers = (
{
layerId = m009;
shapes = (
{
closed = 1;
nodes = (
(735,-10,o),
(781,37,o),
(781,107,cs),
(781,238,o),
(621,285,o),
(511,285,cs),
(246,285,l),
(217,258,l),
(217,232,l),
(240,205,l),
(512,205,ls),
(601,205,o),
(721,182,o),
(721,109,cs),
(721,71,o),
(688,53,o),
(643,53,cs),
(561,53,o),
(498,113,o),
(498,245,cs),
(498,378,o),
(558,478,o),
(691,478,cs),
(805,478,o),
(863,406,o),
(863,264,cs),
(863,70,l),
(914,70,l),
(914,275,ls),
(914,461,o),
(839,555,o),
(703,555,cs),
(534,555,o),
(447,406,o),
(447,248,cs),
(447,87,o),
(534,-10,o),
(652,-10,cs)
);
},
{
closed = 1;
nodes = (
(199,3,o),
(267,116,o),
(267,387,cs),
(267,500,o),
(221,555,o),
(144,555,cs),
(56,555,o),
(-11,481,o),
(-11,377,c),
(44,377,l),
(46,447,o),
(84,487,o),
(134,487,cs),
(182,487,o),
(216,450,o),
(216,376,cs),
(216,144,o),
(168,53,o),
(100,53,cs),
(63,53,o),
(44,79,o),
(44,110,cs),
(44,164,o),
(102,203,o),
(190,203,cs),
(232,203,l),
(238,284,l),
(196,284,ls),
(73,284,o),
(-15,213,o),
(-15,110,cs),
(-15,31,o),
(35,-10,o),
(95,-10,cs)
);
},
{
closed = 1;
nodes = (
(564,-266,o),
(621,-219,o),
(671,-118,c),
(638,-87,l),
(600,-154,o),
(554,-187,o),
(500,-187,cs),
(434,-187,o),
(377,-138,o),
(377,-34,cs),
(377,357,l),
(332,357,l),
(332,-56,ls),
(332,-199,o),
(396,-266,o),
(488,-266,cs)
);
},
{
closed = 1;
nodes = (
(983,-10,o),
(1021,21,o),
(1021,81,cs),
(1021,522,l),
(1001,498,l),
(1041,498,ls),
(1081,498,o),
(1103,478,o),
(1103,436,cs),
(1103,0,l),
(1156,0,l),
(1156,420,ls),
(1156,509,o),
(1125,545,o),
(1035,545,cs),
(968,545,l),
(968,81,ls),
(968,54,o),
(960,37,o),
(944,37,cs),
(923,37,o),
(914,53,o),
(914,81,c),
(893,107,l),
(883,107,l),
(863,81,l),
(863,21,o),
(898,-10,o),
(940,-10,cs)
);
}
);
width = 1141;
}
);
unicode = 6981;
},
{
glyphname = "khotSasak-bali";
lastChange = "2022-12-27 15:49:05 +0000";
layers = (
{
layerId = m009;
shapes = (
{
closed = 1;
nodes = (
(614,-10,o),
(660,37,o),
(660,107,cs),
(660,238,o),
(500,285,o),
(390,285,cs),
(283,285,l),
(254,268,l),
(254,242,l),
(277,205,l),
(391,205,ls),
(480,205,o),
(600,182,o),
(600,109,cs),
(600,71,o),
(567,53,o),
(522,53,cs),
(440,53,o),
(377,113,o),
(377,245,cs),
(377,378,o),
(437,478,o),
(570,478,cs),
(684,478,o),
(742,406,o),
(742,264,cs),
(742,130,ls),
(742,45,o),
(811,-10,o),
(921,-10,cs),
(1029,-10,o),
(1096,35,o),
(1096,130,cs),
(1096,350,ls),
(1096,439,o),
(1144,487,o),
(1231,487,cs),
(1316,487,o),
(1362,440,o),
(1362,350,cs),
(1362,0,l),
(1417,0,l),
(1417,349,ls),
(1417,490,o),
(1360,555,o),
(1237,555,cs),
(1109,555,o),
(1041,484,o),
(1041,349,cs),
(1041,140,ls),
(1041,66,o),
(1000,37,o),
(922,37,cs),
(839,37,o),
(793,73,o),
(793,140,cs),
(793,275,ls),
(793,461,o),
(718,555,o),
(582,555,cs),
(413,555,o),
(326,406,o),
(326,248,cs),
(326,87,o),
(413,-10,o),
(531,-10,cs)
);
},
{
closed = 1;
nodes = (
(229,-10,o),
(297,116,o),
(297,387,cs),
(297,500,o),
(251,555,o),
(174,555,cs),
(86,555,o),
(19,481,o),
(19,377,c),
(74,377,l),
(76,447,o),
(114,487,o),
(164,487,cs),
(212,487,o),
(246,450,o),
(246,376,cs),
(246,144,o),
(198,53,o),
(130,53,cs),
(93,53,o),
(74,79,o),
(74,110,cs),
(74,164,o),
(132,203,o),
(220,203,cs),
(262,203,l),
(268,284,l),
(226,284,ls),
(103,284,o),
(15,213,o),
(15,110,cs),
(15,31,o),
(65,-10,o),
(125,-10,cs)
);
},
{
closed = 1;
nodes = (
(1686,-5,l),
(1686,415,ls),
(1686,504,o),
(1655,540,o),
(1565,540,cs),
(1498,540,l),
(1498,149,ls),
(1498,73,o),
(1454,50,o),
(1396,50,c),
(1396,0,l),
(1485,0,o),
(1551,29,o),
(1551,151,cs),
(1551,517,l),
(1531,493,l),
(1571,493,ls),
(1611,493,o),
(1633,473,o),
(1633,431,cs),
(1633,-5,l)
);
}
);
width = 1715;
}
);
unicode = 6982;
},
{
glyphname = "da-bali";
lastChange = "2022-12-27 15:49:05 +0000";
layers = (
{
layerId = m009;
shapes = (
{
closed = 1;
nodes = (
(490,-10,o),
(516,140,o),
(633,140,cs),
(670,140,o),
(690,125,o),
(690,100,cs),
(690,71,o),
(664,53,o),
(634,53,cs),
(579,53,o),
(517,113,o),
(517,256,cs),
(517,411,o),
(572,478,o),
(696,478,cs),
(798,478,o),
(882,418,o),
(882,264,cs),
(882,0,l),
(933,0,l),
(933,275,ls),
(933,483,o),
(831,555,o),
(698,555,cs),
(548,555,o),
(452,439,o),
(452,259,cs),
(452,79,o),
(543,-10,o),
(636,-10,cs),
(704,-10,o),
(750,37,o),
(750,102,cs),
(750,165,o),
(706,206,o),
(643,206,cs),
(522,206,o),
(417,59,o),
(315,59,cs),
(260,59,o),
(228,103,o),
(228,197,cs),
(228,412,ls),
(228,500,o),
(182,555,o),
(117,555,cs),
(41,555,o),
(5,481,o),
(10,398,c),
(65,398,l),
(65,459,o),
(91,483,o),
(119,483,cs),
(146,483,o),
(177,461,o),
(177,401,cs),
(177,195,ls),
(177,41,o),
(229,-10,o),
(323,-10,cs)
);
}
);
width = 950;
}
);
unicode = 6948;
},
{
glyphname = "daMadu-bali";
lastChange = "2022-12-27 15:49:05 +0000";
layers = (
{
layerId = m009;
shapes = (
{
closed = 1;
nodes = (
(403,-10,o),
(403,95,o),
(461,95,cs),
(512,95,o),
(503,-10,o),
(611,-10,cs),
(681,-10,o),
(757,77,o),
(757,228,cs),
(757,339,o),
(712,437,o),
(603,456,c),
(602,460,l),
(624,482,o),
(662,504,o),
(708,504,cs),
(765,504,o),
(814,470,o),
(814,387,cs),
(814,0,l),
(867,0,l),
(867,381,ls),
(867,491,o),
(811,555,o),
(713,555,cs),
(636,555,o),
(569,515,o),
(545,438,c),
(549,427,l),
(668,395,o),
(708,319,o),
(708,225,cs),
(708,108,o),
(652,55,o),
(599,53,cs),
(535,51,o),
(522,158,o),
(461,158,cs),
(395,158,o),
(382,51,o),
(324,54,cs),
(275,56,o),
(231,102,o),
(231,174,cs),
(231,412,ls),
(231,500,o),
(185,555,o),
(120,555,cs),
(44,555,o),
(8,481,o),
(13,398,c),
(68,398,l),
(68,459,o),
(94,483,o),
(122,483,cs),
(149,483,o),
(180,461,o),
(180,401,cs),
(180,174,ls),
(180,72,o),
(227,-10,o),
(312,-10,cs)
);
}
);
width = 889;
}
);
unicode = 6949;
},
{
glyphname = "daMurdaAlpaprana-bali";
lastChange = "2022-12-27 15:49:05 +0000";
layers = (
{
layerId = m009;
shapes = (
{
closed = 1;
nodes = (
(403,-10,o),
(403,95,o),
(457,95,cs),
(512,95,o),
(525,-10,o),
(631,-10,cs),
(696,-10,o),
(749,29,o),
(749,151,cs),
(749,517,l),
(729,493,l),
(769,493,ls),
(809,493,o),
(831,473,o),
(831,431,cs),
(831,-5,l),
(884,-5,l),
(884,415,ls),
(884,504,o),
(853,540,o),
(763,540,cs),
(696,540,l),
(696,149,ls),
(696,73,o),
(667,54,o),
(619,54,cs),
(546,53,o),
(522,158,o),
(461,158,cs),
(395,158,o),
(382,51,o),
(324,54,cs),
(275,56,o),
(231,102,o),
(231,174,cs),
(231,412,ls),
(231,500,o),
(185,555,o),
(120,555,cs),
(44,555,o),
(8,481,o),
(13,398,c),
(68,398,l),
(68,459,o),
(94,483,o),
(122,483,cs),
(149,483,o),
(180,461,o),
(180,401,cs),
(180,174,ls),
(180,72,o),
(227,-10,o),
(312,-10,cs)
);
}
);
width = 889;
}
);
unicode = 6943;
},
{
glyphname = "daMurdaMahaprana-bali";
lastChange = "2022-12-27 15:52:07 +0000";
layers = (
{
layerId = m009;
shapes = (
{
closed = 1;
nodes = (
(403,-10,o),
(403,95,o),
(457,95,cs),
(512,95,o),
(525,-10,o),
(631,-10,cs),
(696,-10,o),
(749,29,o),
(749,151,cs),
(749,545,l),
(696,545,l),
(696,149,ls),
(696,73,o),
(667,54,o),
(619,54,cs),
(546,53,o),
(522,158,o),
(461,158,cs),
(395,158,o),
(382,51,o),
(324,54,cs),
(275,56,o),
(231,102,o),
(231,174,cs),
(231,412,ls),
(231,500,o),
(185,555,o),
(120,555,cs),
(44,555,o),
(8,481,o),
(13,398,c),
(68,398,l),
(68,459,o),
(94,483,o),
(122,483,cs),
(149,483,o),
(180,461,o),
(180,401,cs),
(180,174,ls),
(180,72,o),
(227,-10,o),
(312,-10,cs)
);
}
);
width = 780;
}
);
unicode = 6944;
},
{
glyphname = "ta-bali";
lastChange = "2022-12-27 16:38:34 +0000";
layers = (
{
layerId = m009;
shapes = (
{
closed = 1;
nodes = (
(507,-11,o),
(586,52,o),
(586,176,cs),
(586,354,o),
(388,281,o),
(388,397,cs),
(388,456,o),
(437,487,o),
(537,487,cs),
(632,487,o),
(722,440,o),
(722,320,cs),
(722,129,ls),
(722,40,o),
(777,-11,o),
(844,-11,cs),
(910,-11,o),
(958,39,o),
(958,127,cs),
(958,522,l),
(938,498,l),
(978,498,ls),
(1018,498,o),
(1040,478,o),
(1040,436,cs),
(1040,0,l),
(1093,0,l),
(1093,420,ls),
(1093,509,o),
(1062,545,o),
(972,545,cs),
(905,545,l),
(905,125,ls),
(905,68,o),
(878,44,o),
(843,44,cs),
(808,44,o),
(777,67,o),
(777,119,cs),
(777,319,ls),
(777,490,o),
(688,555,o),
(546,555,cs),
(403,555,o),
(334,498,o),
(334,410,cs),
(334,241,o),
(533,302,o),
(533,160,cs),
(533,82,o),
(474,48,o),
(366,48,cs),
(243,48,o),
(182,96,o),
(182,186,cs),
(182,412,ls),
(182,500,o),
(136,555,o),
(71,555,cs),
(-5,555,o),
(-41,481,o),
(-36,398,c),
(19,398,l),
(19,459,o),
(45,483,o),
(73,483,cs),
(100,483,o),
(131,461,o),
(131,401,cs),
(131,186,ls),
(131,64,o),
(199,-11,o),
(367,-11,cs)
);
}
);
width = 1120;
}
);
unicode = 6946;
},
{
glyphname = "taMurdaMahaprana-bali";
lastChange = "2022-12-27 16:10:53 +0000";
layers = (
{
layerId = m009;
shapes = (
{
closed = 1;
nodes = (
(878,0,l),
(878,349,ls),
(878,484,o),
(826,555,o),
(731,555,cs),
(663,555,o),
(620,519,o),
(604,423,c),
(603,423,l),
(590,519,o),
(545,555,o),
(479,555,cs),
(391,555,o),
(329,484,o),
(329,349,c),
(384,349,l),
(384,439,o),
(432,487,o),
(484,487,cs),
(537,487,o),
(568,437,o),
(581,333,c),
(627,333,l),
(639,429,o),
(676,487,o),
(728,487,cs),
(775,487,o),
(823,439,o),
(823,350,cs),
(823,0,l)
);
},
{
closed = 1;
nodes = (
(433,-11,o),
(477,52,o),
(510,127,c),
(473,151,l),
(441,84,o),
(416,48,o),
(354,48,cs),
(282,48,o),
(230,96,o),
(230,174,cs),
(230,412,ls),
(230,500,o),
(184,555,o),
(119,555,cs),
(43,555,o),
(7,481,o),
(12,398,c),
(67,398,l),
(67,459,o),
(93,483,o),
(121,483,cs),
(148,483,o),
(179,461,o),
(179,401,cs),
(179,174,ls),
(179,64,o),
(234,-11,o),
(338,-11,cs)
);
}
);
width = 905;
}
);
unicode = 6942;
},
{
glyphname = "taLatik-bali";
lastChange = "2022-12-27 16:13:57 +0000";
layers = (
{
layerId = m009;
shapes = (
{
closed = 1;
nodes = (
(565,-266,o),
(622,-219,o),
(672,-118,c),
(639,-87,l),
(601,-154,o),
(555,-187,o),
(501,-187,cs),
(435,-187,o),
(388,-138,o),
(388,-4,cs),
(388,115,o),
(407,201,o),
(440,201,cs),
(461,201,o),
(473,183,o),
(473,151,cs),
(473,77,o),
(416,48,o),
(354,48,cs),
(282,48,o),
(230,96,o),
(230,174,cs),
(230,412,ls),
(230,500,o),
(184,555,o),
(119,555,cs),
(43,555,o),
(7,481,o),
(12,398,c),
(67,398,l),
(67,459,o),
(93,483,o),
(121,483,cs),
(148,483,o),
(179,461,o),
(179,401,cs),
(179,174,ls),
(179,64,o),
(234,-11,o),
(338,-11,cs),
(463,-11,o),
(521,77,o),
(521,149,cs),
(521,204,o),
(492,248,o),
(437,248,cs),
(323,248,o),
(322,48,o),
(323,4,cs),
(329,-199,o),
(397,-266,o),
(488,-266,cs)
);
},
{
closed = 1;
nodes = (
(878,0,l),
(878,349,ls),
(878,484,o),
(826,555,o),
(731,555,cs),
(663,555,o),
(620,519,o),
(604,423,c),
(603,423,l),
(590,519,o),
(545,555,o),
(481,555,cs),
(391,555,o),
(329,484,o),
(329,349,c),
(384,349,l),
(384,439,o),
(432,487,o),
(484,487,cs),
(537,487,o),
(568,437,o),
(581,333,c),
(627,333,l),
(639,429,o),
(676,487,o),
(728,487,cs),
(775,487,o),
(823,439,o),
(823,350,cs),
(823,0,l)
);
}
);
width = 905;
}
);
unicode = 6941;
},
{
glyphname = "taTawa-bali";
lastChange = "2022-12-27 16:32:31 +0000";
layers = (
{
layerId = m009;
shapes = (
{
closed = 1;
nodes = (
(672,-141,l),
(528,121,ls),
(475,217,o),
(442,248,o),
(401,248,cs),
(356,248,o),
(319,188,o),
(319,114,c),
(346,114,l),
(346,147,o),
(368,181,o),
(401,181,cs),
(435,181,o),
(458,154,o),
(493,92,cs),
(634,-161,l)
);
},
{
ref = "wa-bali";
}
);
width = 709;
}
);
unicode = 6947;
},
{
glyphname = "tzirSasak-bali";
lastChange = "2022-12-27 16:39:00 +0000";
layers = (
{
layerId = m009;
shapes = (
{
ref = "ta-bali";
},
{
closed = 1;
nodes = (
(473,-266,o),
(530,-219,o),
(580,-118,c),
(547,-87,l),
(509,-154,o),
(463,-187,o),
(409,-187,cs),
(343,-187,o),
(286,-138,o),
(286,-34,cs),
(286,417,l),
(241,417,l),
(241,-56,ls),
(241,-199,o),
(305,-266,o),
(397,-266,cs)
);
}
);
width = 1120;
}
);
unicode = 6983;
},
{
glyphname = "sa-bali";
lastChange = "2022-12-27 15:49:05 +0000";
layers = (
{
layerId = m009;
shapes = (
{
closed = 1;
nodes = (
(204,-10,o),
(277,116,o),
(277,387,cs),
(277,500,o),
(231,555,o),
(154,555,cs),
(66,555,o),
(-1,481,o),
(-1,377,c),
(54,377,l),
(56,447,o),
(94,487,o),
(144,487,cs),
(192,487,o),
(226,450,o),
(226,376,cs),
(226,144,o),
(172,56,o),
(113,56,cs),
(82,56,o),
(54,80,o),
(54,126,cs),
(54,191,o),
(106,229,o),
(160,229,cs),
(208,229,o),
(248,199,o),
(303,113,cs),
(350,39,o),
(388,-10,o),
(458,-10,cs),
(526,-10,o),
(560,35,o),
(560,104,c),
(507,126,l),
(507,86,o),
(490,66,o),
(462,66,cs),
(411,66,o),
(378,131,o),
(335,189,cs),
(298,240,o),
(246,294,o),
(169,294,cs),
(79,294,o),
(-5,219,o),
(-5,113,cs),
(-5,31,o),
(47,-10,o),
(104,-10,cs)
);
},
{
ref = _tail_sa;
}
);
width = 600;
}
);
unicode = 6962;
},
{
glyphname = "saSapa-bali";
lastChange = "2022-12-27 16:32:47 +0000";
layers = (
{
layerId = m009;
shapes = (
{
ref = "pa-bali";
},
{
closed = 1;
nodes = (
(651,-111,l),
(507,151,ls),
(454,247,o),
(421,278,o),
(380,278,cs),
(335,278,o),
(298,218,o),
(298,144,c),
(325,144,l),
(325,177,o),
(347,211,o),
(380,211,cs),
(414,211,o),
(437,184,o),
(472,122,cs),
(613,-131,l)
);
}
);
width = 780;
}
);
unicode = 6961;
},
{
glyphname = "saSaga-bali";
lastChange = "2022-12-27 16:27:07 +0000";
layers = (
{
layerId = m009;
shapes = (
{
closed = 1;
nodes = (
(686,-52,l),
(627,145,ls),
(603,226,o),
(563,245,o),
(534,245,cs),
(457,245,o),
(444,146,o),
(454,96,c),
(481,100,l),
(474,133,o),
(488,178,o),
(531,178,cs),
(559,178,o),
(577,161,o),
(593,112,cs),
(651,-68,l)
);
},
{
pos = (40,0);
ref = "ga-bali";
}
);
width = 1046;
}
);
unicode = 6960;
},
{
glyphname = "zalSasak-bali";
lastChange = "2022-12-27 16:28:46 +0000";
layers = (
{
layerId = m009;
shapes = (
{
closed = 1;
nodes = (
(565,-266,o),
(622,-219,o),
(672,-118,c),
(639,-87,l),
(601,-154,o),
(555,-187,o),
(501,-187,cs),
(435,-187,o),
(378,-138,o),
(378,-34,cs),
(378,347,l),
(333,347,l),
(333,-56,ls),
(333,-199,o),
(397,-266,o),
(489,-266,cs)
);
},
{
ref = "sa-bali";
}
);
width = 750;
}
);
unicode = 6986;
},
{
glyphname = "asyuraSasak-bali";
lastChange = "2022-12-27 15:58:13 +0000";
layers = (
{
layerId = m009;
shapes = (
{
closed = 1;
nodes = (
(877,0,o),
(909,86,o),
(925,202,c),
(926,202,l),
(945,87,o),
(988,0,o),
(1076,0,cs),
(1163,0,o),
(1206,71,o),
(1206,186,cs),
(1206,522,l),
(1186,498,l),
(1226,498,ls),
(1266,498,o),
(1288,478,o),
(1288,436,cs),
(1288,0,l),
(1341,0,l),
(1341,420,ls),
(1341,509,o),
(1310,545,o),
(1220,545,cs),
(1153,545,l),
(1153,184,ls),
(1153,107,o),
(1118,68,o),
(1074,68,cs),
(982,68,o),
(949,237,o),
(949,512,c),
(903,512,l),
(903,237,o),
(871,68,o),
(778,68,cs),
(740,68,o),
(705,96,o),
(705,177,cs),
(705,420,ls),
(705,509,o),
(674,545,o),
(584,545,cs),
(517,545,l),
(517,96,l),
(531,64,l),
(544,64,l),
(570,96,l),
(570,522,l),
(550,498,l),
(590,498,ls),
(630,498,o),
(652,478,o),
(652,436,cs),
(652,186,ls),
(652,51,o),
(704,0,o),
(780,0,cs)
);
},
{
closed = 1;
nodes = (
(214,-10,o),
(287,116,o),
(287,387,cs),
(287,500,o),
(241,555,o),
(164,555,cs),
(76,555,o),
(9,481,o),
(9,377,c),
(64,377,l),
(66,447,o),
(104,487,o),
(154,487,cs),
(202,487,o),
(236,450,o),
(236,376,cs),
(236,144,o),
(182,56,o),
(123,56,cs),
(92,56,o),
(64,80,o),
(64,126,cs),
(64,191,o),
(116,229,o),
(170,229,cs),
(218,229,o),
(258,199,o),
(313,113,cs),
(360,39,o),
(398,-10,o),
(468,-10,cs),
(536,-10,o),
(570,35,o),
(570,104,c),
(517,126,l),
(517,86,o),
(500,66,o),
(472,66,cs),
(421,66,o),
(388,131,o),
(345,189,cs),
(308,240,o),
(256,294,o),
(179,294,cs),
(89,294,o),
(5,219,o),
(5,113,cs),
(5,31,o),
(57,-10,o),
(114,-10,cs)
);
}
);
width = 1515;
}
);
unicode = 6987;
},
{
glyphname = "wa-bali";
lastChange = "2022-12-27 16:32:20 +0000";
layers = (
{
layerId = m009;
shapes = (
{
closed = 1;
nodes = (
(573,-11,o),
(657,69,o),
(657,228,cs),
(657,339,o),
(612,437,o),
(503,456,c),
(502,460,l),
(524,482,o),
(562,504,o),
(608,504,cs),
(665,504,o),
(714,470,o),
(714,387,cs),
(714,0,l),
(767,0,l),
(767,381,ls),
(767,491,o),
(711,555,o),
(613,555,cs),
(536,555,o),
(469,515,o),
(445,438,c),
(449,427,l),
(568,395,o),
(608,319,o),
(608,225,cs),
(608,100,o),
(544,48,o),
(421,48,cs),
(293,48,o),
(241,116,o),
(241,194,cs),
(241,412,ls),
(241,500,o),
(195,555,o),
(130,555,cs),
(54,555,o),
(18,481,o),
(23,398,c),
(78,398,l),
(78,459,o),
(104,483,o),
(132,483,cs),
(159,483,o),
(190,461,o),
(190,401,cs),
(190,194,ls),
(190,84,o),
(245,-11,o),
(422,-11,cs)
);
}
);
width = 789;
}
);
unicode = 6959;
},
{
glyphname = "veSasak-bali";
lastChange = "2022-12-27 16:28:16 +0000";
layers = (
{
layerId = m009;
shapes = (
{
closed = 1;
nodes = (
(564,-266,o),
(621,-219,o),
(671,-118,c),
(638,-87,l),
(600,-154,o),
(554,-187,o),
(500,-187,cs),
(434,-187,o),
(377,-138,o),
(377,-34,cs),
(377,307,l),
(332,307,l),
(332,-56,ls),
(332,-199,o),
(396,-266,o),
(488,-266,cs)
);
},
{
ref = "wa-bali";
}
);
width = 679;
}
);
unicode = 6985;
},
{
glyphname = "la-bali";
lastChange = "2022-12-27 15:49:05 +0000";
layers = (
{
layerId = m009;
shapes = (
{
closed = 1;
nodes = (
(900,-11,o),
(966,34,o),
(966,156,cs),
(966,522,l),
(946,498,l),
(986,498,ls),
(1026,498,o),
(1048,478,o),
(1048,436,cs),
(1048,0,l),
(1101,0,l),
(1101,420,ls),
(1101,509,o),
(1070,545,o),
(980,545,cs),
(913,545,l),
(913,154,ls),
(913,78,o),
(869,44,o),
(811,44,cs),
(756,44,o),
(705,77,o),
(705,146,cs),
(705,349,ls),
(705,490,o),
(648,555,o),
(525,555,cs),
(397,555,o),
(329,484,o),
(329,349,cs),
(329,85,ls),
(329,59,o),
(321,47,o),
(302,47,cs),
(281,47,o),
(272,62,o),
(272,84,cs),
(272,412,ls),
(272,500,o),
(226,555,o),
(161,555,cs),
(85,555,o),
(49,481,o),
(54,398,c),
(109,398,l),
(109,459,o),
(135,483,o),
(163,483,cs),
(190,483,o),
(221,461,o),
(221,401,cs),
(221,77,ls),
(221,23,o),
(251,-10,o),
(302,-10,cs),
(354,-10,o),
(384,24,o),
(384,84,cs),
(384,350,ls),
(384,439,o),
(432,487,o),
(519,487,cs),
(604,487,o),
(650,440,o),
(650,350,cs),
(650,156,ls),
(650,30,o),
(723,-11,o),
(811,-11,cs)
);
}
);
width = 1130;
}
);
unicode = 6958;
},
{
glyphname = "ma-bali";
lastChange = "2022-12-27 15:49:05 +0000";
layers = (
{
layerId = m009;
shapes = (
{
closed = 1;
nodes = (
(523,-10,o),
(614,57,o),
(614,181,cs),
(614,517,l),
(594,493,l),
(634,493,ls),
(674,493,o),
(696,473,o),
(696,431,cs),
(696,-5,l),
(749,-5,l),
(749,415,ls),
(749,504,o),
(718,540,o),
(628,540,cs),
(561,540,l),
(561,209,ls),
(561,97,o),
(496,70,o),
(380,70,cs),
(244,70,o),
(193,106,o),
(193,155,cs),
(193,208,o),
(253,252,o),
(387,252,c),
(387,298,l),
(261,298,o),
(193,347,o),
(193,407,cs),
(193,446,o),
(222,486,o),
(319,486,cs),
(368,486,o),
(414,477,o),
(478,441,c),
(493,508,l),
(440,540,o),
(387,555,o),
(321,555,cs),
(187,555,o),
(125,497,o),
(125,403,cs),
(125,334,o),
(161,291,o),
(257,275,c),
(257,274,l),
(161,261,o),
(125,216,o),
(125,150,cs),
(125,62,o),
(196,-10,o),
(380,-10,cs)
);
},
{
closed = 1;
nodes = (
(75,299,l),
(75,376,ls),
(75,476,o),
(128,512,o),
(237,512,cs),
(316,512,l),
(316,555,l),
(228,555,ls),
(87,555,o),
(23,501,o),
(23,372,cs),
(23,299,l)
);
}
);
width = 780;
}
);
unicode = 6955;
},
{
glyphname = "ga-bali";
lastChange = "2022-12-27 16:26:26 +0000";
layers = (
{
layerId = m009;
shapes = (
{
closed = 1;
nodes = (
(334,0,l),
(334,320,ls),
(334,439,o),
(382,487,o),
(519,487,cs),
(654,487,o),
(700,440,o),
(700,320,cs),
(700,0,l),
(755,0,l),
(755,319,ls),
(755,490,o),
(698,555,o),
(525,555,cs),
(347,555,o),
(279,484,o),
(279,319,cs),
(279,0,l)
);
},
{
closed = 1;
nodes = (
(334,0,l),
(334,69,l),
(283,69,ls),
(230,69,o),
(198,103,o),
(198,197,cs),
(198,412,ls),
(198,500,o),
(152,555,o),
(87,555,cs),
(11,555,o),
(-25,481,o),
(-20,398,c),
(35,398,l),
(35,459,o),
(61,483,o),
(89,483,cs),
(116,483,o),
(147,461,o),
(147,401,cs),
(147,195,ls),
(147,41,o),
(190,0,o),
(284,0,cs)
);
},
{
closed = 1;
nodes = (
(1024,-5,l),
(1024,415,ls),
(1024,504,o),
(993,540,o),
(903,540,cs),
(836,540,l),
(836,149,ls),
(836,73,o),
(792,50,o),
(734,50,c),
(734,0,l),
(823,0,o),
(889,29,o),
(889,151,cs),
(889,517,l),
(869,493,l),
(909,493,ls),
(949,493,o),
(971,473,o),
(971,431,cs),
(971,-5,l)
);
}
);
width = 1006;
}
);
unicode = 6933;
},
{
glyphname = "gaGora-bali";
lastChange = "2022-12-27 16:18:48 +0000";
layers = (
{
layerId = m009;
shapes = (
{
closed = 1;
nodes = (
(683,-10,o),
(683,95,o),
(741,95,cs),
(792,95,o),
(783,-10,o),
(891,-10,cs),
(961,-10,o),
(1037,77,o),
(1037,228,cs),
(1037,339,o),
(992,437,o),
(883,456,c),
(882,460,l),
(904,482,o),
(942,504,o),
(988,504,cs),
(1045,504,o),
(1094,470,o),
(1094,387,cs),
(1094,0,l),
(1147,0,l),
(1147,381,ls),
(1147,491,o),
(1091,555,o),
(993,555,cs),
(916,555,o),
(849,515,o),
(825,438,c),
(829,427,l),
(948,395,o),
(988,319,o),
(988,225,cs),
(988,108,o),
(932,55,o),
(879,53,cs),
(815,51,o),
(802,158,o),
(741,158,cs),
(675,158,o),
(662,51,o),
(604,54,cs),
(555,56,o),
(511,102,o),
(511,174,c),
(511,540,l),
(444,540,ls),
(354,540,o),
(323,504,o),
(323,415,cs),
(323,0,l),
(376,0,l),
(376,431,ls),
(376,473,o),
(398,493,o),
(438,493,cs),
(478,493,l),
(458,517,l),
(458,174,l),
(458,72,o),
(507,-10,o),
(592,-10,cs)
);
},
{
closed = 1;
nodes = (
(362,0,l),
(362,69,l),
(311,69,ls),
(258,69,o),
(226,103,o),
(226,197,cs),
(226,412,ls),
(226,500,o),
(180,555,o),
(115,555,cs),
(39,555,o),
(3,481,o),
(8,398,c),
(63,398,l),
(63,459,o),
(89,483,o),
(117,483,cs),
(144,483,o),
(175,461,o),
(175,401,cs),
(175,195,ls),
(175,41,o),
(218,0,o),
(312,0,cs)
);
}
);
width = 1169;
}
);
unicode = 6934;
},
{
glyphname = "ba-bali";
lastChange = "2022-12-27 15:49:05 +0000";
layers = (
{
background = {
shapes = (
{
closed = 0;
nodes = (
(878,0,ls),
(956,0,o),
(1012,39,o),
(1012,151,cs),
(1012,493,l),
(1032,493,ls),
(1072,493,o),
(1094,473,o),
(1094,431,cs),
(1094,-5,l),
(1147,-5,l),
(1147,415,ls),
(1147,504,o),
(1116,540,o),
(1026,540,cs),
(959,540,l),
(959,149,ls),
(959,70,o),
(912,41,o),
(852,54,c)
);
}
);
};
layerId = m009;
shapes = (
{
closed = 1;
nodes = (
(384,0,l),
(384,350,ls),
(384,439,o),
(432,487,o),
(484,487,cs),
(537,487,o),
(568,437,o),
(581,333,c),
(627,333,l),
(639,429,o),
(676,487,o),
(728,487,cs),
(775,487,o),
(823,439,o),
(823,350,cs),
(823,0,l),
(878,0,l),
(878,349,ls),
(878,484,o),
(826,555,o),
(731,555,cs),
(663,555,o),
(620,519,o),
(604,423,c),
(603,423,l),
(590,519,o),
(545,555,o),
(479,555,cs),
(391,555,o),
(329,484,o),
(329,349,cs),
(329,69,l),
(278,71,o),
(248,105,o),
(248,197,cs),
(248,412,ls),
(248,500,o),
(202,555,o),
(137,555,cs),
(61,555,o),
(25,481,o),
(30,398,c),
(85,398,l),
(85,459,o),
(111,483,o),
(139,483,cs),
(166,483,o),
(197,461,o),
(197,401,cs),
(197,195,ls),
(197,44,o),
(238,0,o),
(329,0,cs)
);
},
{
closed = 1;
nodes = (
(1147,-5,l),
(1147,415,ls),
(1147,504,o),
(1116,540,o),
(1026,540,cs),
(959,540,l),
(959,149,ls),
(959,74,o),
(931,51,o),
(881,51,cs),
(852,51,l),
(852,0,l),
(878,0,l),
(956,0,o),
(1012,39,o),
(1012,151,cs),
(1012,493,l),
(1032,493,ls),
(1072,493,o),
(1094,473,o),
(1094,431,cs),
(1094,-5,l)
);
}
);
width = 1165;
}
);
unicode = 6953;
},
{
glyphname = "baKembang-bali";
lastChange = "2022-12-27 16:37:12 +0000";
layers = (
{
layerId = m009;
shapes = (
{
closed = 1;
nodes = (
(490,-10,o),
(516,140,o),
(633,140,cs),
(670,140,o),
(690,125,o),
(690,100,cs),
(690,71,o),
(664,53,o),
(634,53,cs),
(579,53,o),
(517,113,o),
(517,256,cs),
(517,411,o),
(572,478,o),
(696,478,cs),
(798,478,o),
(882,418,o),
(882,264,cs),
(882,0,l),
(933,0,l),
(933,275,ls),
(933,483,o),
(831,555,o),
(698,555,cs),
(548,555,o),
(452,439,o),
(452,259,cs),
(452,79,o),
(543,-10,o),
(636,-10,cs),
(704,-10,o),
(750,37,o),
(750,102,cs),
(750,165,o),
(706,206,o),
(643,206,cs),
(522,206,o),
(417,59,o),
(309,59,cs),
(250,59,o),
(197,103,o),
(217,187,c),
(177,195,l),
(137,61,o),
(229,-10,o),
(323,-10,cs)
);
},
{
closed = 1;
nodes = (
(337,266,l),
(330,382,ls),
(323,499,o),
(272,555,o),
(206,555,cs),
(131,555,o),
(85,481,o),
(90,398,c),
(145,398,l),
(145,459,o),
(171,483,o),
(204,483,cs),
(236,483,o),
(270,460,o),
(277,381,cs),
(287,262,l)
);
}
);
width = 950;
}
);
unicode = 6954;
},
{
glyphname = "nga-bali";
lastChange = "2022-12-27 15:49:05 +0000";
layers = (
{
layerId = m009;
shapes = (
{
closed = 1;
nodes = (
(384,0,l),
(384,350,ls),
(384,439,o),
(432,487,o),
(484,487,cs),
(537,487,o),
(568,437,o),
(581,333,c),
(627,333,l),
(639,429,o),
(676,487,o),
(728,487,cs),
(775,487,o),
(823,439,o),
(823,350,cs),
(823,0,l),
(878,0,l),
(878,349,ls),
(878,484,o),
(826,555,o),
(731,555,cs),
(663,555,o),
(620,519,o),
(604,423,c),
(603,423,l),
(590,519,o),
(545,555,o),
(479,555,cs),
(391,555,o),
(329,484,o),
(329,349,cs),
(329,69,l),
(278,71,o),
(248,105,o),
(248,197,cs),
(248,412,ls),
(248,500,o),
(202,555,o),
(137,555,cs),
(61,555,o),
(25,481,o),
(30,398,c),
(85,398,l),
(85,459,o),
(111,483,o),
(139,483,cs),
(166,483,o),
(197,461,o),
(197,401,cs),
(197,195,ls),
(197,44,o),
(238,0,o),
(329,0,cs)
);
}
);
width = 905;
}
);
unicode = 6935;
},
{
glyphname = "pa-bali";
lastChange = "2022-12-27 16:32:26 +0000";
layers = (
{
layerId = m009;
shapes = (
{
closed = 1;
nodes = (
(550,-11,o),
(616,52,o),
(616,206,cs),
(616,522,l),
(596,498,l),
(636,498,ls),
(676,498,o),
(698,478,o),
(698,436,cs),
(698,0,l),
(751,0,l),
(751,420,ls),
(751,509,o),
(720,545,o),
(630,545,cs),
(563,545,l),
(563,204,ls),
(563,82,o),
(497,48,o),
(415,48,cs),
(303,48,o),
(239,96,o),
(239,224,cs),
(239,412,ls),
(239,500,o),
(193,555,o),
(128,555,cs),
(52,555,o),
(16,481,o),
(21,398,c),
(76,398,l),
(76,459,o),
(102,483,o),
(130,483,cs),
(157,483,o),
(188,461,o),
(188,401,cs),
(188,224,ls),
(188,64,o),
(249,-11,o),
(416,-11,cs)
);
}
);
width = 770;
}
);
unicode = 6951;
},
{
glyphname = "paKapal-bali";
lastChange = "2022-12-27 17:35:49 +0000";
layers = (
{
layerId = m009;
shapes = (
{
closed = 1;
nodes = (
(550,-11,o),
(616,52,o),
(616,206,cs),
(616,545,ls),
(616,660,o),
(585,710,o),
(512,710,cs),
(433,710,o),
(398,647,o),
(400,580,cs),
(404,473,o),
(494,420,o),
(578,420,cs),
(661,420,o),
(716,459,o),
(757,553,c),
(724,584,l),
(686,514,o),
(644,494,o),
(586,494,cs),
(532,494,o),
(455,526,o),
(455,590,cs),
(455,625,o),
(474,647,o),
(504,647,cs),
(536,647,o),
(563,626,o),
(563,545,cs),
(563,204,ls),
(563,82,o),
(497,48,o),
(408,48,cs),
(303,48,o),
(239,96,o),
(239,224,cs),
(239,412,ls),
(239,500,o),
(193,555,o),
(128,555,cs),
(52,555,o),
(16,481,o),
(21,398,c),
(76,398,l),
(76,459,o),
(102,483,o),
(130,483,cs),
(157,483,o),
(188,461,o),
(188,401,cs),
(188,224,ls),
(188,64,o),
(249,-11,o),
(406,-11,cs)
);
}
);
width = 770;
}
);
unicode = 6952;
},
{
glyphname = "efSasak-bali";
lastChange = "2022-12-27 16:33:18 +0000";
layers = (
{
layerId = m009;
shapes = (
{
closed = 1;
nodes = (
(633,-266,o),
(690,-219,o),
(740,-118,c),
(707,-87,l),
(669,-154,o),
(623,-187,o),
(569,-187,cs),
(503,-187,o),
(446,-138,o),
(446,-34,cs),
(446,337,l),
(401,337,l),
(401,-56,ls),
(401,-199,o),
(465,-266,o),
(557,-266,cs)
);
},
{
pos = (11,0);
ref = "pa-bali";
}
);
width = 781;
}
);
unicode = 6984;
},
{
glyphname = "ja-bali";
lastChange = "2022-12-27 17:33:50 +0000";
layers = (
{
layerId = m009;
shapes = (
{
closed = 1;
nodes = (
(384,0,l),
(384,320,ls),
(384,436,o),
(455,487,o),
(574,487,cs),
(651,487,o),
(728,463,o),
(728,389,cs),
(728,322,o),
(661,275,o),
(543,238,c),
(543,203,l),
(666,195,o),
(747,170,o),
(747,31,cs),
(747,0,l),
(808,0,l),
(808,41,ls),
(808,162,o),
(727,228,o),
(647,228,c),
(647,231,l),
(722,250,o),
(783,320,o),
(783,399,cs),
(783,498,o),
(688,555,o),
(571,555,cs),
(421,555,o),
(329,481,o),
(329,319,cs),
(329,0,l)
);
},
{
closed = 1;
nodes = (
(384,0,l),
(384,69,l),
(333,69,ls),
(280,69,o),
(248,103,o),
(248,197,cs),
(248,412,ls),
(248,500,o),
(202,555,o),
(137,555,cs),
(61,555,o),
(25,481,o),
(30,398,c),
(85,398,l),
(85,459,o),
(111,483,o),
(139,483,cs),
(166,483,o),
(197,461,o),
(197,401,cs),
(197,195,ls),
(197,41,o),
(240,0,o),
(334,0,cs)
);
}
);
width = 818;
}
);
unicode = 6938;
},
{
glyphname = "jaJera-bali";
lastChange = "2022-12-27 17:43:24 +0000";
layers = (
{
layerId = m009;
shapes = (
{
closed = 1;
nodes = (
(666,-383,o),
(666,-278,o),
(720,-278,cs),
(775,-278,o),
(788,-383,o),
(894,-383,cs),
(959,-383,o),
(1012,-344,o),
(1012,-222,cs),
(1012,615,ls),
(1012,740,o),
(976,790,o),
(904,790,cs),
(829,790,o),
(791,727,o),
(794,663,cs),
(798,573,o),
(890,519,o),
(1014,519,cs),
(1083,519,o),
(1107,503,o),
(1146,441,c),
(1172,464,l),
(1136,555,o),
(1082,581,o),
(982,581,cs),
(908,581,o),
(852,616,o),
(852,672,cs),
(852,707,o),
(873,727,o),
(904,727,cs),
(935,727,o),
(959,706,o),
(959,635,cs),
(959,-224,ls),
(959,-300,o),
(930,-319,o),
(882,-319,cs),
(809,-320,o),
(785,-215,o),
(724,-215,cs),
(658,-215,o),
(645,-322,o),
(587,-319,cs),
(538,-317,o),
(506,-271,o),
(506,-196,cs),
(506,22,o),
(878,119,o),
(878,379,cs),
(878,484,o),
(826,555,o),
(731,555,cs),
(663,555,o),
(620,519,o),
(604,423,c),
(603,423,l),
(590,519,o),
(545,555,o),
(479,555,cs),
(391,555,o),
(329,484,o),
(329,349,cs),
(329,69,l),
(278,71,o),
(248,105,o),
(248,197,cs),
(248,412,ls),
(248,500,o),
(202,555,o),
(137,555,cs),
(61,555,o),
(25,481,o),
(30,398,c),
(85,398,l),
(85,459,o),
(111,483,o),
(139,483,cs),
(166,483,o),
(197,461,o),
(197,401,cs),
(197,195,ls),
(197,44,o),
(238,0,o),
(329,0,cs),
(384,0,l),
(384,350,ls),
(384,439,o),
(432,487,o),
(484,487,cs),
(537,487,o),
(568,437,o),
(581,333,c),
(627,333,l),
(639,429,o),
(676,487,o),
(737,487,cs),
(785,487,o),
(823,450,o),
(823,380,cs),
(823,176,o),
(443,65,o),
(443,-199,cs),
(443,-301,o),
(490,-383,o),
(575,-383,cs)
);
}
);
width = 1175;
}
);
unicode = 6939;
},
{
glyphname = "ya-bali";
lastChange = "2022-12-27 15:49:05 +0000";
layers = (
{
layerId = m009;
shapes = (
{
closed = 1;
nodes = (
(365,0,o),
(397,86,o),
(413,202,c),
(414,202,l),
(433,87,o),
(476,0,o),
(564,0,cs),
(651,0,o),
(694,71,o),
(694,186,cs),
(694,522,l),
(674,498,l),
(714,498,ls),
(754,498,o),
(776,478,o),
(776,436,cs),
(776,0,l),
(829,0,l),
(829,420,ls),
(829,509,o),
(798,545,o),
(708,545,cs),
(641,545,l),
(641,184,ls),
(641,107,o),
(606,68,o),
(562,68,cs),
(470,68,o),
(437,237,o),
(437,512,c),
(391,512,l),
(391,237,o),
(359,68,o),
(266,68,cs),
(228,68,o),
(191,96,o),
(191,177,cs),
(191,412,ls),
(191,500,o),
(145,555,o),
(80,555,cs),
(4,555,o),
(-32,481,o),
(-27,398,c),
(28,398,l),
(28,459,o),
(54,483,o),
(82,483,cs),
(109,483,o),
(140,461,o),
(140,401,cs),
(140,186,ls),
(140,51,o),
(192,0,o),
(268,0,cs)
);
}
);
width = 905;
}
);
unicode = 6956;
},
{
glyphname = "nya-bali";
lastChange = "2022-12-27 16:01:23 +0000";
layers = (
{
background = {
shapes = (
{
closed = 0;
nodes = (
(878,0,ls),
(956,0,o),
(1012,39,o),
(1012,221,cs),
(1012,401,o),
(1063,494,o),
(1206,494,cs),
(1278,494,o),
(1374,441,o),
(1374,263,cs),
(1374,105,o),
(1297,43,o),
(1221,43,cs),
(1166,43,o),
(1134,61,o),
(1116,86,c),
(1094,44,l),
(1115,11,o),
(1154,-10,o),
(1219,-10,cs),
(1318,-10,o),
(1433,70,o),
(1433,276,cs),
(1433,496,o),
(1302,555,o),
(1208,555,cs),
(1039,555,o),
(959,425,o),
(959,219,cs),
(959,70,o),
(912,41,o),
(852,54,c)
);
}
);
};
layerId = m009;
shapes = (
{
closed = 1;
nodes = (
(1318,-10,o),
(1453,70,o),
(1453,276,cs),
(1453,444,o),
(1362,555,o),
(1220,555,cs),
(1057,555,o),
(959,425,o),
(959,219,cs),
(959,70,o),
(913,41,o),
(863,54,c),
(840,19,l),
(875,0,l),
(956,0,o),
(1012,39,o),
(1012,221,cs),
(1012,401,o),
(1081,494,o),
(1218,494,cs),
(1325,494,o),
(1394,401,o),
(1394,263,cs),
(1394,105,o),
(1297,43,o),
(1221,43,cs),
(1166,43,o),
(1134,61,o),
(1116,86,c),
(1094,44,l),
(1115,11,o),
(1154,-10,o),
(1219,-10,cs)
);
},
{
ref = "nga-bali";
}
);
width = 1455;
}
);
unicode = 6940;
},
{
glyphname = "ha_tedung-bali";
layers = (
{
layerId = m009;
shapes = (
{
closed = 1;
nodes = (
(460,-11,o),
(505,52,o),
(506,156,cs),
(507,350,ls),
(507,439,o),
(555,487,o),
(622,487,cs),
(687,487,o),
(733,440,o),
(733,350,cs),
(733,127,ls),
(733,40,o),
(788,-11,o),
(858,-11,cs),
(921,-11,o),
(969,39,o),
(969,127,cs),
(969,338,ls),
(969,424,o),
(1019,494,o),
(1104,494,cs),
(1179,494,o),
(1223,438,o),
(1223,352,cs),
(1223,262,o),
(1169,211,o),
(1110,211,cs),
(1075,211,o),
(1043,229,o),
(1025,254,c),
(1003,212,l),
(1024,179,o),
(1063,158,o),
(1108,158,cs),
(1190,158,o),
(1282,227,o),
(1282,365,cs),
(1282,493,o),
(1203,555,o),
(1106,555,cs),
(1030,555,o),
(916,522,o),
(916,329,cs),
(916,125,ls),
(916,68,o),
(891,44,o),
(856,44,cs),
(819,44,o),
(788,67,o),
(788,117,cs),
(788,349,ls),
(788,490,o),
(731,555,o),
(628,555,cs),
(520,555,o),
(451,484,o),
(452,349,cs),
(453,154,ls),
(453,82,o),
(407,48,o),
(350,48,cs),
(286,48,o),
(242,96,o),
(242,174,cs),
(242,412,ls),
(242,500,o),
(196,555,o),
(131,555,cs),
(55,555,o),
(19,481,o),
(24,398,c),
(79,398,l),
(79,459,o),
(105,483,o),
(133,483,cs),
(160,483,o),
(191,461,o),
(191,401,cs),
(191,174,ls),
(191,64,o),
(232,-11,o),
(351,-11,cs)
);
}
);
width = 1300;
}
);
},
{
glyphname = "na_tedung-bali";
layers = (
{
layerId = m009;
shapes = (
{
closed = 1;
nodes = (
(594,-10,o),
(640,37,o),
(640,107,cs),
(640,238,o),
(480,285,o),
(370,285,cs),
(263,285,l),
(234,268,l),
(234,242,l),
(257,205,l),
(371,205,ls),
(460,205,o),
(580,182,o),
(580,109,cs),
(580,71,o),
(547,53,o),
(502,53,cs),
(420,53,o),
(357,113,o),
(357,245,cs),
(357,378,o),
(417,488,o),
(539,488,cs),
(594,488,o),
(630,464,o),
(659,433,c),
(682,467,l),
(682,477,l),
(659,488,l),
(645,519,o),
(607,555,o),
(538,555,cs),
(397,555,o),
(306,406,o),
(306,248,cs),
(306,87,o),
(393,-10,o),
(511,-10,cs)
);
},
{
closed = 1;
nodes = (
(209,-10,o),
(277,116,o),
(277,387,cs),
(277,500,o),
(231,555,o),
(154,555,cs),
(66,555,o),
(-1,481,o),
(-1,377,c),
(54,377,l),
(56,447,o),
(94,487,o),
(144,487,cs),
(192,487,o),
(226,450,o),
(226,376,cs),
(226,144,o),
(178,53,o),
(110,53,cs),
(73,53,o),
(54,79,o),
(54,110,cs),
(54,164,o),
(112,203,o),
(200,203,cs),
(242,203,l),
(248,284,l),
(206,284,ls),
(83,284,o),
(-5,213,o),
(-5,110,cs),
(-5,31,o),
(45,-10,o),
(105,-10,cs)
);
},
{
closed = 1;
nodes = (
(910,174,o),
(1002,243,o),
(1002,375,cs),
(1002,493,o),
(923,555,o),
(822,555,cs),
(751,555,o),
(697,524,o),
(666,488,c),
(659,488,l),
(659,433,l),
(673,433,l),
(705,474,o),
(758,494,o),
(811,494,cs),
(899,494,o),
(943,438,o),
(943,362,cs),
(943,278,o),
(889,227,o),
(830,227,cs),
(795,227,o),
(763,245,o),
(745,270,c),
(723,228,l),
(744,195,o),
(783,174,o),
(828,174,cs)
);
}
);
width = 1040;
}
);
},
{
glyphname = "ka_tedung-bali";
layers = (
{
layerId = m009;
shapes = (
{
closed = 1;
nodes = (
(609,-10,o),
(655,37,o),
(655,107,cs),
(655,238,o),
(495,285,o),
(385,285,cs),
(278,285,l),
(249,268,l),
(249,242,l),
(272,205,l),
(386,205,ls),
(475,205,o),
(595,182,o),
(595,109,cs),
(595,71,o),
(562,53,o),
(517,53,cs),
(435,53,o),
(372,113,o),
(372,245,cs),
(372,378,o),
(432,478,o),
(565,478,cs),
(679,478,o),
(737,406,o),
(737,264,cs),
(737,70,l),
(788,70,l),
(788,275,ls),
(788,461,o),
(713,555,o),
(577,555,cs),
(408,555,o),
(321,406,o),
(321,248,cs),
(321,87,o),
(408,-10,o),
(526,-10,cs)
);
},
{
closed = 1;
nodes = (
(224,-10,o),
(292,116,o),
(292,387,cs),
(292,500,o),
(246,555,o),
(169,555,cs),
(81,555,o),
(14,481,o),
(14,377,c),
(69,377,l),
(71,447,o),
(109,487,o),
(159,487,cs),
(207,487,o),
(241,450,o),
(241,376,cs),
(241,144,o),
(193,53,o),
(125,53,cs),
(88,53,o),
(69,79,o),
(69,110,cs),
(69,164,o),
(127,203,o),
(215,203,cs),
(257,203,l),
(263,284,l),
(221,284,ls),
(98,284,o),
(10,213,o),
(10,110,cs),
(10,31,o),
(60,-10,o),
(120,-10,cs)
);
},
{
closed = 1;
nodes = (
(857,-10,o),
(895,21,o),
(895,81,cs),
(895,338,ls),
(895,424,o),
(945,494,o),
(1030,494,cs),
(1105,494,o),
(1149,438,o),
(1149,352,cs),
(1149,262,o),
(1095,211,o),
(1036,211,cs),
(1001,211,o),
(969,229,o),
(951,254,c),
(929,212,l),
(950,179,o),
(989,158,o),
(1034,158,cs),
(1116,158,o),
(1208,227,o),
(1208,365,cs),
(1208,493,o),
(1129,555,o),
(1032,555,cs),
(956,555,o),
(842,522,o),
(842,329,cs),
(842,81,ls),
(842,54,o),
(834,37,o),
(818,37,cs),
(797,37,o),
(788,53,o),
(788,81,c),
(767,107,l),
(757,107,l),
(737,81,l),
(737,21,o),
(772,-10,o),
(814,-10,cs)
);
}
);
width = 1228;
}
);
},
{
glyphname = "sa_tedung-bali";
layers = (
{
layerId = m009;
shapes = (
{
closed = 1;
nodes = (
(224,-10,o),
(297,116,o),
(297,387,cs),
(297,500,o),
(251,555,o),
(174,555,cs),
(86,555,o),
(19,481,o),
(19,377,c),
(74,377,l),
(76,447,o),
(114,487,o),
(164,487,cs),
(212,487,o),
(246,450,o),
(246,376,cs),
(246,144,o),
(192,56,o),
(133,56,cs),
(102,56,o),
(74,80,o),
(74,126,cs),
(74,191,o),
(126,229,o),
(180,229,cs),
(228,229,o),
(268,199,o),
(323,113,cs),
(370,39,o),
(421,-10,o),
(487,-10,cs),
(552,-10,o),
(599,37,o),
(599,125,cs),
(599,338,ls),
(599,424,o),
(649,494,o),
(734,494,cs),
(809,494,o),
(853,438,o),
(853,352,cs),
(853,262,o),
(799,211,o),
(740,211,cs),
(705,211,o),
(673,229,o),
(655,254,c),
(633,212,l),
(654,179,o),
(693,158,o),
(738,158,cs),
(820,158,o),
(912,227,o),
(912,365,cs),
(912,493,o),
(833,555,o),
(736,555,cs),
(660,555,o),
(547,522,o),
(546,329,cs),
(545,138,ls),
(545,93,o),
(519,65,o),
(485,65,cs),
(431,65,o),
(398,131,o),
(355,189,cs),
(318,240,o),
(266,294,o),
(189,294,cs),
(99,294,o),
(15,219,o),
(15,113,cs),
(15,31,o),
(67,-10,o),
(124,-10,cs)
);
}
);
width = 1000;
}
);
},
{
glyphname = "zalSasak_tedung-bali";
layers = (
{
layerId = m009;
shapes = (
{
pos = (36,0);
ref = "sa-bali";
},
{
closed = 1;
nodes = (
(621,-266,o),
(678,-219,o),
(728,-118,c),
(695,-87,l),
(657,-154,o),
(611,-187,o),
(557,-187,cs),
(491,-187,o),
(444,-138,o),
(444,-34,cs),
(444,387,l),
(389,387,l),
(389,-56,ls),
(389,-199,o),
(453,-266,o),
(545,-266,cs)
);
},
{
pos = (428,0);
ref = _tedung_bali_;
}
);
width = 1150;
}
);
},
{
glyphname = "la_tedung-bali";
layers = (
{
layerId = m009;
shapes = (
{
closed = 1;
nodes = (
(871,-10,o),
(940,41,o),
(940,164,cs),
(940,338,ls),
(940,424,o),
(990,494,o),
(1075,494,cs),
(1150,494,o),
(1194,438,o),
(1194,352,cs),
(1194,262,o),
(1140,211,o),
(1081,211,cs),
(1046,211,o),
(1014,229,o),
(996,254,c),
(974,212,l),
(995,179,o),
(1034,158,o),
(1079,158,cs),
(1161,158,o),
(1253,227,o),
(1253,365,cs),
(1253,493,o),
(1174,555,o),
(1077,555,cs),
(1001,555,o),
(887,521,o),
(887,329,cs),
(887,147,ls),
(887,80,o),
(838,45,o),
(781,45,cs),
(726,45,o),
(675,77,o),
(675,146,cs),
(675,349,ls),
(675,490,o),
(618,555,o),
(495,555,cs),
(367,555,o),
(299,484,o),
(299,349,cs),
(299,85,ls),
(299,59,o),
(291,47,o),
(272,47,cs),
(251,47,o),
(242,62,o),
(242,84,cs),
(242,412,ls),
(242,500,o),
(196,555,o),
(131,555,cs),
(55,555,o),
(19,481,o),
(24,398,c),
(79,398,l),
(79,459,o),
(105,483,o),
(133,483,cs),
(160,483,o),
(191,461,o),
(191,401,cs),
(191,77,ls),
(191,23,o),
(221,-10,o),
(272,-10,cs),
(324,-10,o),
(354,24,o),
(354,84,cs),
(354,350,ls),
(354,439,o),
(402,487,o),
(489,487,cs),
(574,487,o),
(620,440,o),
(620,350,cs),
(620,156,ls),
(620,30,o),
(693,-10,o),
(776,-10,cs)
);
}
);
width = 1270;
}
);
},
{
glyphname = "pa_tedung-bali";
layers = (
{
layerId = m009;
shapes = (
{
closed = 1;
nodes = (
(480,-11,o),
(526,52,o),
(526,156,cs),
(526,338,ls),
(526,424,o),
(576,494,o),
(661,494,cs),
(736,494,o),
(780,438,o),
(780,352,cs),
(780,262,o),
(726,211,o),
(667,211,cs),
(632,211,o),
(600,229,o),
(582,254,c),
(560,212,l),
(581,179,o),
(620,158,o),
(665,158,cs),
(747,158,o),
(839,227,o),
(839,365,cs),
(839,493,o),
(760,555,o),
(663,555,cs),
(587,555,o),
(473,521,o),
(473,329,cs),
(473,154,ls),
(473,82,o),
(427,48,o),
(358,48,cs),
(276,48,o),
(232,96,o),
(232,174,cs),
(232,412,ls),
(232,500,o),
(186,555,o),
(121,555,cs),
(45,555,o),
(9,481,o),
(14,398,c),
(69,398,l),
(69,459,o),
(95,483,o),
(123,483,cs),
(150,483,o),
(181,461,o),
(181,401,cs),
(181,174,ls),
(181,64,o),
(222,-11,o),
(359,-11,cs)
);
}
);
width = 850;
}
);
},
{
color = 0;
glyphname = zero;
layers = (
{
anchors = (
{
name = tail_Q;
pos = (276,43);
}
);
layerId = m009;
shapes = (
{
closed = 1;
nodes = (
(397,-10,o),
(477,120,o),
(477,348,cs),
(477,575,o),
(396,710,o),
(265,710,cs),
(130,710,o),
(50,569,o),
(50,348,cs),
(50,126,o),
(130,-10,o),
(265,-10,cs)
);
},
{
closed = 1;
nodes = (
(176,65,o),
(131,160,o),
(131,348,cs),
(131,535,o),
(175,635,o),
(265,635,cs),
(351,635,o),
(397,539,o),
(397,348,cs),
(397,156,o),
(351,65,o),
(265,65,cs)
);
}
);
width = 527;
}
);
unicode = 48;
},
{
color = 0;
glyphname = one;
layers = (
{
background = {
shapes = (
{
pos = (-67,0);
ref = two;
}
);
};
layerId = m009;
shapes = (
{
closed = 1;
nodes = (
(226,0,l),
(226,700,l),
(144,700,l),
(34,613,l),
(60,555,l),
(173,633,l),
(144,633,l),
(144,0,l)
);
}
);
width = 301;
}
);
unicode = 49;
},
{
color = 0;
glyphname = two;
layers = (
{
layerId = m009;
shapes = (
{
closed = 1;
nodes = (
(440,0,l),
(440,70,l),
(85,70,l),
(127,41,l),
(376,359,ls),
(433,432,o),
(455,485,o),
(455,536,cs),
(455,640,o),
(369,710,o),
(258,710,cs),
(185,710,o),
(107,679,o),
(50,623,c),
(53,674,l),
(117,539,l),
(80,555,l),
(134,604,o),
(196,632,o),
(254,632,cs),
(329,632,o),
(375,598,o),
(375,539,cs),
(375,502,o),
(357,462,o),
(318,412,cs),
(49,69,l),
(49,0,l)
);
}
);
width = 493;
}
);
unicode = 50;
},
{
color = 0;
glyphname = three;
layers = (
{
background = {
shapes = (
{
pos = (-73,0);
ref = two;
}
);
};
layerId = m009;
shapes = (
{
closed = 1;
nodes = (
(180,68,o),
(112,88,o),
(47,145,c),
(84,161,l),
(18,26,l),
(16,77,l),
(72,21,o),
(138,-10,o),
(225,-10,cs),
(364,-10,o),
(457,70,o),
(457,192,cs),
(457,276,o),
(414,343,o),
(330,362,c),
(330,365,l),
(391,386,o),
(440,456,o),
(440,534,cs),
(440,640,o),
(348,710,o),
(235,710,cs),
(160,710,o),
(89,679,o),
(31,623,c),
(35,674,l),
(97,539,l),
(60,555,l),
(102,596,o),
(157,632,o),
(229,632,cs),
(304,632,o),
(361,592,o),
(361,528,cs),
(361,452,o),
(281,395,o),
(204,395,cs),
(137,395,l),
(136,325,l),
(207,325,ls),
(304,325,o),
(381,275,o),
(381,191,cs),
(381,108,o),
(308,68,o),
(233,68,cs)
);
}
);
width = 510;
}
);
unicode = 51;
},
{
color = 0;
glyphname = four;
layers = (
{
layerId = m009;
shapes = (
{
closed = 1;
nodes = (
(436,1,l),
(436,187,l),
(418,161,l),
(516,161,l),
(516,231,l),
(418,231,l),
(436,203,l),
(436,700,l),
(352,700,l),
(44,231,l),
(44,161,l),
(367,161,l),
(354,179,l),
(354,1,l)
);
},
{
closed = 1;
nodes = (
(417,666,l),
(354,646,l),
(354,213,l),
(367,231,l),
(90,231,l),
(117,200,l)
);
}
);
width = 546;
}
);
unicode = 52;
},
{
color = 0;
glyphname = five;
layers = (
{
background = {
shapes = (
{
pos = (-29,0);
ref = three;
}
);
};
layerId = m009;
shapes = (
{
closed = 1;
nodes = (
(374,-10,o),
(451,85,o),
(451,201,cs),
(451,332,o),
(351,409,o),
(233,409,cs),
(200,409,o),
(165,403,o),
(128,387,c),
(158,376,l),
(182,670,l),
(128,630,l),
(413,630,l),
(413,700,l),
(108,700,l),
(81,360,l),
(118,321,l),
(144,333,o),
(175,342,o),
(214,342,cs),
(314,341,o),
(375,282,o),
(375,204,cs),
(375,128,o),
(317,66,o),
(224,66,cs),
(170,66,o),
(115,87,o),
(52,150,c),
(95,162,l),
(27,26,l),
(25,78,l),
(81,22,o),
(148,-10,o),
(231,-10,cs)
);
}
);
width = 484;
}
);
unicode = 53;
},
{
color = 0;
glyphname = six;
layers = (
{
background = {
shapes = (
{
pos = (46,0);
ref = five;
}
);
};
layerId = m009;
shapes = (
{
closed = 1;
nodes = (
(407,-10,o),
(501,79,o),
(501,200,cs),
(501,323,o),
(406,416,o),
(287,416,cs),
(213,416,o),
(154,378,o),
(94,305,c),
(101,231,l),
(153,302,o),
(204,344,o),
(279,344,cs),
(365,344,o),
(425,289,o),
(425,203,cs),
(425,119,o),
(368,65,o),
(284,65,cs),
(193,65,o),
(127,130,o),
(127,281,cs),
(127,485,o),
(250,630,o),
(427,630,cs),
(461,630,l),
(461,700,l),
(429,700,ls),
(209,700,o),
(47,520,o),
(47,273,cs),
(47,94,o),
(141,-10,o),
(280,-10,cs)
);
}
);
width = 528;
}
);
unicode = 54;
},
{
color = 0;
glyphname = seven;
layers = (
{
background = {
shapes = (
{
pos = (21,0);
ref = four;
}
);
};
layerId = m009;
shapes = (
{
closed = 1;
nodes = (
(170,0,l),
(412,630,l),
(412,700,l),
(34,700,l),
(34,630,l),
(373,630,l),
(346,665,l),
(85,0,l)
);
}
);
width = 454;
}
);
unicode = 55;
},
{
color = 0;
glyphname = eight;
layers = (
{
background = {
shapes = (
{
closed = 1;
nodes = (
(357,-10,o),
(446,59,o),
(446,158,cs),
(446,272,o),
(373,306,o),
(272,392,cs),
(210,445,o),
(135,488,o),
(135,559,cs),
(135,601,o),
(173,649,o),
(240,649,cs),
(310,649,o),
(349,606,o),
(349,548,cs),
(349,487,o),
(307,427,o),
(257,377,c),
(294,345,l),
(378,426,o),
(430,480,o),
(430,555,cs),
(430,636,o),
(364,710,o),
(240,710,cs),
(115,710,o),
(52,632,o),
(52,562,cs),
(52,468,o),
(123,415,o),
(227,324,cs),
(300,260,o),
(361,225,o),
(361,155,cs),
(361,98,o),
(316,64,o),
(240,64,cs),
(166,64,o),
(111,105,o),
(111,173,cs),
(111,237,o),
(140,286,o),
(223,360,c),
(185,387,l),
(76,304,o),
(24,255,o),
(24,156,cs),
(24,66,o),
(110,-10,o),
(235,-10,cs)
);
}
);
};
layerId = m009;
shapes = (
{
closed = 1;
nodes = (
(357,-10,o),
(456,59,o),
(456,171,cs),
(456,288,o),
(346,331,o),
(267,388,cs),
(202,435,o),
(124,470,o),
(124,553,cs),
(124,608,o),
(173,649,o),
(240,649,cs),
(307,649,o),
(356,608,o),
(356,550,cs),
(356,473,o),
(295,430,o),
(233,385,c),
(286,342,l),
(362,398,o),
(438,446,o),
(438,546,cs),
(438,639,o),
(355,710,o),
(240,710,cs),
(125,710,o),
(42,639,o),
(42,547,cs),
(42,440,o),
(136,399,o),
(216,339,cs),
(291,283,o),
(374,242,o),
(374,166,cs),
(374,103,o),
(323,64,o),
(240,64,cs),
(164,64,o),
(107,103,o),
(107,169,cs),
(107,241,o),
(173,293,o),
(246,347,c),
(191,389,l),
(114,336,o),
(24,282,o),
(24,173,cs),
(24,59,o),
(123,-10,o),
(240,-10,cs)
);
}
);
width = 485;
}
);
unicode = 56;
},
{
color = 0;
glyphname = nine;
layers = (
{
layerId = m009;
shapes = (
{
closed = 1;
nodes = (
(99,-10,ls),
(319,-10,o),
(481,170,o),
(481,413,cs),
(481,596,o),
(387,700,o),
(252,700,cs),
(121,700,o),
(27,601,o),
(27,480,cs),
(27,357,o),
(122,264,o),
(239,264,cs),
(324,264,o),
(385,312,o),
(434,385,c),
(427,459,l),
(382,389,o),
(333,336,o),
(249,336,cs),
(163,336,o),
(103,391,o),
(103,477,cs),
(103,561,o),
(160,625,o),
(247,625,cs),
(335,625,o),
(401,560,o),
(401,409,cs),
(401,205,o),
(278,60,o),
(101,60,cs),
(67,60,l),
(67,-10,l)
);
}
);
width = 528;
}
);
unicode = 57;
},
{
glyphname = period;
kernLeft = period;
kernRight = period;
layers = (
{
layerId = m009;
shapes = (
{
closed = 1;
nodes = (
(158,0,l),
(158,90,l),
(63,90,l),
(63,0,l)
);
}
);
width = 221;
}
);
metricRight = "=|";
unicode = 46;
},
{
glyphname = comma;
layers = (
{
layerId = m009;
shapes = (
{
closed = 1;
nodes = (
(109,-100,l),
(175,90,l),
(79,90,l),
(63,-100,l)
);
}
);
width = 238;
}
);
metricLeft = period;
metricRight = period;
unicode = 44;
},
{
glyphname = colon;
layers = (
{
layerId = m009;
shapes = (
{
closed = 1;
nodes = (
(161,455,l),
(161,545,l),
(66,545,l),
(66,455,l)
);
},
{
closed = 1;
nodes = (
(161,0,l),
(161,90,l),
(66,90,l),
(66,0,l)
);
}
);
width = 227;
}
);
metricRight = "=|";
unicode = 58;
},
{
glyphname = semicolon;
layers = (
{
background = {
shapes = (
{
ref = period;
}
);
};
layerId = m009;
shapes = (
{
closed = 1;
nodes = (
(145,455,l),
(145,545,l),
(50,545,l),
(50,455,l)
);
},
{
closed = 1;
nodes = (
(80,-100,l),
(146,90,l),
(50,90,l),
(34,-100,l)
);
}
);
width = 195;
}
);
unicode = 59;
},
{
glyphname = exclam;
layers = (
{
layerId = m009;
shapes = (
{
closed = 1;
nodes = (
(147,195,l),
(158,700,l),
(69,700,l),
(80,195,l)
);
},
{
closed = 1;
nodes = (
(155,0,l),
(155,90,l),
(67,90,l),
(67,0,l)
);
}
);
width = 223;
}
);
unicode = 33;
},
{
glyphname = question;
layers = (
{
background = {
shapes = (
{
closed = 1;
nodes = (
(412,0,l),
(412,70,l),
(57,70,l),
(99,41,l),
(348,359,ls),
(405,432,o),
(427,485,o),
(427,536,cs),
(427,640,o),
(341,710,o),
(230,710,cs),
(157,710,o),
(79,679,o),
(22,623,c),
(25,674,l),
(89,539,l),
(52,555,l),
(106,604,o),
(168,632,o),
(226,632,cs),
(301,632,o),
(347,598,o),
(347,539,cs),
(347,502,o),
(329,462,o),
(290,412,cs),
(21,69,l),
(21,0,l)
);
}
);
};
layerId = m009;
shapes = (
{
closed = 1;
nodes = (
(240,195,l),
(240,218,ls),
(240,274,o),
(264,305,o),
(318,353,cs),
(368,398,o),
(427,446,o),
(427,535,cs),
(427,643,o),
(341,710,o),
(231,710,cs),
(157,710,o),
(79,679,o),
(22,623,c),
(25,674,l),
(89,539,l),
(52,555,l),
(106,604,o),
(168,632,o),
(230,632,cs),
(301,632,o),
(347,596,o),
(347,538,cs),
(347,482,o),
(304,440,o),
(262,400,cs),
(215,356,o),
(167,305,o),
(167,222,cs),
(167,195,l)
);
},
{
closed = 1;
nodes = (
(243,0,l),
(243,90,l),
(155,90,l),
(155,0,l)
);
}
);
width = 465;
}
);
unicode = 63;
},
{
glyphname = periodcentered;
layers = (
{
layerId = m009;
shapes = (
{
closed = 1;
nodes = (
(140,255,l),
(140,345,l),
(45,345,l),
(45,255,l)
);
}
);
width = 185;
}
);
unicode = 183;
},
{
glyphname = bullet;
layers = (
{
layerId = m009;
shapes = (
{
closed = 1;
nodes = (
(169,218,l),
(169,340,l),
(40,340,l),
(40,218,l)
);
}
);
width = 209;
}
);
unicode = 8226;
},
{
glyphname = asterisk;
layers = (
{
layerId = m009;
shapes = (
{
closed = 1;
nodes = (
(205,513,l),
(188,513,l),
(278,390,l),
(331,435,l),
(228,539,l),
(228,522,l),
(359,559,l),
(334,625,l),
(207,567,l),
(218,557,l),
(233,700,l),
(159,700,l),
(174,559,l),
(181,570,l),
(60,625,l),
(35,559,l),
(163,523,l),
(163,538,l),
(65,440,l),
(117,392,l)
);
}
);
width = 394;
}
);
unicode = 42;
},
{
glyphname = numbersign;
layers = (
{
background = {
shapes = (
{
pos = (-19,0);
ref = H;
}
);
};
layerId = m009;
shapes = (
{
closed = 1;
nodes = (
(456,0,l),
(530,700,l),
(453,700,l),
(379,0,l)
);
},
{
closed = 1;
nodes = (
(563,175,l),
(570,245,l),
(20,245,l),
(13,175,l)
);
},
{
closed = 1;
nodes = (
(164,0,l),
(238,700,l),
(161,700,l),
(87,0,l)
);
},
{
closed = 1;
nodes = (
(591,445,l),
(598,515,l),
(48,515,l),
(41,445,l)
);
}
);
width = 611;
}
);
unicode = 35;
},
{
glyphname = slash;
layers = (
{
layerId = m009;
shapes = (
{
closed = 1;
nodes = (
(102,-10,l),
(471,710,l),
(397,710,l),
(25,-10,l)
);
}
);
width = 500;
}
);
unicode = 47;
},
{
glyphname = backslash;
layers = (
{
layerId = m009;
shapes = (
{
closed = 1;
nodes = (
(474,-10,l),
(102,710,l),
(29,710,l),
(397,-10,l)
);
}
);
width = 500;
}
);
unicode = 92;
},
{
glyphname = hyphen;
layers = (
{
layerId = m009;
shapes = (
{
closed = 1;
nodes = (
(288,266,l),
(288,338,l),
(47,338,l),
(47,266,l)
);
}
);
width = 335;
}
);
unicode = 45;
},
{
glyphname = endash;
layers = (
{
layerId = m009;
shapes = (
{
closed = 1;
nodes = (
(528,266,l),
(528,338,l),
(47,338,l),
(47,266,l)
);
}
);
width = 575;
}
);
metricLeft = hyphen;
metricRight = hyphen;
unicode = 8211;
},
{
glyphname = emdash;
layers = (
{
background = {
shapes = (
{
pos = (-37,0);
ref = M;
}
);
};
layerId = m009;
shapes = (
{
closed = 1;
nodes = (
(711,266,l),
(711,338,l),
(47,338,l),
(47,266,l)
);
}
);
width = 758;
}
);
metricLeft = hyphen;
metricRight = hyphen;
unicode = 8212;
},
{
glyphname = underscore;
layers = (
{
background = {
shapes = (
{
pos = (15,0);
ref = comma;
}
);
};
layerId = m009;
shapes = (
{
closed = 1;
nodes = (
(456,-100,l),
(456,-38,l),
(45,-38,l),
(45,-100,l)
);
}
);
width = 501;
}
);
unicode = 95;
},
{
glyphname = parenleft;
layers = (
{
layerId = m009;
shapes = (
{
closed = 1;
nodes = (
(268,-250,l),
(184,-86,o),
(131,77,o),
(131,232,cs),
(131,394,o),
(190,547,o),
(268,700,c),
(181,700,l),
(103,546,o),
(43,393,o),
(43,232,cs),
(43,76,o),
(97,-87,o),
(181,-250,c)
);
}
);
width = 292;
}
);
unicode = 40;
},
{
glyphname = braceleft;
layers = (
{
layerId = m009;
shapes = (
{
closed = 1;
nodes = (
(331,-196,l),
(241,-196,o),
(198,-161,o),
(198,-86,cs),
(198,107,ls),
(198,175,o),
(180,208,o),
(135,222,c),
(135,225,l),
(180,240,o),
(198,290,o),
(198,350,cs),
(198,530,ls),
(198,605,o),
(241,640,o),
(331,640,c),
(331,710,l),
(179,710,o),
(111,659,o),
(111,530,cs),
(111,310,ls),
(111,264,o),
(87,244,o),
(47,244,c),
(47,203,l),
(87,203,o),
(111,183,o),
(111,137,cs),
(111,-86,ls),
(111,-215,o),
(179,-266,o),
(331,-266,c)
);
}
);
width = 364;
}
);
unicode = 123;
},
{
glyphname = bracketleft;
layers = (
{
background = {
shapes = (
{
closed = 1;
nodes = (
(295,-196,l),
(205,-196,o),
(162,-161,o),
(162,-86,cs),
(162,107,ls),
(162,175,o),
(144,208,o),
(99,222,c),
(99,225,l),
(144,240,o),
(162,290,o),
(162,350,cs),
(162,530,ls),
(162,605,o),
(205,640,o),
(295,640,c),
(295,710,l),
(143,710,o),
(75,659,o),
(75,530,cs),
(75,310,ls),
(75,264,o),
(51,244,o),
(11,244,c),
(11,203,l),
(51,203,o),
(75,183,o),
(75,137,cs),
(75,-86,ls),
(75,-215,o),
(143,-266,o),
(295,-266,c)
);
}
);
};
layerId = m009;
shapes = (
{
closed = 1;
nodes = (
(295,-250,l),
(295,-180,l),
(124,-180,l),
(162,-218,l),
(162,668,l),
(124,630,l),
(295,630,l),
(295,700,l),
(37,700,l),
(75,738,l),
(75,-288,l),
(37,-250,l)
);
}
);
width = 308;
}
);
unicode = 91;
},
{
glyphname = quotesinglbase;
layers = (
{
layerId = m009;
shapes = (
{
closed = 1;
nodes = (
(109,-100,l),
(175,90,l),
(79,90,l),
(63,-100,l)
);
}
);
width = 238;
}
);
metricLeft = period;
metricRight = period;
unicode = 8218;
},
{
glyphname = quotedblbase;
layers = (
{
layerId = m009;
shapes = (
{
closed = 1;
nodes = (
(109,-100,l),
(175,90,l),
(79,90,l),
(63,-100,l)
);
},
{
closed = 1;
nodes = (
(249,-100,l),
(315,90,l),
(219,90,l),
(203,-100,l)
);
}
);
width = 378;
}
);
metricLeft = period;
metricRight = period;
unicode = 8222;
},
{
glyphname = quotedblleft;
layers = (
{
layerId = m009;
shapes = (
{
closed = 1;
nodes = (
(286,510,l),
(302,700,l),
(256,700,l),
(190,510,l)
);
},
{
closed = 1;
nodes = (
(146,510,l),
(162,700,l),
(116,700,l),
(50,510,l)
);
}
);
width = 352;
}
);
unicode = 8220;
},
{
glyphname = quotedblright;
layers = (
{
layerId = m009;
shapes = (
{
closed = 1;
nodes = (
(350,510,l),
(416,700,l),
(320,700,l),
(304,510,l)
);
},
{
closed = 1;
nodes = (
(210,510,l),
(276,700,l),
(180,700,l),
(164,510,l)
);
}
);
width = 570;
}
);
unicode = 8221;
},
{
glyphname = quoteleft;
layers = (
{
layerId = m009;
shapes = (
{
closed = 1;
nodes = (
(146,510,l),
(162,700,l),
(116,700,l),
(50,510,l)
);
}
);
width = 212;
}
);
unicode = 8216;
},
{
glyphname = guillemetleft;
layers = (
{
layerId = m009;
shapes = (
{
closed = 1;
nodes = (
(255,125,l),
(102,273,l),
(102,281,l),
(255,431,l),
(215,471,l),
(32,288,l),
(32,266,l),
(215,85,l)
);
},
{
closed = 1;
nodes = (
(424,125,l),
(271,273,l),
(271,281,l),
(424,431,l),
(384,471,l),
(201,288,l),
(201,266,l),
(384,85,l)
);
}
);
width = 453;
}
);
metricLeft = guilsinglleft;
metricRight = guilsinglleft;
unicode = 171;
},
{
glyphname = guilsinglleft;
layers = (
{
layerId = m009;
shapes = (
{
closed = 1;
nodes = (
(255,125,l),
(102,273,l),
(102,281,l),
(255,431,l),
(215,471,l),
(32,288,l),
(32,266,l),
(215,85,l)
);
}
);
width = 284;
}
);
unicode = 8249;
},
{
glyphname = guilsinglright;
layers = (
{
layerId = m009;
shapes = (
{
closed = 1;
nodes = (
(252,266,l),
(252,288,l),
(69,471,l),
(29,431,l),
(182,281,l),
(182,273,l),
(29,125,l),
(69,85,l)
);
}
);
width = 284;
}
);
metricLeft = "=|guilsinglleft";
metricRight = "=|guilsinglleft";
unicode = 8250;
},
{
glyphname = quotedbl;
layers = (
{
layerId = m009;
shapes = (
{
closed = 1;
nodes = (
(262,510,l),
(286,700,l),
(190,700,l),
(216,510,l)
);
},
{
closed = 1;
nodes = (
(122,510,l),
(146,700,l),
(50,700,l),
(76,510,l)
);
}
);
width = 336;
}
);
unicode = 34;
},
{
glyphname = quotesingle;
layers = (
{
layerId = m009;
shapes = (
{
closed = 1;
nodes = (
(122,510,l),
(146,700,l),
(50,700,l),
(76,510,l)
);
}
);
width = 196;
}
);
unicode = 39;
},
{
glyphname = at;
layers = (
{
background = {
shapes = (
{
pos = (50,0);
ref = C;
}
);
};
layerId = m009;
shapes = (
{
closed = 1;
nodes = (
(491,-10,o),
(557,11,o),
(610,53,c),
(586,104,l),
(544,71,o),
(479,53,o),
(415,53,cs),
(248,53,o),
(128,177,o),
(128,353,cs),
(128,530,o),
(248,647,o),
(426,647,cs),
(591,647,o),
(715,545,o),
(715,366,cs),
(715,266,o),
(676,213,o),
(622,213,cs),
(583,213,o),
(557,241,o),
(557,285,cs),
(557,527,l),
(500,527,l),
(500,484,l),
(496,484,l),
(476,515,o),
(439,538,o),
(393,538,cs),
(314,538,o),
(235,469,o),
(235,360,cs),
(235,252,o),
(310,184,o),
(394,184,cs),
(445,184,o),
(484,209,o),
(500,248,c),
(503,248,l),
(511,207,o),
(551,164,o),
(619,164,cs),
(713,164,o),
(775,247,o),
(775,376,cs),
(775,582,o),
(618,710,o),
(426,710,cs),
(221,710,o),
(60,567,o),
(60,353,cs),
(60,139,o),
(221,-10,o),
(417,-10,cs)
);
},
{
closed = 1;
nodes = (
(341,234,o),
(300,277,o),
(300,363,cs),
(300,448,o),
(342,488,o),
(399,488,cs),
(454,488,o),
(501,451,o),
(501,362,cs),
(501,273,o),
(459,234,o),
(401,234,cs)
);
}
);
width = 840;
}
);
unicode = 64;
},
{
glyphname = ampersand;
layers = (
{
background = {
shapes = (
{
pos = (526,0);
ref = S;
scale = (-1,1);
}
);
};
layerId = m009;
shapes = (
{
closed = 1;
nodes = (
(593,0,l),
(350,295,ls),
(220,453,o),
(170,503,o),
(170,558,cs),
(170,608,o),
(211,645,o),
(260,645,cs),
(306,645,o),
(339,612,o),
(339,564,cs),
(339,512,o),
(298,473,o),
(231,413,c),
(272,364,l),
(367,445,o),
(416,494,o),
(416,565,cs),
(416,644,o),
(353,710,o),
(259,710,cs),
(164,710,o),
(91,645,o),
(91,561,cs),
(91,501,o),
(127,446,o),
(287,252,cs),
(494,0,l)
);
},
{
closed = 1;
nodes = (
(425,-10,o),
(529,119,o),
(529,352,c),
(461,352,l),
(461,158,o),
(390,62,o),
(270,62,cs),
(179,62,o),
(119,114,o),
(119,181,cs),
(119,242,o),
(167,291,o),
(252,348,c),
(208,398,l),
(84,308,o),
(33,249,o),
(33,175,cs),
(33,78,o),
(125,-10,o),
(263,-10,cs)
);
}
);
width = 598;
}
);
unicode = 38;
},
{
glyphname = paragraph;
layers = (
{
layerId = m009;
shapes = (
{
closed = 1;
nodes = (
(310,-170,l),
(310,652,l),
(300,640,l),
(391,640,l),
(380,651,l),
(380,-170,l),
(450,-170,l),
(450,650,l),
(440,640,l),
(499,640,l),
(499,700,l),
(240,700,l),
(212,700,ls),
(111,700,o),
(35,618,o),
(35,518,cs),
(35,417,o),
(111,335,o),
(212,335,cs),
(265,335,l),
(240,360,l),
(240,-170,l)
);
}
);
width = 550;
}
);
unicode = 182;
},
{
glyphname = section;
layers = (
{
layerId = m009;
shapes = (
{
closed = 1;
nodes = (
(377,-12,o),
(446,63,o),
(446,140,cs),
(446,215,o),
(381,276,o),
(286,314,cs),
(200,348,o),
(164,378,o),
(164,416,cs),
(164,443,o),
(182,471,o),
(240,473,c),
(241,512,l),
(158,504,o),
(81,472,o),
(81,396,cs),
(81,336,o),
(128,294,o),
(254,243,cs),
(328,213,o),
(368,175,o),
(368,134,cs),
(368,86,o),
(315,58,o),
(249,58,cs),
(177,58,o),
(114,87,o),
(77,117,c),
(112,138,l),
(40,11,l),
(45,57,l),
(81,16,o),
(168,-12,o),
(243,-12,cs)
);
},
{
closed = 1;
nodes = (
(400,265,o),
(442,305,o),
(442,368,cs),
(442,442,o),
(386,485,o),
(290,523,cs),
(205,557,o),
(165,592,o),
(166,627,cs),
(167,660,o),
(205,694,o),
(271,694,cs),
(311,694,o),
(368,681,o),
(429,628,c),
(386,615,l),
(444,750,l),
(442,703,l),
(413,734,o),
(344,767,o),
(269,767,cs),
(161,767,o),
(81,698,o),
(81,619,cs),
(81,556,o),
(133,503,o),
(259,452,cs),
(339,420,o),
(364,398,o),
(364,358,cs),
(364,322,o),
(342,295,o),
(310,285,c),
(310,250,l)
);
}
);
width = 476;
}
);
unicode = 167;
},
{
glyphname = copyright;
layers = (
{
layerId = m009;
shapes = (
{
closed = 1;
nodes = (
(618,-10,o),
(779,151,o),
(779,350,cs),
(779,548,o),
(618,710,o),
(420,710,cs),
(221,710,o),
(60,548,o),
(60,350,cs),
(60,151,o),
(221,-10,o),
(420,-10,cs)
);
},
{
closed = 1;
nodes = (
(246,50,o),
(125,187,o),
(125,350,cs),
(125,513,o),
(246,650,o),
(420,650,cs),
(593,650,o),
(714,513,o),
(714,350,cs),
(714,187,o),
(593,50,o),
(420,50,cs)
);
},
{
closed = 1;
nodes = (
(479,133,o),
(527,149,o),
(557,175,c),
(532,222,l),
(502,202,o),
(468,189,o),
(431,189,cs),
(360,189,o),
(303,239,o),
(303,349,cs),
(303,461,o),
(368,508,o),
(434,508,cs),
(469,508,o),
(499,502,o),
(537,475,c),
(558,524,l),
(532,545,o),
(492,564,o),
(429,564,cs),
(322,564,o),
(238,491,o),
(238,349,cs),
(238,206,o),
(322,133,o),
(429,133,cs)
);
}
);
width = 844;
}
);
metricLeft = at;
metricRight = at;
unicode = 169;
},
{
glyphname = registered;
layers = (
{
layerId = m009;
shapes = (
{
closed = 1;
nodes = (
(618,-10,o),
(779,151,o),
(779,350,cs),
(779,548,o),
(618,710,o),
(420,710,cs),
(221,710,o),
(60,548,o),
(60,350,cs),
(60,151,o),
(221,-10,o),
(420,-10,cs)
);
},
{
closed = 1;
nodes = (
(245,50,o),
(125,187,o),
(125,350,cs),
(125,513,o),
(245,650,o),
(420,650,cs),
(593,650,o),
(714,513,o),
(714,350,cs),
(714,187,o),
(593,50,o),
(420,50,cs)
);
},
{
closed = 1;
nodes = (
(341,155,l),
(341,343,l),
(330,333,l),
(416,333,ls),
(462,333,o),
(477,322,o),
(492,272,cs),
(525,155,l),
(578,155,l),
(535,301,ls),
(526,330,o),
(515,348,o),
(495,356,c),
(495,358,l),
(534,370,o),
(558,405,o),
(558,450,cs),
(558,515,o),
(507,557,o),
(423,557,cs),
(290,557,l),
(290,155,l)
);
},
{
closed = 1;
nodes = (
(341,525,l),
(330,515,l),
(423,515,ls),
(480,515,o),
(510,489,o),
(510,446,cs),
(510,403,o),
(482,373,o),
(436,373,cs),
(331,373,l),
(341,364,l)
);
}
);
width = 844;
}
);
metricLeft = at;
metricRight = at;
unicode = 174;
},
{
glyphname = degree;
layers = (
{
layerId = m009;
shapes = (
{
closed = 1;
nodes = (
(199,548,o),
(248,597,o),
(248,657,cs),
(248,717,o),
(199,766,o),
(140,766,cs),
(80,766,o),
(31,717,o),
(31,657,cs),
(31,597,o),
(80,548,o),
(140,548,cs)
);
},
{
closed = 1;
nodes = (
(102,592,o),
(75,621,o),
(75,657,cs),
(75,693,o),
(102,722,o),
(140,722,cs),
(177,722,o),
(204,693,o),
(204,657,cs),
(204,621,o),
(177,592,o),
(140,592,cs)
);
}
);
width = 279;
}
);
unicode = 176;
},
{
glyphname = bar;
layers = (
{
layerId = m009;
shapes = (
{
closed = 1;
nodes = (
(150,-170,l),
(150,700,l),
(80,700,l),
(80,-170,l)
);
}
);
width = 230;
}
);
unicode = 124;
},
{
glyphname = brokenbar;
layers = (
{
background = {
shapes = (
{
pos = (190,0);
ref = bar;
}
);
};
layerId = m009;
shapes = (
{
closed = 1;
nodes = (
(150,338,l),
(150,700,l),
(80,700,l),
(80,338,l)
);
},
{
closed = 1;
nodes = (
(80,190,l),
(80,-170,l),
(150,-170,l),
(150,190,l)
);
}
);
width = 230;
}
);
unicode = 166;
},
{
glyphname = dagger;
layers = (
{
layerId = m009;
shapes = (
{
closed = 1;
nodes = (
(363,-170,l),
(363,499,l),
(346,479,l),
(514,479,l),
(514,544,l),
(348,544,l),
(363,527,l),
(363,700,l),
(293,700,l),
(293,530,l),
(310,544,l),
(142,544,l),
(142,479,l),
(308,479,l),
(293,496,l),
(293,-170,l)
);
}
);
width = 600;
}
);
unicode = 8224;
},
{
glyphname = daggerdbl;
layers = (
{
layerId = m009;
shapes = (
{
closed = 1;
nodes = (
(363,-170,l),
(363,10,l),
(349,-11,l),
(514,-11,l),
(514,54,l),
(345,54,l),
(363,35,l),
(363,499,l),
(347,479,l),
(514,479,l),
(514,544,l),
(349,544,l),
(363,526,l),
(363,700,l),
(293,700,l),
(293,525,l),
(308,544,l),
(142,544,l),
(142,479,l),
(309,479,l),
(293,495,l),
(293,39,l),
(308,54,l),
(142,54,l),
(142,-11,l),
(306,-11,l),
(293,6,l),
(293,-170,l)
);
}
);
width = 600;
}
);
unicode = 8225;
},
{
glyphname = currency;
layers = (
{
layerId = m009;
shapes = (
{
closed = 1;
nodes = (
(399,158,o),
(481,240,o),
(481,341,cs),
(481,442,o),
(399,524,o),
(298,524,cs),
(196,524,o),
(114,442,o),
(114,341,cs),
(114,240,o),
(196,158,o),
(298,158,cs)
);
},
{
closed = 1;
nodes = (
(205,216,l),
(173,250,l),
(93,170,l),
(126,137,l)
);
},
{
closed = 1;
nodes = (
(203,468,l),
(126,545,l),
(93,512,l),
(171,434,l)
);
},
{
closed = 1;
nodes = (
(222,211,o),
(169,271,o),
(169,341,cs),
(169,411,o),
(222,471,o),
(297,471,cs),
(372,471,o),
(425,411,o),
(425,341,cs),
(425,271,o),
(372,211,o),
(297,211,cs)
);
},
{
closed = 1;
nodes = (
(501,170,l),
(424,247,l),
(392,213,l),
(468,137,l)
);
},
{
closed = 1;
nodes = (
(501,512,l),
(468,545,l),
(390,467,l),
(422,433,l)
);
}
);
width = 600;
}
);
unicode = 164;
},
{
glyphname = hryvnia;
layers = (
{
anchors = (
{
name = bar_ver;
pos = (254,359);
}
);
layerId = m009;
shapes = (
{
closed = 1;
nodes = (
(482,390,l),
(482,460,l),
(418,460,l),
(438,438,l),
(458,464,o),
(473,493,o),
(473,533,cs),
(473,632,o),
(383,710,o),
(253,710,cs),
(179,710,o),
(109,685,o),
(54,640,c),
(86,573,l),
(138,612,o),
(199,633,o),
(258,633,cs),
(339,633,o),
(391,593,o),
(391,531,cs),
(391,496,o),
(376,466,o),
(340,444,c),
(402,460,l),
(54,460,l),
(54,390,l)
);
},
{
closed = 1;
nodes = (
(357,-10,o),
(427,15,o),
(482,60,c),
(450,127,l),
(398,88,o),
(337,67,o),
(278,67,cs),
(197,67,o),
(145,107,o),
(145,174,cs),
(145,207,o),
(158,235,o),
(188,257,c),
(150,240,l),
(482,240,l),
(482,310,l),
(54,310,l),
(54,240,l),
(98,240,l),
(99,258,l),
(79,236,o),
(63,208,o),
(63,166,cs),
(63,68,o),
(153,-10,o),
(283,-10,cs)
);
}
);
width = 521;
}
);
unicode = 8372;
},
{
glyphname = ruble;
layers = (
{
layerId = m009;
shapes = (
{
closed = 1;
nodes = (
(320,297,ls),
(473,297,o),
(554,367,o),
(554,499,cs),
(554,632,o),
(470,700,o),
(307,700,cs),
(127,700,l),
(127,630,l),
(307,630,ls),
(414,630,o),
(467,590,o),
(467,499,cs),
(467,410,o),
(415,367,o),
(320,367,cs),
(27,367,l),
(27,297,l)
);
},
{
closed = 1;
nodes = (
(385,157,l),
(385,227,l),
(27,227,l),
(27,157,l)
);
},
{
closed = 1;
nodes = (
(162,0,l),
(162,700,l),
(75,700,l),
(75,0,l)
);
}
);
width = 584;
}
);
unicode = 8381;
},
{
glyphname = rupeeIndian;
layers = (
{
layerId = m009;
shapes = (
{
closed = 1;
nodes = (
(499,0,l),
(324,363,l),
(314,322,l),
(413,342,o),
(467,419,o),
(461,518,c),
(442,490,l),
(503,490,l),
(503,560,l),
(438,560,l),
(460,532,l),
(458,582,o),
(435,617,o),
(408,649,c),
(396,630,l),
(503,630,l),
(503,700,l),
(75,700,l),
(75,630,l),
(250,630,ls),
(331,630,o),
(368,596,o),
(375,535,c),
(394,560,l),
(75,560,l),
(75,490,l),
(394,490,l),
(376,518,l),
(381,437,o),
(342,385,o),
(250,385,cs),
(75,385,l),
(75,315,l),
(300,315,l),
(246,350,l),
(409,0,l)
);
}
);
width = 528;
}
);
unicode = 8377;
},
{
glyphname = sheqel;
layers = (
{
background = {
shapes = (
{
pos = (-1,0);
ref = P;
}
);
};
layerId = m009;
shapes = (
{
closed = 1;
nodes = (
(539,0,l),
(539,700,l),
(474,700,l),
(474,58,l),
(346,58,ls),
(289,58,o),
(270,75,o),
(270,133,cs),
(270,560,l),
(210,560,l),
(210,130,ls),
(210,41,o),
(253,0,o),
(348,0,cs)
);
},
{
closed = 1;
nodes = (
(140,0,l),
(140,642,l),
(268,642,ls),
(325,642,o),
(344,625,o),
(344,567,cs),
(344,140,l),
(404,140,l),
(404,570,ls),
(404,659,o),
(361,700,o),
(266,700,cs),
(75,700,l),
(75,0,l)
);
}
);
width = 614;
}
);
metricLeft = H;
metricRight = H;
unicode = 8362;
},
{
glyphname = sterling;
layers = (
{
background = {
shapes = (
{
pos = (16,0);
ref = Z;
}
);
};
layerId = m009;
shapes = (
{
closed = 1;
nodes = (
(490,0,l),
(490,70,l),
(127,70,l),
(127,61,l),
(188,80,o),
(212,114,o),
(212,193,cs),
(212,337,l),
(199,320,l),
(430,320,l),
(430,390,l),
(198,390,l),
(212,371,l),
(212,508,ls),
(212,596,o),
(250,632,o),
(321,632,cs),
(375,632,o),
(429,611,o),
(478,573,c),
(510,640,l),
(455,685,o),
(386,710,o),
(320,710,cs),
(210,710,o),
(125,643,o),
(125,505,cs),
(125,375,l),
(138,390,l),
(44,390,l),
(44,320,l),
(145,320,l),
(125,336,l),
(125,188,ls),
(125,103,o),
(102,70,o),
(43,70,c),
(43,0,l)
);
},
{
closed = 0;
nodes = (
(478,573,l)
);
}
);
width = 600;
}
);
unicode = 163;
},
{
glyphname = plus;
layers = (
{
layerId = m009;
shapes = (
{
closed = 1;
nodes = (
(265,155,l),
(265,545,l),
(195,545,l),
(195,155,l)
);
},
{
closed = 1;
nodes = (
(409,319,l),
(409,384,l),
(50,384,l),
(50,319,l)
);
}
);
width = 459;
}
);
unicode = 43;
},
{
glyphname = minus;
layers = (
{
background = {
shapes = (
{
pos = (17,0);
ref = plus;
}
);
};
layerId = m009;
shapes = (
{
closed = 1;
nodes = (
(497,319,l),
(497,384,l),
(138,384,l),
(138,319,l)
);
}
);
width = 600;
}
);
unicode = 8722;
},
{
glyphname = multiply;
layers = (
{
background = {
shapes = (
{
ref = plus;
}
);
};
layerId = m009;
shapes = (
{
closed = 1;
nodes = (
(312,318,l),
(291,318,l),
(405,204,l),
(451,250,l),
(337,364,l),
(337,343,l),
(451,457,l),
(405,503,l),
(287,385,l),
(316,385,l),
(198,503,l),
(152,457,l),
(264,345,l),
(264,362,l),
(152,250,l),
(198,204,l)
);
}
);
width = 600;
}
);
unicode = 215;
},
{
glyphname = divide;
layers = (
{
layerId = m009;
shapes = (
{
closed = 1;
nodes = (
(497,319,l),
(497,384,l),
(138,384,l),
(138,319,l)
);
},
{
closed = 1;
nodes = (
(365,158,l),
(365,248,l),
(270,248,l),
(270,158,l)
);
},
{
closed = 1;
nodes = (
(365,455,l),
(365,545,l),
(270,545,l),
(270,455,l)
);
}
);
width = 600;
}
);
unicode = 247;
},
{
glyphname = equal;
layers = (
{
background = {
shapes = (
{
ref = plus;
}
);
};
layerId = m009;
shapes = (
{
closed = 1;
nodes = (
(479,384,l),
(479,449,l),
(120,449,l),
(120,384,l)
);
},
{
closed = 1;
nodes = (
(479,254,l),
(479,319,l),
(120,319,l),
(120,254,l)
);
}
);
width = 600;
}
);
unicode = 61;
},
{
glyphname = notequal;
layers = (
{
layerId = m009;
shapes = (
{
closed = 1;
nodes = (
(261,155,l),
(302,271,l),
(278,254,l),
(479,254,l),
(479,319,l),
(302,319,l),
(312,300,l),
(348,402,l),
(328,384,l),
(479,384,l),
(479,449,l),
(351,449,l),
(358,431,l),
(398,545,l),
(338,545,l),
(298,432,l),
(315,449,l),
(120,449,l),
(120,384,l),
(295,384,l),
(287,400,l),
(252,302,l),
(269,319,l),
(120,319,l),
(120,254,l),
(247,254,l),
(241,271,l),
(201,155,l)
);
}
);
width = 600;
}
);
unicode = 8800;
},
{
glyphname = greater;
layers = (
{
background = {
shapes = (
{
pos = (-95,0);
ref = plus;
}
);
};
layerId = m009;
shapes = (
{
closed = 1;
nodes = (
(393,341,l),
(393,363,l),
(20,526,l),
(20,466,l),
(310,346,l),
(310,358,l),
(20,240,l),
(20,180,l)
);
}
);
width = 413;
}
);
unicode = 62;
},
{
glyphname = greaterequal;
layers = (
{
layerId = m009;
shapes = (
{
closed = 1;
nodes = (
(400,341,l),
(400,363,l),
(27,506,l),
(27,446,l),
(307,346,l),
(307,358,l),
(27,260,l),
(27,200,l)
);
},
{
closed = 1;
nodes = (
(393,104,l),
(393,164,l),
(25,164,l),
(25,104,l)
);
}
);
width = 413;
}
);
unicode = 8805;
},
{
glyphname = plusminus;
layers = (
{
background = {
shapes = (
{
ref = plus;
}
);
};
layerId = m009;
shapes = (
{
closed = 1;
nodes = (
(483,104,l),
(483,164,l),
(115,164,l),
(115,104,l)
);
},
{
closed = 1;
nodes = (
(332,215,l),
(332,545,l),
(266,545,l),
(266,215,l)
);
},
{
closed = 1;
nodes = (
(479,350,l),
(479,413,l),
(120,413,l),
(120,350,l)
);
}
);
width = 600;
}
);
unicode = 177;
},
{
glyphname = approxequal;
layers = (
{
background = {
shapes = (
{
ref = equal;
}
);
};
layerId = m009;
shapes = (
{
closed = 1;
nodes = (
(421,353,o),
(449,363,o),
(479,383,c),
(479,453,l),
(449,433,o),
(421,423,o),
(393,423,cs),
(325,423,o),
(279,483,o),
(207,483,cs),
(176,483,o),
(147,472,o),
(120,453,c),
(120,383,l),
(149,404,o),
(175,413,o),
(201,413,cs),
(268,413,o),
(325,353,o),
(393,353,cs)
);
},
{
closed = 1;
nodes = (
(421,223,o),
(449,233,o),
(479,253,c),
(479,323,l),
(449,303,o),
(421,293,o),
(393,293,cs),
(325,293,o),
(279,353,o),
(207,353,cs),
(176,353,o),
(147,342,o),
(120,323,c),
(120,253,l),
(149,274,o),
(175,283,o),
(201,283,cs),
(268,283,o),
(325,223,o),
(393,223,cs)
);
}
);
width = 600;
}
);
unicode = 8776;
},
{
glyphname = asciitilde;
layers = (
{
layerId = m009;
shapes = (
{
closed = 1;
nodes = (
(439,284,o),
(467,294,o),
(497,314,c),
(497,384,l),
(467,364,o),
(439,354,o),
(411,354,cs),
(343,354,o),
(297,414,o),
(225,414,cs),
(194,414,o),
(165,403,o),
(138,384,c),
(138,314,l),
(167,335,o),
(193,344,o),
(219,344,cs),
(286,344,o),
(343,284,o),
(411,284,cs)
);
}
);
width = 600;
}
);
unicode = 126;
},
{
glyphname = logicalnot;
layers = (
{
layerId = m009;
shapes = (
{
closed = 1;
nodes = (
(375,319,l),
(347,348,l),
(347,229,l),
(412,229,l),
(412,384,l),
(53,384,l),
(53,319,l)
);
}
);
width = 465;
}
);
unicode = 172;
},
{
glyphname = asciicircum;
layers = (
{
layerId = m009;
shapes = (
{
closed = 1;
nodes = (
(77,487,l),
(169,682,l),
(155,682,l),
(232,487,l),
(287,487,l),
(174,750,l),
(152,750,l),
(21,487,l)
);
}
);
width = 307;
}
);
unicode = 94;
},
{
glyphname = infinity;
layers = (
{
layerId = m009;
shapes = (
{
closed = 1;
nodes = (
(303,184,o),
(350,249,o),
(405,326,cs),
(450,390,o),
(490,450,o),
(550,450,cs),
(596,450,o),
(644,416,o),
(644,349,cs),
(644,285,o),
(596,244,o),
(546,244,cs),
(488,244,o),
(444,301,o),
(400,361,c),
(365,316,l),
(409,253,o),
(453,184,o),
(542,184,cs),
(633,184,o),
(696,252,o),
(696,348,cs),
(696,444,o),
(632,509,o),
(546,509,cs),
(464,509,o),
(420,448,o),
(364,369,cs),
(321,308,o),
(277,243,o),
(217,243,cs),
(171,243,o),
(123,277,o),
(123,344,cs),
(123,408,o),
(171,449,o),
(221,449,cs),
(279,449,o),
(323,392,o),
(367,332,c),
(402,377,l),
(358,440,o),
(314,509,o),
(225,509,cs),
(134,509,o),
(71,441,o),
(71,345,cs),
(71,249,o),
(135,184,o),
(221,184,cs)
);
}
);
width = 767;
}
);
unicode = 8734;
},
{
glyphname = integral;
layers = (
{
background = {
shapes = (
{
ref = bar;
}
);
};
layerId = m009;
shapes = (
{
closed = 1;
nodes = (
(-11,-170,ls),
(55,-170,o),
(93,-141,o),
(101,-85,cs),
(196,591,ls),
(200,622,o),
(214,635,o),
(245,635,cs),
(311,635,l),
(311,700,l),
(241,700,ls),
(175,700,o),
(137,671,o),
(129,615,cs),
(34,-61,ls),
(30,-92,o),
(16,-105,o),
(-15,-105,cs),
(-81,-105,l),
(-81,-170,l)
);
}
);
width = 230;
}
);
unicode = 8747;
},
{
glyphname = product;
layers = (
{
layerId = m009;
shapes = (
{
closed = 1;
nodes = (
(218,-170,l),
(218,649,l),
(206,635,l),
(441,635,l),
(428,648,l),
(428,-170,l),
(498,-170,l),
(498,649,l),
(485,635,l),
(602,635,l),
(602,700,l),
(43,700,l),
(43,635,l),
(162,635,l),
(148,649,l),
(148,-170,l)
);
}
);
width = 645;
}
);
unicode = 8719;
},
{
glyphname = summation;
layers = (
{
layerId = m009;
shapes = (
{
closed = 1;
nodes = (
(414,-170,l),
(414,-105,l),
(126,-105,l),
(135,-142,l),
(350,277,l),
(350,281,l),
(135,669,l),
(128,635,l),
(414,635,l),
(414,700,l),
(80,700,l),
(80,629,l),
(271,283,l),
(271,277,l),
(80,-99,l),
(80,-170,l)
);
}
);
width = 504;
}
);
unicode = 8721;
},
{
glyphname = radical;
layers = (
{
layerId = m009;
shapes = (
{
closed = 1;
nodes = (
(266,-120,l),
(507,672,l),
(458,635,l),
(714,635,l),
(714,700,l),
(446,700,l),
(216,-67,l),
(240,-66,l),
(119,265,l),
(49,265,l),
(196,-120,l)
);
}
);
width = 600;
}
);
unicode = 8730;
},
{
glyphname = partialdiff;
layers = (
{
background = {
shapes = (
{
pos = (537,0);
ref = five;
scale = (-1,1);
}
);
};
layerId = m009;
shapes = (
{
closed = 1;
nodes = (
(440,-10,o),
(567,81,o),
(571,305,cs),
(576,577,o),
(429,725,o),
(229,750,c),
(227,688,l),
(382,668,o),
(504,542,o),
(508,336,c),
(522,344,l),
(473,430,o),
(378,463,o),
(301,463,cs),
(179,463,o),
(73,373,o),
(70,235,cs),
(67,95,o),
(164,-10,o),
(305,-10,cs)
);
},
{
closed = 1;
nodes = (
(223,63,o),
(142,127,o),
(144,232,cs),
(146,341,o),
(235,391,o),
(318,391,cs),
(395,391,o),
(484,350,o),
(511,278,c),
(507,323,l),
(513,128,o),
(404,63,o),
(314,63,cs)
);
}
);
width = 604;
}
);
unicode = 8706;
},
{
glyphname = percent;
layers = (
{
layerId = m009;
shapes = (
{
closed = 1;
nodes = (
(165,-60,l),
(562,740,l),
(493,740,l),
(93,-60,l)
);
},
{
closed = 1;
nodes = (
(221,392,o),
(267,467,o),
(267,570,cs),
(267,672,o),
(220,750,o),
(144,750,cs),
(66,750,o),
(20,669,o),
(20,570,cs),
(20,470,o),
(66,392,o),
(144,392,cs)
);
},
{
closed = 1;
nodes = (
(98,448,o),
(74,498,o),
(74,570,cs),
(74,642,o),
(97,694,o),
(144,694,cs),
(189,694,o),
(214,643,o),
(214,570,cs),
(214,496,o),
(189,448,o),
(144,448,cs)
);
},
{
closed = 1;
nodes = (
(602,-10,o),
(648,65,o),
(648,168,cs),
(648,270,o),
(601,348,o),
(525,348,cs),
(447,348,o),
(401,267,o),
(401,168,cs),
(401,68,o),
(447,-10,o),
(525,-10,cs)
);
},
{
closed = 1;
nodes = (
(479,46,o),
(455,96,o),
(455,168,cs),
(455,240,o),
(478,292,o),
(525,292,cs),
(570,292,o),
(595,241,o),
(595,168,cs),
(595,94,o),
(570,46,o),
(525,46,cs)
);
}
);
width = 668;
}
);
unicode = 37;
},
{
glyphname = perthousand;
layers = (
{
layerId = m009;
shapes = (
{
closed = 1;
nodes = (
(193,-60,l),
(590,740,l),
(521,740,l),
(121,-60,l)
);
},
{
closed = 1;
nodes = (
(249,392,o),
(295,467,o),
(295,570,cs),
(295,672,o),
(248,750,o),
(172,750,cs),
(94,750,o),
(48,669,o),
(48,570,cs),
(48,470,o),
(94,392,o),
(172,392,cs)
);
},
{
closed = 1;
nodes = (
(126,448,o),
(102,498,o),
(102,570,cs),
(102,642,o),
(125,694,o),
(172,694,cs),
(217,694,o),
(242,643,o),
(242,570,cs),
(242,496,o),
(217,448,o),
(172,448,cs)
);
},
{
closed = 1;
nodes = (
(630,-10,o),
(676,65,o),
(676,168,cs),
(676,270,o),
(629,348,o),
(553,348,cs),
(475,348,o),
(429,267,o),
(429,168,cs),
(429,68,o),
(475,-10,o),
(553,-10,cs)
);
},
{
closed = 1;
nodes = (
(507,46,o),
(483,96,o),
(483,168,cs),
(483,240,o),
(506,292,o),
(553,292,cs),
(598,292,o),
(623,241,o),
(623,168,cs),
(623,94,o),
(598,46,o),
(553,46,cs)
);
},
{
closed = 1;
nodes = (
(930,-10,o),
(976,65,o),
(976,168,cs),
(976,270,o),
(929,348,o),
(853,348,cs),
(775,348,o),
(729,267,o),
(729,168,cs),
(729,68,o),
(775,-10,o),
(853,-10,cs)
);
},
{
closed = 1;
nodes = (
(807,46,o),
(783,96,o),
(783,168,cs),
(783,240,o),
(806,292,o),
(853,292,cs),
(898,292,o),
(923,241,o),
(923,168,cs),
(923,94,o),
(898,46,o),
(853,46,cs)
);
}
);
width = 1028;
}
);
unicode = 8240;
},
{
glyphname = upArrow;
layers = (
{
layerId = m009;
shapes = (
{
closed = 1;
nodes = (
(329,-10,l),
(329,651,l),
(305,621,l),
(519,406,l),
(519,493,l),
(299,720,l),
(293,720,l),
(72,491,l),
(72,406,l),
(285,620,l),
(259,651,l),
(259,-10,l)
);
}
);
width = 600;
}
);
unicode = 8593;
},
{
glyphname = leftRightArrow;
layers = (
{
background = {
shapes = (
{
pos = (864,-83);
ref = leftArrow;
scale = (-1,1);
}
);
};
layerId = m009;
shapes = (
{
closed = 1;
nodes = (
(601,145,l),
(828,365,l),
(828,371,l),
(599,592,l),
(514,592,l),
(732,375,l),
(755,405,l),
(121,405,l),
(134,375,l),
(352,592,l),
(267,592,l),
(38,371,l),
(38,365,l),
(265,145,l),
(352,145,l),
(130,366,l),
(121,335,l),
(756,335,l),
(736,366,l),
(514,145,l)
);
}
);
width = 872;
}
);
unicode = 8596;
},
{
glyphname = leftHookArrow;
layers = (
{
background = {
shapes = (
{
pos = (0,-48);
ref = leftArrow;
}
);
};
layerId = m009;
shapes = (
{
closed = 1;
nodes = (
(350,140,l),
(132,357,l),
(105,330,l),
(574,330,ls),
(712,330,o),
(801,404,o),
(801,524,cs),
(801,529,ls),
(801,655,o),
(716,724,o),
(565,723,c),
(565,660,l),
(677,659,o),
(734,615,o),
(734,530,cs),
(734,526,ls),
(734,446,o),
(674,400,o),
(574,400,cs),
(105,400,l),
(133,372,l),
(350,587,l),
(265,587,l),
(36,366,l),
(36,360,l),
(263,140,l)
);
}
);
width = 810;
}
);
unicode = 8617;
},
{
glyphname = upTipLeftArrow;
layers = (
{
background = {
shapes = (
{
pos = (0,-98);
ref = leftArrow;
}
);
};
layerId = m009;
shapes = (
{
closed = 1;
nodes = (
(766,-117,l),
(766,421,l),
(804,390,l),
(129,390,l),
(129,357,l),
(350,577,l),
(265,577,l),
(36,356,l),
(36,350,l),
(263,130,l),
(350,130,l),
(125,354,l),
(128,320,l),
(753,320,l),
(696,365,l),
(696,-117,l)
);
}
);
width = 810;
}
);
unicode = 8624;
},
{
glyphname = leftAndRightArrow;
layers = (
{
background = {
shapes = (
{
pos = (113,-305);
ref = rightArrow;
}
);
};
layerId = m009;
shapes = (
{
closed = 1;
nodes = (
(357,278,l),
(139,495,l),
(112,468,l),
(773,468,l),
(773,538,l),
(112,538,l),
(142,512,l),
(357,725,l),
(272,725,l),
(43,504,l),
(43,498,l),
(270,278,l)
);
},
{
closed = 1;
nodes = (
(546,-75,l),
(773,145,l),
(773,151,l),
(544,372,l),
(459,372,l),
(673,159,l),
(704,185,l),
(43,185,l),
(43,115,l),
(704,115,l),
(677,142,l),
(459,-75,l)
);
}
);
width = 810;
}
);
unicode = 8646;
},
{
glyphname = lozenge;
layers = (
{
layerId = m009;
shapes = (
{
closed = 1;
nodes = (
(256,0,l),
(396,348,l),
(396,352,l),
(256,700,l),
(180,700,l),
(40,352,l),
(40,348,l),
(180,0,l)
);
},
{
closed = 1;
nodes = (
(232,35,l),
(106,348,l),
(106,352,l),
(232,665,l),
(204,665,l),
(330,352,l),
(330,348,l),
(204,35,l)
);
}
);
width = 436;
}
);
unicode = 9674;
},
{
glyphname = _g.001;
layers = (
{
background = {
shapes = (
{
closed = 0;
nodes = (
(409,414,l),
(409,484,o),
(437,509,o),
(498,474,c),
(448,422,l),
(495,578,l),
(502,533,l),
(483,546,o),
(462,555,o),
(432,555,cs),
(359,555,o),
(334,501,o),
(334,432,c)
);
}
);
};
layerId = m009;
shapes = (
{
closed = 1;
nodes = (
(370,-266,o),
(499,-160,o),
(499,-50,cs),
(499,27,o),
(437,66,o),
(367,66,cs),
(149,66,ls),
(124,66,o),
(102,76,o),
(102,99,cs),
(102,118,o),
(117,132,o),
(157,163,cs),
(195,192,l),
(155,219,l),
(74,157,ls),
(44,134,o),
(28,105,o),
(28,73,cs),
(28,29,o),
(58,-16,o),
(141,-16,cs),
(335,-16,ls),
(380,-16,o),
(418,-35,o),
(418,-72,cs),
(418,-137,o),
(304,-199,o),
(194,-199,cs),
(113,-199,o),
(68,-162,o),
(68,-114,cs),
(68,-76,o),
(96,-29,o),
(160,-16,c),
(160,19,l),
(45,5,o),
(-17,-74,o),
(-17,-143,cs),
(-17,-218,o),
(55,-266,o),
(167,-266,cs)
);
},
{
closed = 1;
nodes = (
(328,169,o),
(415,242,o),
(415,362,cs),
(419,482,o),
(328,555,o),
(223,555,cs),
(118,555,o),
(31,482,o),
(31,362,cs),
(31,242,o),
(118,169,o),
(223,169,cs)
);
},
{
closed = 1;
nodes = (
(160,237,o),
(108,282,o),
(108,363,cs),
(108,444,o),
(160,488,o),
(223,488,cs),
(286,488,o),
(338,444,o),
(338,363,cs),
(338,282,o),
(286,237,o),
(223,237,cs)
);
},
{
closed = 1;
nodes = (
(484,485,l),
(484,555,l),
(238,552,l),
(238,515,l),
(378,483,l),
(378,486,l)
);
}
);
width = 483;
}
);
},
{
glyphname = _g.002;
layers = (
{
layerId = m009;
shapes = (
{
closed = 1;
nodes = (
(362,-265,o),
(469,-204,o),
(469,-85,cs),
(469,9,o),
(399,66,o),
(278,66,cs),
(133,66,ls),
(109,66,o),
(95,77,o),
(95,94,cs),
(95,106,o),
(102,118,o),
(137,141,cs),
(198,182,l),
(184,219,l),
(102,170,ls),
(47,137,o),
(23,105,o),
(23,69,cs),
(23,23,o),
(62,-16,o),
(140,-16,cs),
(283,-16,ls),
(366,-16,o),
(403,-46,o),
(403,-94,cs),
(403,-162,o),
(327,-200,o),
(235,-200,cs),
(146,-200,o),
(96,-165,o),
(96,-116,cs),
(96,-57,o),
(168,-16,o),
(233,-16,c),
(233,14,l),
(158,14,o),
(5,-26,o),
(5,-134,cs),
(5,-215,o),
(95,-265,o),
(225,-265,cs)
);
},
{
closed = 1;
nodes = (
(317,169,o),
(404,242,o),
(404,362,cs),
(404,482,o),
(317,555,o),
(212,555,cs),
(107,555,o),
(20,482,o),
(20,362,cs),
(20,242,o),
(107,169,o),
(212,169,cs)
);
},
{
closed = 1;
nodes = (
(149,237,o),
(97,282,o),
(97,363,cs),
(97,444,o),
(149,488,o),
(212,488,cs),
(275,488,o),
(327,444,o),
(327,363,cs),
(327,282,o),
(275,237,o),
(212,237,cs)
);
},
{
closed = 1;
nodes = (
(366,486,l),
(472,485,l),
(472,555,l),
(226,552,l),
(226,515,l),
(366,483,l)
);
}
);
width = 459;
}
);
},
{
glyphname = _k.001;
layers = (
{
layerId = m009;
shapes = (
{
pos = (31,0);
ref = _part.stem_l;
},
{
closed = 1;
nodes = (
(468,-10,o),
(486,-5,o),
(507,8,c),
(504,-7,l),
(480,67,l),
(492,65,l),
(464,50,o),
(436,60,o),
(418,89,cs),
(281,307,l),
(267,257,l),
(470,545,l),
(390,545,l),
(201,284,l),
(201,279,l),
(355,46,ls),
(380,8,o),
(410,-10,o),
(448,-10,cs)
);
}
);
width = 631;
}
);
metricLeft = h;
},
{
glyphname = _k.002;
layers = (
{
background = {
shapes = (
{
pos = (24,0);
ref = _part.stem_l;
},
{
pos = (-28,0);
ref = x;
}
);
};
layerId = m009;
shapes = (
{
closed = 1;
nodes = (
(446,-10,o),
(464,-5,o),
(485,8,c),
(482,-7,l),
(458,68,l),
(470,66,l),
(442,51,o),
(421,56,o),
(404,83,cs),
(264,296,l),
(254,257,l),
(431,545,l),
(351,545,l),
(208,310,l),
(155,310,l),
(155,240,l),
(208,240,l),
(334,45,ls),
(362,1,o),
(390,-10,o),
(424,-10,cs)
);
},
{
pos = (24,0);
ref = _part.stem_l;
}
);
width = 464;
}
);
metricLeft = H;
},
{
export = 0;
glyphname = _Komponen_sa_;
layers = (
{
layerId = m009;
shapes = (
{
closed = 1;
nodes = (
(209,-10,o),
(277,116,o),
(277,387,cs),
(277,500,o),
(231,555,o),
(154,555,cs),
(66,555,o),
(-1,481,o),
(-1,377,c),
(54,377,l),
(56,447,o),
(94,487,o),
(144,487,cs),
(192,487,o),
(226,450,o),
(226,376,cs),
(226,144,o),
(178,53,o),
(117,53,cs),
(84,53,o),
(54,80,o),
(54,124,cs),
(54,185,o),
(112,224,o),
(200,224,cs),
(248,224,l),
(248,284,l),
(206,284,ls),
(83,284,o),
(-5,213,o),
(-5,112,cs),
(-5,31,o),
(52,-10,o),
(109,-10,cs)
);
}
);
width = 600;
}
);
},
{
export = 0;
glyphname = _bar_hor_dbl_;
layers = (
{
anchors = (
{
name = _bar_hor_dbl;
pos = (305,355);
}
);
background = {
shapes = (
{
pos = (-30,0);
ref = H;
}
);
};
layerId = m009;
shapes = (
{
closed = 1;
nodes = (
(511,390,l),
(511,460,l),
(83,460,l),
(83,390,l)
);
},
{
closed = 1;
nodes = (
(511,250,l),
(511,320,l),
(83,320,l),
(83,250,l)
);
}
);
width = 600;
}
);
},
{
export = 0;
glyphname = _bar_ver_;
layers = (
{
anchors = (
{
name = _bar_ver;
pos = (295,359);
}
);
background = {
shapes = (
{
ref = B;
}
);
};
layerId = m009;
shapes = (
{
closed = 1;
nodes = (
(322,-50,l),
(322,750,l),
(266,750,l),
(266,-50,l)
);
}
);
width = 600;
}
);
},
{
export = 0;
glyphname = _bottom_E;
layers = (
{
anchors = (
{
name = _bottom;
pos = (143,0);
}
);
layerId = m009;
shapes = (
{
closed = 1;
nodes = (
(506,0,l),
(506,70,l),
(143,70,l),
(143,0,l)
);
}
);
width = 600;
}
);
},
{
export = 0;
glyphname = _center_E;
layers = (
{
anchors = (
{
name = _center;
pos = (143,308);
}
);
layerId = m009;
shapes = (
{
closed = 1;
nodes = (
(471,308,l),
(471,378,l),
(143,378,l),
(143,308,l)
);
}
);
width = 600;
}
);
},
{
export = 0;
glyphname = _perut_b;
layers = (
{
layerId = m009;
shapes = (
{
closed = 1;
nodes = (
(454,-10,o),
(556,107,o),
(556,278,cs),
(556,446,o),
(459,555,o),
(333,555,cs),
(264,555,o),
(203,523,o),
(165,469,c),
(134,469,l),
(128,76,l),
(163,76,l),
(191,24,o),
(256,-10,o),
(325,-10,cs)
);
},
{
closed = 1;
nodes = (
(226,63,o),
(159,132,o),
(159,274,cs),
(159,425,o),
(236,484,o),
(311,484,cs),
(401,484,o),
(470,401,o),
(470,272,cs),
(470,148,o),
(404,63,o),
(310,63,cs)
);
}
);
width = 601;
}
);
},
{
export = 0;
glyphname = _perut_d;
layers = (
{
layerId = m009;
shapes = (
{
closed = 1;
nodes = (
(345,-10,o),
(408,23,o),
(441,80,c),
(476,80,l),
(470,469,l),
(440,469,l),
(407,519,o),
(351,555,o),
(278,555,cs),
(150,555,o),
(45,446,o),
(45,273,cs),
(45,99,o),
(153,-10,o),
(277,-10,cs)
);
},
{
closed = 1;
nodes = (
(196,62,o),
(131,139,o),
(131,276,cs),
(131,412,o),
(198,485,o),
(287,485,cs),
(376,485,o),
(451,417,o),
(451,274,cs),
(451,132,o),
(385,62,o),
(293,62,cs)
);
}
);
width = 604;
}
);
},
{
export = 0;
glyphname = _repa_;
lastChange = "2022-12-27 14:56:33 +0000";
layers = (
{
layerId = m009;
shapes = (
{
closed = 1;
nodes = (
(348,-291,o),
(378,-249,o),
(378,-216,cs),
(378,-180,o),
(355,-164,o),
(274,-143,cs),
(239,-134,o),
(215,-127,o),
(215,-107,cs),
(215,-91,o),
(238,-78,o),
(272,-78,cs),
(301,-78,o),
(318,-80,o),
(359,-89,c),
(359,-53,l),
(318,-44,o),
(301,-41,o),
(265,-41,cs),
(204,-41,o),
(156,-69,o),
(156,-105,cs),
(156,-150,o),
(204,-172,o),
(258,-185,cs),
(310,-198,o),
(329,-208,o),
(329,-222,cs),
(329,-239,o),
(306,-248,o),
(273,-248,cs),
(219,-248,o),
(187,-234,o),
(150,-209,c),
(147,-251,l),
(181,-278,o),
(230,-291,o),
(274,-291,cs)
);
}
);
width = 600;
}
);
},
{
export = 0;
glyphname = _tail_Q;
layers = (
{
anchors = (
{
name = _tail_Q;
pos = (371,43);
}
);
layerId = m009;
shapes = (
{
closed = 1;
nodes = (
(570,-80,l),
(435,153,l),
(345,153,l),
(480,-80,l)
);
}
);
width = 717;
}
);
},
{
export = 0;
glyphname = _tail_na;
layers = (
{
layerId = m009;
shapes = (
{
closed = 1;
nodes = (
(594,-10,o),
(640,37,o),
(640,107,cs),
(640,238,o),
(480,285,o),
(370,285,cs),
(263,285,l),
(234,268,l),
(234,242,l),
(257,205,l),
(371,205,ls),
(460,205,o),
(580,182,o),
(580,109,cs),
(580,71,o),
(547,53,o),
(502,53,cs),
(420,53,o),
(357,113,o),
(357,245,cs),
(357,378,o),
(417,478,o),
(550,478,cs),
(645,478,o),
(722,429,o),
(722,264,cs),
(722,0,l),
(773,0,l),
(773,275,ls),
(773,494,o),
(681,555,o),
(566,555,cs),
(397,555,o),
(306,406,o),
(306,248,cs),
(306,87,o),
(393,-10,o),
(511,-10,cs)
);
}
);
width = 600;
}
);
},
{
export = 0;
glyphname = _tail_sa;
layers = (
{
layerId = m009;
shapes = (
{
closed = 1;
nodes = (
(695,0,l),
(695,420,ls),
(695,509,o),
(664,545,o),
(574,545,cs),
(507,545,l),
(507,96,l),
(521,64,l),
(534,64,l),
(560,96,l),
(560,522,l),
(540,498,l),
(580,498,ls),
(620,498,o),
(642,478,o),
(642,436,cs),
(642,0,l)
);
}
);
width = 600;
}
);
},
{
export = 0;
glyphname = _tedung_bali_;
layers = (
{
layerId = m009;
shapes = (
{
closed = 1;
nodes = (
(600,174,o),
(692,243,o),
(692,375,cs),
(692,493,o),
(613,555,o),
(516,555,cs),
(440,555,o),
(385,515,o),
(349,479,c),
(367,433,l),
(399,460,o),
(446,494,o),
(509,494,cs),
(589,494,o),
(633,438,o),
(633,362,cs),
(633,278,o),
(579,227,o),
(520,227,cs),
(485,227,o),
(453,245,o),
(435,270,c),
(413,228,l),
(434,195,o),
(473,174,o),
(518,174,cs)
);
}
);
width = 600;
}
);
},
{
export = 0;
glyphname = _top_E;
layers = (
{
anchors = (
{
name = _top;
pos = (143,630);
}
);
layerId = m009;
shapes = (
{
closed = 1;
nodes = (
(500,630,l),
(500,700,l),
(143,700,l),
(143,630,l)
);
}
);
width = 600;
}
);
},
{
export = 0;
glyphname = _ytail;
layers = (
{
anchors = (
{
name = _ytail;
pos = (250,0);
}
);
layerId = m009;
shapes = (
{
closed = 1;
nodes = (
(5,-167,l),
(36,-198,o),
(69,-215,o),
(114,-215,cs),
(183,-215,o),
(229,-175,o),
(269,-60,cs),
(290,0,l),
(291,34,l),
(221,34,l),
(201,-26,ls),
(171,-117,o),
(145,-144,o),
(102,-144,cs),
(77,-144,o),
(52,-135,o),
(22,-102,c),
(70,-78,l),
(5,-237,l)
);
}
);
width = 501;
}
);
},
{
export = 0;
glyphname = _part.shoulder;
layers = (
{
anchors = (
{
name = _connect;
pos = (129,0);
},
{
name = connect;
pos = (480,0);
}
);
background = {
shapes = (
{
pos = (1,0);
ref = a;
}
);
};
layerId = m009;
partSelection = {
crotchDepth = 2;
shoulderWidth = 2;
};
shapes = (
{
closed = 1;
nodes = (
(480,0,l),
(480,341,ls),
(480,478,o),
(411,555,o),
(296,555,cs),
(225,555,o),
(170,525,o),
(132,469,c),
(121,469,l),
(121,336,l),
(129,336,l),
(140,422,o),
(195,487,o),
(277,487,cs),
(354,487,o),
(395,430,o),
(395,341,cs),
(395,0,l)
);
}
);
width = 525;
},
{
anchors = (
{
name = _connect;
pos = (129,0);
},
{
name = connect;
pos = (470,0);
}
);
associatedMasterId = m009;
background = {
shapes = (
{
pos = (1,0);
ref = a;
}
);
};
layerId = "F4F44C10-E8E8-4745-80A2-0AC5EE456540";
name = NarrowShoulder;
partSelection = {
crotchDepth = 2;
shoulderWidth = 1;
};
shapes = (
{
closed = 1;
nodes = (
(470,0,l),
(470,338,ls),
(470,477,o),
(401,555,o),
(279,555,cs),
(225,555,o),
(170,525,o),
(132,469,c),
(121,469,l),
(121,366,l),
(129,366,l),
(135,425,o),
(193,485,o),
(257,485,cs),
(350,485,o),
(394,439,o),
(394,341,cs),
(394,0,l)
);
}
);
width = 525;
},
{
anchors = (
{
name = _connect;
pos = (129,0);
},
{
name = connect;
pos = (470,0);
}
);
associatedMasterId = m009;
background = {
shapes = (
{
pos = (1,0);
ref = a;
}
);
};
layerId = "B7069A0C-5FB5-476E-9546-F60CC2642544";
name = LowCrotch;
partSelection = {
crotchDepth = 1;
shoulderWidth = 2;
};
shapes = (
{
closed = 1;
nodes = (
(470,0,l),
(470,338,ls),
(470,477,o),
(401,555,o),
(296,555,cs),
(212,555,o),
(151,517,o),
(116,442,c),
(106,442,l),
(121,321,l),
(129,321,l),
(135,416,o),
(197,485,o),
(276,485,cs),
(350,485,o),
(394,439,o),
(394,341,cs),
(394,0,l)
);
}
);
width = 525;
}
);
partsSettings = (
{
bottomValue = -100;
name = crotchDepth;
topValue = 0;
},
{
bottomValue = 0;
name = shoulderWidth;
topValue = 100;
}
);
},
{
export = 0;
glyphname = _part.stem;
layers = (
{
anchors = (
{
name = connect;
pos = (121,0);
}
);
background = {
shapes = (
{
pos = (-8,0);
ref = _part.shoulder;
}
);
};
layerId = m009;
shapes = (
{
closed = 1;
nodes = (
(121,0,l),
(121,466,l),
(101,545,l),
(36,545,l),
(36,0,l)
);
}
);
width = 525;
}
);
},
{
export = 0;
glyphname = _part.stem_E;
layers = (
{
anchors = (
{
name = bottom;
pos = (153,0);
},
{
name = center;
pos = (153,321);
},
{
name = top;
pos = (153,630);
}
);
layerId = m009;
shapes = (
{
closed = 1;
nodes = (
(183,0,l),
(183,700,l),
(96,700,l),
(96,0,l)
);
}
);
width = 600;
}
);
},
{
export = 0;
glyphname = _part.stem_F;
layers = (
{
anchors = (
{
name = center;
pos = (138,312);
},
{
name = top;
pos = (138,630);
}
);
layerId = m009;
shapes = (
{
closed = 1;
nodes = (
(183,0,l),
(183,700,l),
(96,700,l),
(96,0,l)
);
}
);
width = 600;
}
);
},
{
export = 0;
glyphname = _part.stem_L;
layers = (
{
anchors = (
{
name = bottom;
pos = (131,0);
}
);
layerId = m009;
shapes = (
{
closed = 1;
nodes = (
(183,0,l),
(183,700,l),
(96,700,l),
(96,0,l)
);
}
);
width = 600;
}
);
},
